font.ufo
<glyph name="exclam" format="2">
	<unicode hex="0021"/>
	<advance width="319"/>
	<outline>
		<contour>
			<point x="135" y="206" type="line"/>
			<point x="193" y="206" type="line"/>
			<point x="296" y="509"/>
			<point x="317" y="574"/>
			<point x="317" y="619" type="curve" smooth="yes"/>
			<point x="317" y="657"/>
			<point x="290" y="680"/>
			<point x="250" y="680" type="curve" smooth="yes"/>
			<point x="209" y="680"/>
			<point x="187" y="655"/>
			<point x="176" y="614" type="curve" smooth="yes"/>
			<point x="166" y="572"/>
			<point x="155" y="492"/>
			<point x="146" y="357" type="curve" smooth="yes"/>
		</contour>
		<contour>
			<point x="63" y="53" type="curve" smooth="yes"/>
			<point x="63" y="16"/>
			<point x="89" y="-12"/>
			<point x="133" y="-12" type="curve" smooth="yes"/>
			<point x="186" y="-12"/>
			<point x="221" y="28"/>
			<point x="221" y="79" type="curve" smooth="yes"/>
			<point x="221" y="116"/>
			<point x="195" y="144"/>
			<point x="151" y="144" type="curve" smooth="yes"/>
			<point x="98" y="144"/>
			<point x="63" y="104"/>
		</contour>
	</outline>
</glyph>
<glyph name="dollar" format="2">
	<unicode hex="0024"/>
	<advance width="559"/>
	<outline>
		<contour>
			<point x="190" y="-116" type="line"/>
			<point x="242" y="-116" type="line"/>
			<point x="317" y="315" type="line"/>
			<point x="267" y="315" type="line"/>
		</contour>
		<contour>
			<point x="252" y="-12" type="curve" smooth="yes"/>
			<point x="386" y="-12"/>
			<point x="492" y="58"/>
			<point x="492" y="176" type="curve" smooth="yes"/>
			<point x="492" y="273"/>
			<point x="431" y="319"/>
			<point x="338" y="376" type="curve" smooth="yes"/>
			<point x="326" y="383" type="line" smooth="yes"/>
			<point x="264" y="420"/>
			<point x="233" y="451"/>
			<point x="233" y="501" type="curve" smooth="yes"/>
			<point x="233" y="557"/>
			<point x="275" y="597"/>
			<point x="359" y="597" type="curve" smooth="yes"/>
			<point x="407" y="597"/>
			<point x="440" y="591"/>
			<point x="468" y="581" type="curve"/>
			<point x="412" y="626" type="line"/>
			<point x="427" y="533" type="line" smooth="yes"/>
			<point x="433" y="493"/>
			<point x="453" y="478"/>
			<point x="484" y="478" type="curve" smooth="yes"/>
			<point x="516" y="478"/>
			<point x="536" y="497"/>
			<point x="540" y="530" type="curve"/>
			<point x="525" y="594"/>
			<point x="461" y="653"/>
			<point x="344" y="653" type="curve" smooth="yes"/>
			<point x="228" y="653"/>
			<point x="119" y="591"/>
			<point x="119" y="474" type="curve" smooth="yes"/>
			<point x="119" y="378"/>
			<point x="178" y="333"/>
			<point x="269" y="278" type="curve" smooth="yes"/>
			<point x="281" y="270" type="line" smooth="yes"/>
			<point x="345" y="231"/>
			<point x="374" y="199"/>
			<point x="374" y="150" type="curve" smooth="yes"/>
			<point x="374" y="89"/>
			<point x="332" y="44"/>
			<point x="236" y="44" type="curve" smooth="yes"/>
			<point x="188" y="44"/>
			<point x="147" y="49"/>
			<point x="122" y="60" type="curve"/>
			<point x="180" y="24" type="line"/>
			<point x="164" y="124" type="line" smooth="yes"/>
			<point x="158" y="164"/>
			<point x="138" y="179"/>
			<point x="106" y="179" type="curve" smooth="yes"/>
			<point x="75" y="179"/>
			<point x="55" y="160"/>
			<point x="50" y="127" type="curve"/>
			<point x="65" y="49"/>
			<point x="131" y="-12"/>
		</contour>
		<contour>
			<point x="281" y="326" type="line"/>
			<point x="330" y="326" type="line"/>
			<point x="408" y="757" type="line"/>
			<point x="355" y="757" type="line"/>
		</contour>
	</outline>
</glyph>
<glyph name="ampersand" format="2">
	<unicode hex="0026"/>
	<advance width="733"/>
	<outline>
		<contour>
			<point x="315" y="-16" type="curve" smooth="yes"/>
			<point x="485" y="-16"/>
			<point x="586" y="66"/>
			<point x="586" y="176" type="curve" smooth="yes"/>
			<point x="586" y="240"/>
			<point x="541" y="276"/>
			<point x="480" y="287" type="curve"/>
			<point x="482" y="303" type="line"/>
			<point x="616" y="313"/>
			<point x="707" y="378"/>
			<point x="761" y="486" type="curve"/>
			<point x="678" y="526" type="line"/>
			<point x="638" y="413"/>
			<point x="572" y="340"/>
			<point x="447" y="327" type="curve"/>
			<point x="438" y="272" type="line"/>
			<point x="493" y="259"/>
			<point x="520" y="227"/>
			<point x="520" y="183" type="curve" smooth="yes"/>
			<point x="520" y="107"/>
			<point x="453" y="67"/>
			<point x="355" y="67" type="curve" smooth="yes"/>
			<point x="240" y="67"/>
			<point x="168" y="125"/>
			<point x="168" y="229" type="curve" smooth="yes"/>
			<point x="168" y="289"/>
			<point x="190" y="345"/>
			<point x="254" y="382" type="curve"/>
			<point x="238" y="387" type="line"/>
			<point x="274" y="353"/>
			<point x="312" y="335"/>
			<point x="352" y="335" type="curve" smooth="yes"/>
			<point x="388" y="335"/>
			<point x="407" y="352"/>
			<point x="407" y="376" type="curve" smooth="yes"/>
			<point x="407" y="406"/>
			<point x="380" y="424"/>
			<point x="308" y="424" type="curve" smooth="yes"/>
			<point x="300" y="424"/>
			<point x="286" y="423"/>
			<point x="273" y="422" type="curve"/>
			<point x="293" y="414" type="line"/>
			<point x="283" y="439"/>
			<point x="278" y="461"/>
			<point x="278" y="490" type="curve" smooth="yes"/>
			<point x="278" y="574"/>
			<point x="330" y="636"/>
			<point x="424" y="636" type="curve" smooth="yes"/>
			<point x="452" y="636"/>
			<point x="473" y="632"/>
			<point x="489" y="628" type="curve"/>
			<point x="430" y="665" type="line"/>
			<point x="451" y="590" type="line" smooth="yes"/>
			<point x="462" y="555"/>
			<point x="481" y="540"/>
			<point x="511" y="540" type="curve" smooth="yes"/>
			<point x="537" y="540"/>
			<point x="558" y="559"/>
			<point x="564" y="586" type="curve"/>
			<point x="548" y="637"/>
			<point x="495" y="680"/>
			<point x="394" y="680" type="curve" smooth="yes"/>
			<point x="265" y="680"/>
			<point x="182" y="606"/>
			<point x="182" y="516" type="curve" smooth="yes"/>
			<point x="182" y="471"/>
			<point x="205" y="436"/>
			<point x="253" y="409" type="curve"/>
			<point x="249" y="396" type="line"/>
			<point x="116" y="379"/>
			<point x="50" y="300"/>
			<point x="50" y="197" type="curve" smooth="yes"/>
			<point x="50" y="63"/>
			<point x="150" y="-16"/>
		</contour>
	</outline>
</glyph>
<glyph name="asterisk" format="2">
	<unicode hex="002A"/>
	<advance width="475"/>
	<outline>
		<contour>
			<point x="223" y="696" type="curve" smooth="yes"/>
			<point x="223" y="666"/>
			<point x="242" y="627"/>
			<point x="286" y="554" type="curve"/>
			<point x="308" y="558" type="line"/>
			<point x="324" y="659"/>
			<point x="322" y="688"/>
			<point x="318" y="707" type="curve" smooth="yes"/>
			<point x="314" y="727"/>
			<point x="298" y="745"/>
			<point x="270" y="745" type="curve" smooth="yes"/>
			<point x="242" y="745"/>
			<point x="223" y="725"/>
		</contour>
		<contour>
			<point x="80" y="548" type="curve" smooth="yes"/>
			<point x="80" y="506"/>
			<point x="125" y="490"/>
			<point x="267" y="518" type="curve"/>
			<point x="270" y="538" type="line"/>
			<point x="184" y="582"/>
			<point x="158" y="591"/>
			<point x="130" y="591" type="curve" smooth="yes"/>
			<point x="100" y="591"/>
			<point x="80" y="575"/>
		</contour>
		<contour>
			<point x="173" y="360" type="curve" smooth="yes"/>
			<point x="173" y="335"/>
			<point x="192" y="319"/>
			<point x="216" y="319" type="curve" smooth="yes"/>
			<point x="261" y="319"/>
			<point x="275" y="363"/>
			<point x="297" y="489" type="curve"/>
			<point x="278" y="499" type="line"/>
			<point x="192" y="417"/>
			<point x="173" y="389"/>
		</contour>
		<contour>
			<point x="318" y="493" type="line"/>
			<point x="380" y="374"/>
			<point x="402" y="351"/>
			<point x="440" y="355" type="curve" smooth="yes"/>
			<point x="464" y="357"/>
			<point x="482" y="377"/>
			<point x="479" y="401" type="curve" smooth="yes"/>
			<point x="475" y="438"/>
			<point x="441" y="459"/>
			<point x="333" y="508" type="curve"/>
		</contour>
		<contour>
			<point x="461" y="649" type="curve" smooth="yes"/>
			<point x="420" y="649"/>
			<point x="388" y="615"/>
			<point x="327" y="547" type="curve"/>
			<point x="336" y="528" type="line"/>
			<point x="470" y="550"/>
			<point x="505" y="572"/>
			<point x="505" y="611" type="curve" smooth="yes"/>
			<point x="505" y="635"/>
			<point x="487" y="649"/>
		</contour>
	</outline>
</glyph>
<glyph name="hyphen" format="2">
	<unicode hex="002D"/>
	<unicode hex="00AD"/>
	<unicode hex="2010"/>
	<advance width="331"/>
	<outline>
		<contour>
			<point x="57" y="229" type="line"/>
			<point x="303" y="229" type="line"/>
			<point x="303" y="323" type="line"/>
			<point x="57" y="323" type="line"/>
		</contour>
	</outline>
</glyph>
<glyph name="period" format="2">
	<unicode hex="002E"/>
	<advance width="313"/>
	<outline>
		<contour>
			<point x="124" y="-12" type="curve" smooth="yes"/>
			<point x="177" y="-12"/>
			<point x="214" y="30"/>
			<point x="214" y="81" type="curve" smooth="yes"/>
			<point x="214" y="120"/>
			<point x="187" y="149"/>
			<point x="140" y="149" type="curve" smooth="yes"/>
			<point x="87" y="149"/>
			<point x="51" y="108"/>
			<point x="51" y="57" type="curve" smooth="yes"/>
			<point x="51" y="18"/>
			<point x="78" y="-12"/>
		</contour>
	</outline>
</glyph>
<glyph name="one" format="2">
	<unicode hex="0031"/>
	<advance width="583"/>
	<outline>
		<contour>
			<point x="53" y="0" type="line"/>
			<point x="474" y="0" type="line"/>
			<point x="486" y="66" type="line"/>
			<point x="294" y="66" type="line"/>
			<point x="241" y="66" type="line"/>
			<point x="64" y="66" type="line"/>
		</contour>
		<contour>
			<point x="197" y="0" type="line"/>
			<point x="328" y="0" type="line"/>
			<point x="343" y="72"/>
			<point x="357" y="144"/>
			<point x="372" y="216" type="curve" smooth="yes"/>
			<point x="430" y="496" type="line"/>
			<point x="459" y="641" type="line"/>
			<point x="421" y="641" type="line"/>
			<point x="191" y="579" type="line"/>
			<point x="178" y="517" type="line"/>
			<point x="358" y="539" type="line"/>
			<point x="316" y="584" type="line"/>
		</contour>
	</outline>
</glyph>
<glyph name="less" format="2">
	<unicode hex="003C"/>
	<advance width="560"/>
	<outline>
		<contour>
			<point x="60" y="291" type="line"/>
			<point x="457" y="74" type="line"/>
			<point x="497" y="149" type="line"/>
			<point x="105" y="346" type="line"/>
			<point x="105" y="303" type="line"/>
			<point x="497" y="500" type="line"/>
			<point x="457" y="575" type="line"/>
			<point x="60" y="358" type="line"/>
		</contour>
	</outline>
</glyph>
<glyph name="question" format="2">
	<unicode hex="003F"/>
	<advance width="451"/>
	<outline>
		<contour>
			<point x="120" y="197" type="curve"/>
			<point x="171" y="194" type="line"/>
			<point x="180" y="252"/>
			<point x="207" y="281"/>
			<point x="270" y="313" type="curve" smooth="yes"/>
			<point x="289" y="322"/>
			<point x="307" y="332"/>
			<point x="326" y="342" type="curve" smooth="yes"/>
			<point x="425" y="392"/>
			<point x="483" y="453"/>
			<point x="483" y="538" type="curve" smooth="yes"/>
			<point x="483" y="631"/>
			<point x="403" y="680"/>
			<point x="297" y="680" type="curve" smooth="yes"/>
			<point x="188" y="680"/>
			<point x="135" y="627"/>
			<point x="115" y="564" type="curve"/>
			<point x="122" y="537"/>
			<point x="141" y="516"/>
			<point x="173" y="516" type="curve" smooth="yes"/>
			<point x="205" y="516"/>
			<point x="228" y="532"/>
			<point x="240" y="572" type="curve" smooth="yes"/>
			<point x="270" y="662" type="line"/>
			<point x="209" y="628" type="line"/>
			<point x="225" y="632"/>
			<point x="249" y="636"/>
			<point x="281" y="636" type="curve" smooth="yes"/>
			<point x="355" y="636"/>
			<point x="388" y="606"/>
			<point x="388" y="557" type="curve" smooth="yes"/>
			<point x="388" y="508"/>
			<point x="364" y="476"/>
			<point x="287" y="435" type="curve" smooth="yes"/>
			<point x="266" y="424"/>
			<point x="246" y="413"/>
			<point x="226" y="403" type="curve" smooth="yes"/>
			<point x="147" y="361"/>
			<point x="122" y="307"/>
		</contour>
		<contour>
			<point x="55" y="55" type="curve" smooth="yes"/>
			<point x="55" y="18"/>
			<point x="80" y="-12"/>
			<point x="125" y="-12" type="curve" smooth="yes"/>
			<point x="177" y="-12"/>
			<point x="212" y="28"/>
			<point x="212" y="77" type="curve" smooth="yes"/>
			<point x="212" y="114"/>
			<point x="186" y="144"/>
			<point x="141" y="144" type="curve" smooth="yes"/>
			<point x="90" y="144"/>
			<point x="55" y="104"/>
		</contour>
	</outline>
</glyph>
<glyph name="at" format="2">
	<unicode hex="0040"/>
	<advance width="907"/>
	<outline>
		<contour>
			<point x="365" y="40" type="curve" smooth="yes"/>
			<point x="424" y="40"/>
			<point x="460" y="75"/>
			<point x="486" y="128" type="curve"/>
			<point x="539" y="128" type="line"/>
			<point x="539" y="199" type="line"/>
			<point x="491" y="147"/>
			<point x="467" y="126"/>
			<point x="425" y="126" type="curve" smooth="yes"/>
			<point x="388" y="126"/>
			<point x="364" y="150"/>
			<point x="364" y="204" type="curve" smooth="yes"/>
			<point x="364" y="320"/>
			<point x="438" y="427"/>
			<point x="528" y="427" type="curve" smooth="yes"/>
			<point x="573" y="427"/>
			<point x="598" y="413"/>
			<point x="620" y="400" type="curve"/>
			<point x="620" y="439" type="line"/>
			<point x="603" y="466"/>
			<point x="581" y="492"/>
			<point x="526" y="492" type="curve" smooth="yes"/>
			<point x="410" y="492"/>
			<point x="254" y="345"/>
			<point x="254" y="173" type="curve" smooth="yes"/>
			<point x="254" y="83"/>
			<point x="300" y="40"/>
		</contour>
		<contour>
			<point x="624" y="40" type="curve" smooth="yes"/>
			<point x="758" y="40"/>
			<point x="881" y="164"/>
			<point x="881" y="357" type="curve" smooth="yes"/>
			<point x="881" y="532"/>
			<point x="766" y="657"/>
			<point x="556" y="657" type="curve" smooth="yes"/>
			<point x="279" y="657"/>
			<point x="71" y="433"/>
			<point x="71" y="161" type="curve" smooth="yes"/>
			<point x="71" y="-30"/>
			<point x="207" y="-157"/>
			<point x="416" y="-157" type="curve" smooth="yes"/>
			<point x="498" y="-157"/>
			<point x="568" y="-137"/>
			<point x="610" y="-117" type="curve"/>
			<point x="597" y="-70" type="line"/>
			<point x="561" y="-86"/>
			<point x="498" y="-101"/>
			<point x="429" y="-101" type="curve" smooth="yes"/>
			<point x="253" y="-101"/>
			<point x="148" y="2"/>
			<point x="148" y="175" type="curve" smooth="yes"/>
			<point x="148" y="401"/>
			<point x="325" y="602"/>
			<point x="551" y="602" type="curve" smooth="yes"/>
			<point x="718" y="602"/>
			<point x="812" y="505"/>
			<point x="812" y="353" type="curve" smooth="yes"/>
			<point x="812" y="205"/>
			<point x="724" y="109"/>
			<point x="662" y="109" type="curve" smooth="yes"/>
			<point x="620" y="109"/>
			<point x="610" y="133"/>
			<point x="624" y="195" type="curve" smooth="yes"/>
			<point x="690" y="493" type="line"/>
			<point x="647" y="493" type="line"/>
			<point x="569" y="437" type="line"/>
			<point x="516" y="195" type="line" smooth="yes"/>
			<point x="492" y="87"/>
			<point x="541" y="40"/>
		</contour>
	</outline>
</glyph>
<glyph name="J" format="2">
	<unicode hex="004A"/>
	<advance width="381"/>
	<outline>
		<contour>
			<point x="-103" y="-84" type="curve"/>
			<point x="-94" y="-118"/>
			<point x="-61" y="-140"/>
			<point x="4" y="-140" type="curve" smooth="yes"/>
			<point x="114" y="-140"/>
			<point x="175" y="-59"/>
			<point x="212" y="7" type="curve" smooth="yes"/>
			<point x="248" y="72"/>
			<point x="262" y="160"/>
			<point x="289" y="299" type="curve" smooth="yes"/>
			<point x="357" y="664" type="line"/>
			<point x="226" y="664" type="line"/>
			<point x="206" y="548"/>
			<point x="184" y="437"/>
			<point x="164" y="322" type="curve" smooth="yes"/>
			<point x="146" y="216"/>
			<point x="135" y="127"/>
			<point x="121" y="51" type="curve" smooth="yes"/>
			<point x="108" y="-15"/>
			<point x="89" y="-60"/>
			<point x="66" y="-104" type="curve"/>
			<point x="90" y="-90" type="line"/>
			<point x="31" y="-90" type="line"/>
			<point x="68" y="-108" type="line"/>
			<point x="36" y="-50"/>
			<point x="12" y="-28"/>
			<point x="-31" y="-28" type="curve" smooth="yes"/>
			<point x="-75" y="-28"/>
			<point x="-98" y="-56"/>
		</contour>
		<contour>
			<point x="111" y="598" type="line"/>
			<point x="254" y="598" type="line"/>
			<point x="306" y="598" type="line"/>
			<point x="430" y="598" type="line"/>
			<point x="441" y="664" type="line"/>
			<point x="123" y="664" type="line"/>
		</contour>
	</outline>
	<anchor name="aboveUC" x="288" y="684"/>
	<anchor name="belowLC" x="68" y="-148"/>
</glyph>
<glyph name="K" format="2">
	<unicode hex="004B"/>
	<advance width="733"/>
	<outline>
		<contour>
			<point x="12" y="0" type="line"/>
			<point x="307" y="0" type="line"/>
			<point x="319" y="66" type="line"/>
			<point x="199" y="66" type="line"/>
			<point x="147" y="66" type="line"/>
			<point x="23" y="66" type="line"/>
		</contour>
		<contour>
			<point x="95" y="0" type="line"/>
			<point x="227" y="0" type="line"/>
			<point x="245" y="101"/>
			<point x="263" y="201"/>
			<point x="282" y="302" type="curve" smooth="yes"/>
			<point x="347" y="664" type="line"/>
			<point x="215" y="664" type="line"/>
			<point x="197" y="563"/>
			<point x="179" y="464"/>
			<point x="161" y="363" type="curve" smooth="yes"/>
		</contour>
		<contour>
			<point x="114" y="598" type="line"/>
			<point x="244" y="598" type="line"/>
			<point x="296" y="598" type="line"/>
			<point x="410" y="598" type="line"/>
			<point x="421" y="664" type="line"/>
			<point x="126" y="664" type="line"/>
		</contour>
		<contour>
			<point x="235" y="230" type="line"/>
			<point x="760" y="664" type="line"/>
			<point x="667" y="664" type="line"/>
			<point x="384" y="412" type="line"/>
			<point x="303" y="323" type="line"/>
			<point x="231" y="323" type="line"/>
		</contour>
		<contour>
			<point x="516" y="0" type="line"/>
			<point x="661" y="0" type="line"/>
			<point x="439" y="427" type="line"/>
			<point x="344" y="347" type="line"/>
		</contour>
		<contour>
			<point x="397" y="0" type="line"/>
			<point x="690" y="0" type="line"/>
			<point x="702" y="66" type="line"/>
			<point x="585" y="66" type="line"/>
			<point x="513" y="66" type="line"/>
			<point x="409" y="66" type="line"/>
		</contour>
		<contour>
			<point x="505" y="598" type="line"/>
			<point x="614" y="598" type="line"/>
			<point x="657" y="598" type="line"/>
			<point x="763" y="598" type="line"/>
			<point x="775" y="664" type="line"/>
			<point x="517" y="664" type="line"/>
		</contour>
	</outline>
	<anchor name="aboveUC" x="459" y="684"/>
	<anchor name="belowLC" x="350" y="-20"/>
</glyph>
<glyph name="L" format="2">
	<unicode hex="004C"/>
	<advance width="601"/>
	<outline>
		<contour>
			<point x="12" y="0" type="line"/>
			<point x="152" y="0" type="line"/>
			<point x="152" y="66" type="line"/>
			<point x="136" y="66" type="line"/>
			<point x="23" y="66" type="line"/>
		</contour>
		<contour>
			<point x="95" y="0" type="line"/>
			<point x="227" y="0" type="line"/>
			<point x="245" y="101"/>
			<point x="263" y="201"/>
			<point x="282" y="302" type="curve" smooth="yes"/>
			<point x="347" y="664" type="line"/>
			<point x="215" y="664" type="line"/>
			<point x="197" y="563"/>
			<point x="179" y="464"/>
			<point x="161" y="363" type="curve" smooth="yes"/>
		</contour>
		<contour>
			<point x="114" y="598" type="line"/>
			<point x="244" y="598" type="line"/>
			<point x="296" y="598" type="line"/>
			<point x="432" y="598" type="line"/>
			<point x="443" y="664" type="line"/>
			<point x="126" y="664" type="line"/>
		</contour>
		<contour>
			<point x="195" y="0" type="line"/>
			<point x="526" y="0" type="line"/>
			<point x="565" y="203" type="line"/>
			<point x="496" y="203" type="line"/>
			<point x="419" y="22" type="line"/>
			<point x="501" y="64" type="line"/>
			<point x="195" y="64" type="line"/>
		</contour>
	</outline>
	<anchor name="aboveUC" x="274" y="684"/>
	<anchor name="belowLC" x="285" y="-20"/>
</glyph>
<glyph name="M" format="2">
	<unicode hex="004D"/>
	<advance width="934"/>
	<outline>
		<contour>
			<point x="-3" y="0" type="line"/>
			<point x="249" y="0" type="line"/>
			<point x="260" y="66" type="line"/>
			<point x="140" y="66" type="line"/>
			<point x="114" y="66" type="line"/>
			<point x="8" y="66" type="line"/>
		</contour>
		<contour>
			<point x="79" y="0" type="line"/>
			<point x="153" y="0" type="line"/>
			<point x="223" y="316" type="line"/>
			<point x="289" y="664" type="line"/>
			<point x="235" y="664" type="line"/>
		</contour>
		<contour>
			<point x="345" y="0" type="line"/>
			<point x="443" y="0" type="line"/>
			<point x="614" y="333" type="line"/>
			<point x="727" y="573" type="line"/>
			<point x="784" y="573" type="line"/>
			<point x="784" y="664" type="line"/>
			<point x="711" y="664" type="line"/>
			<point x="576" y="384" type="line"/>
			<point x="464" y="133" type="line"/>
			<point x="451" y="133" type="line"/>
			<point x="393" y="664" type="line"/>
			<point x="147" y="664" type="line"/>
			<point x="135" y="598" type="line"/>
			<point x="249" y="598" type="line"/>
			<point x="249" y="573" type="line"/>
			<point x="280" y="573" type="line"/>
		</contour>
		<contour>
			<point x="572" y="0" type="line"/>
			<point x="875" y="0" type="line"/>
			<point x="886" y="66" type="line"/>
			<point x="755" y="66" type="line"/>
			<point x="710" y="66" type="line"/>
			<point x="584" y="66" type="line"/>
		</contour>
		<contour>
			<point x="658" y="0" type="line"/>
			<point x="787" y="0" type="line"/>
			<point x="800" y="106"/>
			<point x="814" y="211"/>
			<point x="828" y="317" type="curve" smooth="yes"/>
			<point x="873" y="664" type="line"/>
			<point x="761" y="664" type="line"/>
			<point x="745" y="627" type="line"/>
		</contour>
		<contour>
			<point x="813" y="598" type="line"/>
			<point x="831" y="598" type="line"/>
			<point x="946" y="598" type="line"/>
			<point x="957" y="664" type="line"/>
			<point x="813" y="664" type="line"/>
		</contour>
	</outline>
	<anchor name="aboveUC" x="555" y="684"/>
	<anchor name="belowLC" x="408" y="-20"/>
</glyph>
<glyph name="N" format="2">
	<unicode hex="004E"/>
	<advance width="750"/>
	<outline>
		<contour>
			<point x="9" y="0" type="line"/>
			<point x="266" y="0" type="line"/>
			<point x="277" y="66" type="line"/>
			<point x="152" y="66" type="line"/>
			<point x="128" y="66" type="line"/>
			<point x="21" y="66" type="line"/>
		</contour>
		<contour>
			<point x="93" y="0" type="line"/>
			<point x="167" y="0" type="line"/>
			<point x="216" y="295" type="line"/>
			<point x="262" y="653" type="line"/>
			<point x="214" y="653" type="line"/>
		</contour>
		<contour>
			<point x="546" y="598" type="line"/>
			<point x="668" y="598" type="line"/>
			<point x="692" y="598" type="line"/>
			<point x="800" y="598" type="line"/>
			<point x="811" y="664" type="line"/>
			<point x="557" y="664" type="line"/>
		</contour>
		<contour>
			<point x="606" y="129" type="line"/>
			<point x="559" y="129" type="line"/>
			<point x="358" y="664" type="line"/>
			<point x="127" y="664" type="line"/>
			<point x="116" y="598" type="line"/>
			<point x="235" y="598" type="line"/>
			<point x="235" y="558" type="line"/>
			<point x="264" y="558" type="line"/>
			<point x="479" y="0" type="line"/>
			<point x="606" y="0" type="line"/>
			<point x="727" y="664" type="line"/>
			<point x="654" y="664" type="line"/>
			<point x="609" y="398" type="line"/>
			<point x="576" y="76" type="line"/>
		</contour>
	</outline>
	<anchor name="aboveUC" x="459" y="684"/>
	<anchor name="belowLC" x="365" y="-20"/>
</glyph>
<glyph name="P" format="2">
	<unicode hex="0050"/>
	<advance width="609"/>
	<outline>
		<contour>
			<point x="12" y="0" type="line"/>
			<point x="333" y="0" type="line"/>
			<point x="344" y="66" type="line"/>
			<point x="199" y="66" type="line"/>
			<point x="147" y="66" type="line"/>
			<point x="23" y="66" type="line"/>
		</contour>
		<contour>
			<point x="95" y="0" type="line"/>
			<point x="227" y="0" type="line"/>
			<point x="245" y="101"/>
			<point x="263" y="201"/>
			<point x="282" y="302" type="curve" smooth="yes"/>
			<point x="347" y="664" type="line"/>
			<point x="215" y="664" type="line"/>
			<point x="197" y="563"/>
			<point x="179" y="464"/>
			<point x="161" y="363" type="curve" smooth="yes"/>
		</contour>
		<contour>
			<point x="114" y="598" type="line"/>
			<point x="244" y="598" type="line"/>
			<point x="267" y="598" type="line"/>
			<point x="267" y="664" type="line"/>
			<point x="126" y="664" type="line"/>
		</contour>
		<contour>
			<point x="217" y="255" type="line"/>
			<point x="329" y="255" type="line" smooth="yes"/>
			<point x="525" y="255"/>
			<point x="630" y="356"/>
			<point x="630" y="482" type="curve" smooth="yes"/>
			<point x="630" y="596"/>
			<point x="543" y="664"/>
			<point x="380" y="664" type="curve" smooth="yes"/>
			<point x="301" y="664" type="line"/>
			<point x="301" y="599" type="line"/>
			<point x="372" y="599" type="line" smooth="yes"/>
			<point x="456" y="599"/>
			<point x="501" y="561"/>
			<point x="501" y="480" type="curve" smooth="yes"/>
			<point x="501" y="386"/>
			<point x="446" y="313"/>
			<point x="326" y="313" type="curve" smooth="yes"/>
			<point x="217" y="313" type="line"/>
		</contour>
	</outline>
	<anchor name="aboveUC" x="381" y="684"/>
	<anchor name="belowLC" x="164" y="-20"/>
</glyph>
<glyph name="S" format="2">
	<unicode hex="0053"/>
	<advance width="525"/>
	<outline>
		<contour>
			<point x="37" y="24" type="line"/>
			<point x="74" y="3"/>
			<point x="147" y="-16"/>
			<point x="233" y="-16" type="curve" smooth="yes"/>
			<point x="375" y="-16"/>
			<point x="485" y="58"/>
			<point x="485" y="187" type="curve" smooth="yes"/>
			<point x="485" y="286"/>
			<point x="418" y="338"/>
			<point x="337" y="395" type="curve" smooth="yes"/>
			<point x="271" y="442"/>
			<point x="238" y="470"/>
			<point x="238" y="523" type="curve" smooth="yes"/>
			<point x="238" y="577"/>
			<point x="278" y="615"/>
			<point x="362" y="615" type="curve" smooth="yes"/>
			<point x="416" y="615"/>
			<point x="459" y="602"/>
			<point x="486" y="586" type="curve"/>
			<point x="430" y="637" type="line"/>
			<point x="442" y="489" type="line"/>
			<point x="512" y="489" type="line"/>
			<point x="531" y="640" type="line"/>
			<point x="486" y="663"/>
			<point x="425" y="680"/>
			<point x="355" y="680" type="curve" smooth="yes"/>
			<point x="223" y="680"/>
			<point x="116" y="612"/>
			<point x="116" y="487" type="curve" smooth="yes"/>
			<point x="116" y="389"/>
			<point x="186" y="338"/>
			<point x="267" y="281" type="curve" smooth="yes"/>
			<point x="333" y="235"/>
			<point x="362" y="203"/>
			<point x="362" y="151" type="curve" smooth="yes"/>
			<point x="362" y="92"/>
			<point x="319" y="48"/>
			<point x="233" y="48" type="curve" smooth="yes"/>
			<point x="171" y="48"/>
			<point x="124" y="61"/>
			<point x="87" y="80" type="curve"/>
			<point x="138" y="29" type="line"/>
			<point x="129" y="188" type="line"/>
			<point x="59" y="188" type="line"/>
		</contour>
	</outline>
	<anchor name="aboveUC" x="360" y="684"/>
	<anchor name="baseLC" x="235" y="0"/>
	<anchor name="belowLC" x="244" y="-20"/>
</glyph>
<glyph name="T" format="2">
	<unicode hex="0054"/>
	<advance width="623"/>
	<outline>
		<contour>
			<point x="76" y="474" type="line"/>
			<point x="145" y="474" type="line"/>
			<point x="224" y="642" type="line"/>
			<point x="142" y="599" type="line"/>
			<point x="616" y="599" type="line"/>
			<point x="571" y="633" type="line"/>
			<point x="581" y="474" type="line"/>
			<point x="651" y="474" type="line"/>
			<point x="679" y="664" type="line"/>
			<point x="116" y="664" type="line"/>
		</contour>
		<contour>
			<point x="112" y="0" type="line"/>
			<point x="447" y="0" type="line"/>
			<point x="458" y="66" type="line"/>
			<point x="314" y="66" type="line"/>
			<point x="262" y="66" type="line"/>
			<point x="124" y="66" type="line"/>
		</contour>
		<contour>
			<point x="211" y="0" type="line"/>
			<point x="342" y="0" type="line"/>
			<point x="361" y="101"/>
			<point x="379" y="201"/>
			<point x="397" y="302" type="curve" smooth="yes"/>
			<point x="462" y="664" type="line"/>
			<point x="331" y="664" type="line"/>
			<point x="312" y="563"/>
			<point x="294" y="464"/>
			<point x="276" y="363" type="curve" smooth="yes"/>
		</contour>
	</outline>
	<anchor name="aboveUC" x="396" y="684"/>
	<anchor name="baseLC" x="279" y="0"/>
	<anchor name="belowLC" x="287" y="-20"/>
</glyph>
<glyph name="Y" format="2">
	<unicode hex="0059"/>
	<advance width="647"/>
	<outline>
		<contour>
			<point x="88" y="598" type="line"/>
			<point x="206" y="598" type="line"/>
			<point x="264" y="598" type="line"/>
			<point x="380" y="598" type="line"/>
			<point x="391" y="664" type="line"/>
			<point x="100" y="664" type="line"/>
		</contour>
		<contour>
			<point x="131" y="0" type="line"/>
			<point x="465" y="0" type="line"/>
			<point x="477" y="66" type="line"/>
			<point x="333" y="66" type="line"/>
			<point x="280" y="66" type="line"/>
			<point x="142" y="66" type="line"/>
		</contour>
		<contour>
			<point x="278" y="250" type="line"/>
			<point x="404" y="250" type="line"/>
			<point x="678" y="664" type="line"/>
			<point x="598" y="664" type="line"/>
			<point x="474" y="464" type="line"/>
			<point x="390" y="306" type="line"/>
			<point x="380" y="306" type="line"/>
			<point x="280" y="664" type="line"/>
			<point x="143" y="664" type="line"/>
		</contour>
		<contour>
			<point x="229" y="0" type="line"/>
			<point x="361" y="0" type="line"/>
			<point x="380" y="103"/>
			<point x="398" y="206"/>
			<point x="417" y="309" type="curve"/>
			<point x="285" y="309" type="line"/>
		</contour>
		<contour>
			<point x="472" y="598" type="line"/>
			<point x="573" y="598" type="line"/>
			<point x="616" y="598" type="line"/>
			<point x="706" y="598" type="line"/>
			<point x="718" y="664" type="line"/>
			<point x="483" y="664" type="line"/>
		</contour>
	</outline>
	<anchor name="aboveUC" x="443" y="684"/>
	<anchor name="belowLC" x="296" y="-20"/>
</glyph>
<glyph name="Z" format="2">
	<unicode hex="005A"/>
	<advance width="593"/>
	<outline>
		<contour>
			<point x="18" y="0" type="line"/>
			<point x="529" y="0" type="line"/>
			<point x="567" y="189" type="line"/>
			<point x="499" y="189" type="line"/>
			<point x="421" y="22" type="line"/>
			<point x="503" y="60" type="line"/>
			<point x="330" y="60" type="line"/>
			<point x="182" y="50" type="line"/>
			<point x="182" y="95" type="line"/>
			<point x="159" y="40" type="line"/>
			<point x="615" y="603" type="line"/>
			<point x="628" y="664" type="line"/>
			<point x="133" y="664" type="line"/>
			<point x="97" y="475" type="line"/>
			<point x="165" y="475" type="line"/>
			<point x="240" y="642" type="line"/>
			<point x="158" y="603" type="line"/>
			<point x="327" y="603" type="line"/>
			<point x="464" y="614" type="line"/>
			<point x="464" y="569" type="line"/>
			<point x="487" y="623" type="line"/>
			<point x="31" y="60" type="line"/>
		</contour>
	</outline>
	<anchor name="aboveUC" x="378" y="684"/>
	<anchor name="belowLC" x="294" y="-20"/>
</glyph>
<glyph name="backslash" format="2">
	<unicode hex="005C"/>
	<advance width="371"/>
	<outline>
		<contour>
			<point x="271" y="-160" type="line"/>
			<point x="180" y="710" type="line"/>
			<point x="100" y="710" type="line"/>
			<point x="191" y="-160" type="line"/>
		</contour>
	</outline>
</glyph>
<glyph name="underscore" format="2">
	<unicode hex="005F"/>
	<advance width="521"/>
	<outline>
		<contour>
			<point x="-51" y="-54" type="line"/>
			<point x="481" y="-54" type="line"/>
			<point x="481" y="40" type="line"/>
			<point x="-51" y="40" type="line"/>
		</contour>
	</outline>
</glyph>
<glyph name="a" format="2">
	<unicode hex="0061"/>
	<advance width="617"/>
	<outline>
		<contour>
			<point x="166" y="-13" type="curve" smooth="yes"/>
			<point x="241" y="-13"/>
			<point x="290" y="35"/>
			<point x="335" y="105" type="curve"/>
			<point x="375" y="105" type="line"/>
			<point x="380" y="183" type="line"/>
			<point x="305" y="98"/>
			<point x="268" y="81"/>
			<point x="231" y="81" type="curve" smooth="yes"/>
			<point x="191" y="81"/>
			<point x="174" y="110"/>
			<point x="174" y="176" type="curve" smooth="yes"/>
			<point x="174" y="244"/>
			<point x="198" y="321"/>
			<point x="239" y="375" type="curve" smooth="yes"/>
			<point x="271" y="422"/>
			<point x="317" y="455"/>
			<point x="365" y="455" type="curve" smooth="yes"/>
			<point x="402" y="455"/>
			<point x="430" y="443"/>
			<point x="462" y="407" type="curve"/>
			<point x="500" y="462" type="line"/>
			<point x="462" y="505"/>
			<point x="439" y="524"/>
			<point x="383" y="524" type="curve" smooth="yes"/>
			<point x="226" y="524"/>
			<point x="43" y="325"/>
			<point x="43" y="128" type="curve" smooth="yes"/>
			<point x="43" y="26"/>
			<point x="91" y="-13"/>
		</contour>
		<contour>
			<point x="449" y="-13" type="curve" smooth="yes"/>
			<point x="523" y="-13"/>
			<point x="573" y="37"/>
			<point x="616" y="119" type="curve"/>
			<point x="573" y="145" type="line"/>
			<point x="538" y="86"/>
			<point x="524" y="70"/>
			<point x="500" y="70" type="curve" smooth="yes"/>
			<point x="481" y="70"/>
			<point x="473" y="82"/>
			<point x="473" y="101" type="curve" smooth="yes"/>
			<point x="473" y="119"/>
			<point x="478" y="141"/>
			<point x="487" y="177" type="curve" smooth="yes"/>
			<point x="570" y="540" type="line"/>
			<point x="509" y="540" type="line"/>
			<point x="456" y="468" type="line"/>
			<point x="424" y="468" type="line"/>
			<point x="348" y="136" type="line"/>
			<point x="363" y="136" type="line" smooth="yes"/>
			<point x="360" y="123"/>
			<point x="354" y="99"/>
			<point x="354" y="76" type="curve" smooth="yes"/>
			<point x="354" y="13"/>
			<point x="385" y="-13"/>
		</contour>
	</outline>
	<anchor name="aboveLC" x="398" y="531"/>
	<anchor name="belowLC" x="287" y="-20"/>
	<anchor name="ogonek" x="448" y="0"/>
</glyph>
<glyph name="i" format="2">
	<unicode hex="0069"/>
	<advance width="340"/>
	<outline>
		<contour>
			<point x="59" y="81" type="curve" smooth="yes"/>
			<point x="59" y="23"/>
			<point x="91" y="-13"/>
			<point x="161" y="-13" type="curve" smooth="yes"/>
			<point x="237" y="-13"/>
			<point x="290" y="37"/>
			<point x="334" y="119" type="curve"/>
			<point x="291" y="145" type="line"/>
			<point x="257" y="86"/>
			<point x="244" y="70"/>
			<point x="220" y="70" type="curve" smooth="yes"/>
			<point x="201" y="70"/>
			<point x="192" y="82"/>
			<point x="192" y="101" type="curve" smooth="yes"/>
			<point x="192" y="118"/>
			<point x="199" y="147"/>
			<point x="206" y="184" type="curve" smooth="yes"/>
			<point x="277" y="511" type="line"/>
			<point x="228" y="521" type="line"/>
			<point x="41" y="463" type="line"/>
			<point x="30" y="407" type="line"/>
			<point x="166" y="407" type="line"/>
			<point x="136" y="450" type="line"/>
			<point x="76" y="187" type="line" smooth="yes"/>
			<point x="68" y="150"/>
			<point x="59" y="116"/>
		</contour>
		<contour>
			<point x="241" y="603" type="curve" smooth="yes"/>
			<point x="291" y="603"/>
			<point x="324" y="644"/>
			<point x="324" y="686" type="curve" smooth="yes"/>
			<point x="324" y="724"/>
			<point x="296" y="752"/>
			<point x="255" y="752" type="curve" smooth="yes"/>
			<point x="205" y="752"/>
			<point x="172" y="711"/>
			<point x="172" y="669" type="curve" smooth="yes"/>
			<point x="172" y="630"/>
			<point x="200" y="603"/>
		</contour>
	</outline>
	<anchor name="aboveLC" x="252" y="752"/>
	<anchor name="belowLC" x="147" y="-20"/>
	<anchor name="ogonek" x="193" y="0"/>
</glyph>
<glyph name="k" format="2">
	<unicode hex="006B"/>
	<advance width="563"/>
	<outline>
		<contour>
			<point x="50" y="0" type="line"/>
			<point x="88" y="-11" type="line"/>
			<point x="179" y="0" type="line"/>
			<point x="194" y="69"/>
			<point x="209" y="139"/>
			<point x="223" y="209" type="curve" smooth="yes"/>
			<point x="328" y="723" type="line"/>
			<point x="279" y="733" type="line"/>
			<point x="94" y="696" type="line"/>
			<point x="82" y="641" type="line"/>
			<point x="227" y="626" type="line"/>
			<point x="189" y="659" type="line"/>
			<point x="174" y="587"/>
			<point x="161" y="526"/>
			<point x="146" y="454" type="curve" smooth="yes"/>
		</contour>
		<contour>
			<point x="547" y="0" type="curve"/>
			<point x="554" y="43" type="line"/>
			<point x="523" y="46" type="line" smooth="yes"/>
			<point x="491" y="50"/>
			<point x="469" y="65"/>
			<point x="445" y="116" type="curve" smooth="yes"/>
			<point x="416" y="176" type="line" smooth="yes"/>
			<point x="385" y="240"/>
			<point x="342" y="254"/>
			<point x="261" y="261" type="curve" smooth="yes"/>
			<point x="232" y="264" type="line"/>
			<point x="232" y="270" type="line"/>
			<point x="464" y="368" type="line" smooth="yes"/>
			<point x="529" y="394"/>
			<point x="562" y="417"/>
			<point x="562" y="460" type="curve" smooth="yes"/>
			<point x="562" y="492"/>
			<point x="537" y="511"/>
			<point x="510" y="519" type="curve"/>
			<point x="358" y="396" type="line"/>
			<point x="252" y="294" type="line"/>
			<point x="209" y="294" type="line"/>
			<point x="209" y="249" type="line"/>
			<point x="220" y="246" type="line" smooth="yes"/>
			<point x="256" y="234"/>
			<point x="273" y="218"/>
			<point x="291" y="171" type="curve" smooth="yes"/>
			<point x="321" y="93" type="line" smooth="yes"/>
			<point x="350" y="14"/>
			<point x="390" y="-13"/>
			<point x="458" y="-13" type="curve" smooth="yes"/>
			<point x="490" y="-13"/>
			<point x="529" y="-5"/>
		</contour>
	</outline>
	<anchor name="aboveLC" x="258" y="733"/>
	<anchor name="belowLC" x="261" y="-20"/>
</glyph>
<glyph name="s" format="2">
	<unicode hex="0073"/>
	<advance width="434"/>
	<outline>
		<contour>
			<point x="186" y="-13" type="curve" smooth="yes"/>
			<point x="304" y="-13"/>
			<point x="393" y="48"/>
			<point x="393" y="143" type="curve" smooth="yes"/>
			<point x="393" y="215"/>
			<point x="350" y="254"/>
			<point x="287" y="299" type="curve" smooth="yes"/>
			<point x="229" y="340"/>
			<point x="206" y="361"/>
			<point x="206" y="406" type="curve" smooth="yes"/>
			<point x="206" y="447"/>
			<point x="233" y="475"/>
			<point x="271" y="482" type="curve" smooth="yes"/>
			<point x="298" y="482"/>
			<point x="324" y="482"/>
			<point x="351" y="482" type="curve"/>
			<point x="300" y="495" type="line"/>
			<point x="315" y="442" type="line" smooth="yes"/>
			<point x="327" y="396"/>
			<point x="351" y="378"/>
			<point x="382" y="378" type="curve" smooth="yes"/>
			<point x="410" y="378"/>
			<point x="430" y="395"/>
			<point x="433" y="430" type="curve"/>
			<point x="422" y="480"/>
			<point x="371" y="524"/>
			<point x="279" y="524" type="curve" smooth="yes"/>
			<point x="165" y="524"/>
			<point x="89" y="461"/>
			<point x="89" y="373" type="curve" smooth="yes"/>
			<point x="89" y="299"/>
			<point x="130" y="261"/>
			<point x="193" y="215" type="curve" smooth="yes"/>
			<point x="248" y="176"/>
			<point x="273" y="154"/>
			<point x="273" y="108" type="curve" smooth="yes"/>
			<point x="273" y="67"/>
			<point x="248" y="42"/>
			<point x="202" y="31" type="curve" smooth="yes"/>
			<point x="168" y="31"/>
			<point x="135" y="31"/>
			<point x="102" y="31" type="curve"/>
			<point x="160" y="16" type="line"/>
			<point x="148" y="71" type="line" smooth="yes"/>
			<point x="139" y="113"/>
			<point x="116" y="141"/>
			<point x="75" y="141" type="curve" smooth="yes"/>
			<point x="42" y="141"/>
			<point x="25" y="125"/>
			<point x="17" y="95" type="curve"/>
			<point x="34" y="20"/>
			<point x="83" y="-13"/>
		</contour>
	</outline>
	<anchor name="aboveLC" x="289" y="531"/>
	<anchor name="baseLC" x="181" y="0"/>
	<anchor name="belowLC" x="180" y="-20"/>
</glyph>
<glyph name="t" format="2">
	<unicode hex="0074"/>
	<advance width="408"/>
	<outline>
		<contour>
			<point x="52" y="442" type="line"/>
			<point x="203" y="446" type="line"/>
			<point x="205" y="450" type="line"/>
			<point x="399" y="442" type="line"/>
			<point x="413" y="511" type="line"/>
			<point x="213" y="511" type="line"/>
			<point x="213" y="521" type="line"/>
			<point x="63" y="500" type="line"/>
		</contour>
		<contour>
			<point x="169" y="-13" type="curve" smooth="yes"/>
			<point x="254" y="-13"/>
			<point x="308" y="37"/>
			<point x="366" y="127" type="curve"/>
			<point x="322" y="153" type="line"/>
			<point x="280" y="91"/>
			<point x="265" y="73"/>
			<point x="238" y="73" type="curve" smooth="yes"/>
			<point x="218" y="73"/>
			<point x="208" y="84"/>
			<point x="208" y="104" type="curve" smooth="yes"/>
			<point x="208" y="119"/>
			<point x="212" y="139"/>
			<point x="219" y="171" type="curve" smooth="yes"/>
			<point x="318" y="649" type="line"/>
			<point x="240" y="649" type="line"/>
			<point x="150" y="463" type="line"/>
			<point x="88" y="177" type="line" smooth="yes"/>
			<point x="80" y="142"/>
			<point x="73" y="114"/>
			<point x="73" y="75" type="curve" smooth="yes"/>
			<point x="73" y="17"/>
			<point x="101" y="-13"/>
		</contour>
	</outline>
	<anchor name="aboveLC" x="271" y="629"/>
	<anchor name="belowLC" x="175" y="-20"/>
	<anchor name="baseLC" x="180" y="0"/>
</glyph>
<glyph name="braceleft" format="2">
	<unicode hex="007B"/>
	<advance width="387"/>
	<outline>
		<contour>
			<point x="64" y="248" type="line"/>
			<point x="131" y="240"/>
			<point x="152" y="221"/>
			<point x="152" y="181" type="curve" smooth="yes"/>
			<point x="152" y="120"/>
			<point x="85" y="40"/>
			<point x="85" y="-45" type="curve" smooth="yes"/>
			<point x="85" y="-120"/>
			<point x="137" y="-160"/>
			<point x="250" y="-160" type="curve" smooth="yes"/>
			<point x="272" y="-160" type="line"/>
			<point x="282" y="-102" type="line"/>
			<point x="255" y="-98" type="line" smooth="yes"/>
			<point x="213" y="-92"/>
			<point x="192" y="-66"/>
			<point x="192" y="-29" type="curve" smooth="yes"/>
			<point x="192" y="35"/>
			<point x="237" y="112"/>
			<point x="237" y="179" type="curve" smooth="yes"/>
			<point x="237" y="240"/>
			<point x="193" y="267"/>
			<point x="96" y="270" type="curve"/>
			<point x="96" y="285" type="line"/>
			<point x="217" y="296"/>
			<point x="276" y="329"/>
			<point x="276" y="419" type="curve" smooth="yes"/>
			<point x="276" y="461"/>
			<point x="272" y="504"/>
			<point x="272" y="541" type="curve" smooth="yes"/>
			<point x="272" y="610"/>
			<point x="298" y="644"/>
			<point x="385" y="655" type="curve" smooth="yes"/>
			<point x="411" y="658" type="line"/>
			<point x="420" y="716" type="line"/>
			<point x="390" y="716" type="line" smooth="yes"/>
			<point x="236" y="716"/>
			<point x="170" y="659"/>
			<point x="170" y="563" type="curve" smooth="yes"/>
			<point x="170" y="500"/>
			<point x="191" y="453"/>
			<point x="191" y="405" type="curve" smooth="yes"/>
			<point x="191" y="345"/>
			<point x="155" y="318"/>
			<point x="64" y="307" type="curve"/>
		</contour>
	</outline>
</glyph>
<glyph name="bar" format="2">
	<unicode hex="007C"/>
	<advance width="255"/>
	<outline>
		<contour>
			<point x="85" y="-226" type="line"/>
			<point x="170" y="-226" type="line"/>
			<point x="170" y="744" type="line"/>
			<point x="85" y="744" type="line"/>
		</contour>
	</outline>
</glyph>
<glyph name="cent" format="2">
	<unicode hex="00A2"/>
	<advance width="559"/>
	<outline>
		<contour>
			<point x="75" y="249" type="curve" smooth="yes"/>
			<point x="75" y="121"/>
			<point x="151" y="52"/>
			<point x="262" y="52" type="curve" smooth="yes"/>
			<point x="374" y="52"/>
			<point x="436" y="122"/>
			<point x="470" y="179" type="curve"/>
			<point x="430" y="212" type="line"/>
			<point x="388" y="166"/>
			<point x="355" y="135"/>
			<point x="303" y="135" type="curve" smooth="yes"/>
			<point x="235" y="135"/>
			<point x="190" y="178"/>
			<point x="190" y="266" type="curve" smooth="yes"/>
			<point x="190" y="382"/>
			<point x="251" y="512"/>
			<point x="369" y="512" type="curve" smooth="yes"/>
			<point x="409" y="512"/>
			<point x="430" y="507"/>
			<point x="449" y="501" type="curve"/>
			<point x="398" y="531" type="line"/>
			<point x="413" y="445" type="line" smooth="yes"/>
			<point x="420" y="403"/>
			<point x="437" y="385"/>
			<point x="470" y="385" type="curve" smooth="yes"/>
			<point x="503" y="385"/>
			<point x="519" y="408"/>
			<point x="523" y="434" type="curve" smooth="yes"/>
			<point x="512" y="504"/>
			<point x="451" y="560"/>
			<point x="345" y="560" type="curve" smooth="yes"/>
			<point x="195" y="560"/>
			<point x="75" y="416"/>
		</contour>
		<contour>
			<point x="279" y="-45" type="line"/>
			<point x="399" y="657" type="line"/>
			<point x="347" y="657" type="line"/>
			<point x="227" y="-45" type="line"/>
		</contour>
	</outline>
</glyph>
<glyph name="brokenbar" format="2">
	<unicode hex="00A6"/>
	<advance width="295"/>
	<outline>
		<contour>
			<point x="116" y="-226" type="line"/>
			<point x="201" y="-226" type="line"/>
			<point x="201" y="197" type="line"/>
			<point x="116" y="197" type="line"/>
		</contour>
		<contour>
			<point x="201" y="328" type="line"/>
			<point x="201" y="744" type="line"/>
			<point x="116" y="744" type="line"/>
			<point x="116" y="328" type="line"/>
		</contour>
	</outline>
</glyph>
<glyph name="copyright" format="2">
	<unicode hex="00A9"/>
	<advance width="809"/>
	<outline>
		<contour>
			<point x="399" y="-16" type="curve" smooth="yes"/>
			<point x="600" y="-16"/>
			<point x="779" y="129"/>
			<point x="779" y="373" type="curve" smooth="yes"/>
			<point x="779" y="564"/>
			<point x="654" y="680"/>
			<point x="459" y="680" type="curve" smooth="yes"/>
			<point x="260" y="680"/>
			<point x="82" y="536"/>
			<point x="82" y="292" type="curve" smooth="yes"/>
			<point x="82" y="101"/>
			<point x="207" y="-16"/>
		</contour>
		<contour>
			<point x="402" y="31" type="curve" smooth="yes"/>
			<point x="239" y="31"/>
			<point x="137" y="130"/>
			<point x="137" y="294" type="curve" smooth="yes"/>
			<point x="137" y="506"/>
			<point x="293" y="633"/>
			<point x="456" y="633" type="curve" smooth="yes"/>
			<point x="621" y="633"/>
			<point x="724" y="535"/>
			<point x="724" y="370" type="curve" smooth="yes"/>
			<point x="724" y="159"/>
			<point x="568" y="31"/>
		</contour>
		<contour>
			<point x="432" y="130" type="curve" smooth="yes"/>
			<point x="483" y="130"/>
			<point x="515" y="141"/>
			<point x="535" y="151" type="curve"/>
			<point x="551" y="260" type="line"/>
			<point x="503" y="260" type="line"/>
			<point x="468" y="163" type="line"/>
			<point x="523" y="192" type="line"/>
			<point x="502" y="184"/>
			<point x="486" y="179"/>
			<point x="451" y="179" type="curve" smooth="yes"/>
			<point x="379" y="179"/>
			<point x="335" y="221"/>
			<point x="335" y="308" type="curve" smooth="yes"/>
			<point x="335" y="410"/>
			<point x="387" y="490"/>
			<point x="481" y="490" type="curve" smooth="yes"/>
			<point x="523" y="490"/>
			<point x="544" y="482"/>
			<point x="558" y="474" type="curve"/>
			<point x="510" y="512" type="line"/>
			<point x="522" y="409" type="line"/>
			<point x="570" y="409" type="line"/>
			<point x="579" y="518" type="line"/>
			<point x="561" y="527"/>
			<point x="528" y="537"/>
			<point x="474" y="537" type="curve" smooth="yes"/>
			<point x="341" y="537"/>
			<point x="248" y="440"/>
			<point x="248" y="304" type="curve" smooth="yes"/>
			<point x="248" y="187"/>
			<point x="328" y="130"/>
		</contour>
	</outline>
</glyph>
<glyph name="registered" format="2">
	<unicode hex="00AE"/>
	<advance width="486"/>
	<outline>
		<contour>
			<point x="197" y="416" type="line"/>
			<point x="297" y="416" type="line"/>
			<point x="302" y="441" type="line"/>
			<point x="263" y="441" type="line"/>
			<point x="236" y="441" type="line"/>
			<point x="202" y="441" type="line"/>
		</contour>
		<contour>
			<point x="221" y="416" type="line"/>
			<point x="273" y="416" type="line"/>
			<point x="311" y="617" type="line"/>
			<point x="259" y="617" type="line"/>
		</contour>
		<contour>
			<point x="267" y="592" type="line"/>
			<point x="272" y="592" type="line"/>
			<point x="272" y="617" type="line"/>
			<point x="238" y="617" type="line"/>
			<point x="233" y="592" type="line"/>
		</contour>
		<contour>
			<point x="292" y="350" type="curve" smooth="yes"/>
			<point x="207" y="350"/>
			<point x="150" y="404"/>
			<point x="150" y="491" type="curve" smooth="yes"/>
			<point x="150" y="605"/>
			<point x="231" y="675"/>
			<point x="324" y="675" type="curve" smooth="yes"/>
			<point x="408" y="675"/>
			<point x="466" y="621"/>
			<point x="466" y="534" type="curve" smooth="yes"/>
			<point x="466" y="420"/>
			<point x="385" y="350"/>
		</contour>
		<contour>
			<point x="290" y="312" type="curve" smooth="yes"/>
			<point x="408" y="312"/>
			<point x="509" y="397"/>
			<point x="509" y="537" type="curve" smooth="yes"/>
			<point x="509" y="644"/>
			<point x="431" y="713"/>
			<point x="326" y="713" type="curve" smooth="yes"/>
			<point x="208" y="713"/>
			<point x="107" y="628"/>
			<point x="107" y="489" type="curve" smooth="yes"/>
			<point x="107" y="381"/>
			<point x="184" y="312"/>
		</contour>
		<contour>
			<point x="372" y="412" type="curve" smooth="yes"/>
			<point x="386" y="412"/>
			<point x="394" y="414"/>
			<point x="400" y="416" type="curve"/>
			<point x="405" y="441" type="line"/>
			<point x="348" y="441" type="line"/>
			<point x="386" y="424" type="line"/>
			<point x="369" y="481" type="line" smooth="yes"/>
			<point x="364" y="499"/>
			<point x="352" y="507"/>
			<point x="319" y="508" type="curve"/>
			<point x="319" y="517" type="line"/>
			<point x="368" y="519"/>
			<point x="401" y="533"/>
			<point x="401" y="568" type="curve" smooth="yes"/>
			<point x="401" y="599"/>
			<point x="373" y="617"/>
			<point x="327" y="617" type="curve" smooth="yes"/>
			<point x="291" y="617" type="line"/>
			<point x="291" y="594" type="line"/>
			<point x="317" y="594" type="line" smooth="yes"/>
			<point x="340" y="594"/>
			<point x="351" y="584"/>
			<point x="351" y="564" type="curve" smooth="yes"/>
			<point x="351" y="540"/>
			<point x="336" y="525"/>
			<point x="306" y="524" type="curve" smooth="yes"/>
			<point x="276" y="524" type="line"/>
			<point x="276" y="504" type="line"/>
			<point x="295" y="503" type="line" smooth="yes"/>
			<point x="311" y="502"/>
			<point x="317" y="496"/>
			<point x="320" y="481" type="curve" smooth="yes"/>
			<point x="327" y="447" type="line" smooth="yes"/>
			<point x="331" y="424"/>
			<point x="345" y="412"/>
		</contour>
	</outline>
</glyph>
<glyph name="degree" format="2">
	<unicode hex="00B0"/>
	<advance width="328"/>
	<outline>
		<contour>
			<point x="241" y="460" type="curve" smooth="yes"/>
			<point x="195" y="460"/>
			<point x="159" y="496"/>
			<point x="159" y="548" type="curve" smooth="yes"/>
			<point x="159" y="601"/>
			<point x="195" y="639"/>
			<point x="241" y="639" type="curve" smooth="yes"/>
			<point x="288" y="639"/>
			<point x="324" y="601"/>
			<point x="324" y="548" type="curve" smooth="yes"/>
			<point x="324" y="496"/>
			<point x="288" y="460"/>
		</contour>
		<contour>
			<point x="241" y="418" type="curve" smooth="yes"/>
			<point x="311" y="418"/>
			<point x="371" y="468"/>
			<point x="371" y="548" type="curve" smooth="yes"/>
			<point x="371" y="629"/>
			<point x="311" y="680"/>
			<point x="241" y="680" type="curve" smooth="yes"/>
			<point x="172" y="680"/>
			<point x="112" y="629"/>
			<point x="112" y="548" type="curve" smooth="yes"/>
			<point x="112" y="468"/>
			<point x="172" y="418"/>
		</contour>
	</outline>
</glyph>
<glyph name="plusminus" format="2">
	<unicode hex="00B1"/>
	<advance width="560"/>
	<outline>
		<contour>
			<point x="252" y="128" type="line"/>
			<point x="337" y="128" type="line"/>
			<point x="337" y="552" type="line"/>
			<point x="252" y="552" type="line"/>
		</contour>
		<contour>
			<point x="534" y="300" type="line"/>
			<point x="534" y="381" type="line"/>
			<point x="55" y="381" type="line"/>
			<point x="55" y="300" type="line"/>
		</contour>
		<contour>
			<point x="534" y="0" type="line"/>
			<point x="534" y="81" type="line"/>
			<point x="55" y="81" type="line"/>
			<point x="55" y="0" type="line"/>
		</contour>
	</outline>
</glyph>
<glyph name="two.sups" format="2">
	<unicode hex="00B2"/>
	<advance width="416"/>
	<outline>
		<contour>
			<point x="109" y="422" type="line"/>
			<point x="421" y="422" type="line"/>
			<point x="438" y="501" type="line"/>
			<point x="207" y="501" type="line"/>
			<point x="207" y="510" type="line"/>
			<point x="411" y="629"/>
			<point x="471" y="673"/>
			<point x="470" y="745" type="curve" smooth="yes"/>
			<point x="470" y="817"/>
			<point x="410" y="856"/>
			<point x="326" y="856" type="curve" smooth="yes"/>
			<point x="242" y="856"/>
			<point x="181" y="818"/>
			<point x="165" y="743" type="curve"/>
			<point x="170" y="719"/>
			<point x="186" y="704"/>
			<point x="212" y="704" type="curve" smooth="yes"/>
			<point x="238" y="703"/>
			<point x="258" y="717"/>
			<point x="260" y="751" type="curve" smooth="yes"/>
			<point x="264" y="835" type="line"/>
			<point x="237" y="806" type="line"/>
			<point x="248" y="811"/>
			<point x="265" y="816"/>
			<point x="289" y="816" type="curve" smooth="yes"/>
			<point x="332" y="816"/>
			<point x="365" y="794"/>
			<point x="365" y="739" type="curve" smooth="yes"/>
			<point x="365" y="688"/>
			<point x="321" y="638"/>
			<point x="122" y="487" type="curve"/>
		</contour>
	</outline>
</glyph>
<glyph name="three.sups" format="2">
	<unicode hex="00B3"/>
	<advance width="343"/>
	<outline>
		<contour>
			<point x="247" y="397" type="curve" smooth="yes"/>
			<point x="341" y="397"/>
			<point x="411" y="444"/>
			<point x="411" y="522" type="curve" smooth="yes"/>
			<point x="411" y="592"/>
			<point x="355" y="624"/>
			<point x="275" y="629" type="curve"/>
			<point x="275" y="643" type="line"/>
			<point x="375" y="651"/>
			<point x="434" y="687"/>
			<point x="434" y="755" type="curve" smooth="yes"/>
			<point x="434" y="814"/>
			<point x="381" y="854"/>
			<point x="299" y="854" type="curve" smooth="yes"/>
			<point x="217" y="854"/>
			<point x="169" y="813"/>
			<point x="160" y="750" type="curve"/>
			<point x="167" y="737"/>
			<point x="177" y="724"/>
			<point x="199" y="724" type="curve" smooth="yes"/>
			<point x="221" y="724"/>
			<point x="239" y="738"/>
			<point x="244" y="776" type="curve" smooth="yes"/>
			<point x="251" y="839" type="line"/>
			<point x="225" y="807" type="line"/>
			<point x="234" y="810"/>
			<point x="246" y="812"/>
			<point x="261" y="812" type="curve" smooth="yes"/>
			<point x="301" y="812"/>
			<point x="330" y="791"/>
			<point x="330" y="745" type="curve" smooth="yes"/>
			<point x="330" y="690"/>
			<point x="294" y="657"/>
			<point x="221" y="657" type="curve"/>
			<point x="213" y="612" type="line"/>
			<point x="272" y="612"/>
			<point x="301" y="580"/>
			<point x="301" y="530" type="curve" smooth="yes"/>
			<point x="301" y="481"/>
			<point x="275" y="441"/>
			<point x="205" y="441" type="curve" smooth="yes"/>
			<point x="181" y="441"/>
			<point x="169" y="444"/>
			<point x="150" y="446" type="curve"/>
			<point x="186" y="420" type="line"/>
			<point x="186" y="486" type="line" smooth="yes"/>
			<point x="186" y="521"/>
			<point x="168" y="537"/>
			<point x="143" y="537" type="curve" smooth="yes"/>
			<point x="120" y="537"/>
			<point x="108" y="524"/>
			<point x="102" y="509" type="curve"/>
			<point x="108" y="451"/>
			<point x="154" y="397"/>
		</contour>
	</outline>
</glyph>
<glyph name="paragraph" format="2">
	<unicode hex="00B6"/>
	<advance width="620"/>
	<outline>
		<contour>
			<point x="558" y="664" type="line"/>
			<point x="545" y="594" type="line"/>
			<point x="560" y="594" type="line"/>
			<point x="656" y="594" type="line"/>
			<point x="668" y="664" type="line"/>
		</contour>
		<contour>
			<point x="350" y="-125" type="line"/>
			<point x="446" y="-125" type="line"/>
			<point x="465" y="-21"/>
			<point x="484" y="83"/>
			<point x="503" y="187" type="curve" smooth="yes"/>
			<point x="589" y="664" type="line"/>
			<point x="492" y="664" type="line"/>
		</contour>
		<contour>
			<point x="394" y="594" type="line"/>
			<point x="504" y="594" type="line"/>
			<point x="516" y="664" type="line"/>
			<point x="427" y="664" type="line" smooth="yes"/>
			<point x="205" y="664"/>
			<point x="69" y="537"/>
			<point x="69" y="366" type="curve" smooth="yes"/>
			<point x="69" y="214"/>
			<point x="176" y="147"/>
			<point x="310" y="131" type="curve"/>
		</contour>
	</outline>
</glyph>
<glyph name="AE" format="2">
	<unicode hex="00C6"/>
	<advance width="933"/>
	<outline>
		<contour>
			<point x="509" y="0" type="line"/>
			<point x="856" y="0" type="line"/>
			<point x="894" y="184" type="line"/>
			<point x="826" y="184" type="line"/>
			<point x="752" y="22" type="line"/>
			<point x="830" y="64" type="line"/>
			<point x="509" y="64" type="line"/>
		</contour>
		<contour>
			<point x="849" y="488" type="line"/>
			<point x="919" y="488" type="line"/>
			<point x="945" y="664" type="line"/>
			<point x="608" y="664" type="line"/>
			<point x="608" y="599" type="line"/>
			<point x="882" y="599" type="line"/>
			<point x="841" y="633" type="line"/>
		</contour>
		<contour>
			<point x="-21" y="0" type="line"/>
			<point x="209" y="0" type="line"/>
			<point x="223" y="66" type="line"/>
			<point x="121" y="66" type="line"/>
			<point x="87" y="66" type="line"/>
			<point x="-7" y="66" type="line"/>
		</contour>
		<contour>
			<point x="411" y="0" type="line"/>
			<point x="542" y="0" type="line"/>
			<point x="560" y="101"/>
			<point x="578" y="201"/>
			<point x="596" y="302" type="curve" smooth="yes"/>
			<point x="662" y="664" type="line"/>
			<point x="531" y="664" type="line"/>
			<point x="513" y="563"/>
			<point x="495" y="464"/>
			<point x="477" y="363" type="curve" smooth="yes"/>
		</contour>
		<contour>
			<point x="710" y="225" type="line"/>
			<point x="773" y="225" type="line"/>
			<point x="815" y="451" type="line"/>
			<point x="751" y="451" type="line"/>
			<point x="713" y="350" type="line"/>
			<point x="711" y="326" type="line"/>
		</contour>
		<contour>
			<point x="325" y="0" type="line"/>
			<point x="467" y="0" type="line"/>
			<point x="467" y="66" type="line"/>
			<point x="451" y="66" type="line"/>
			<point x="339" y="66" type="line"/>
		</contour>
		<contour>
			<point x="339" y="598" type="line"/>
			<point x="540" y="598" type="line"/>
			<point x="556" y="598" type="line"/>
			<point x="556" y="664" type="line"/>
			<point x="352" y="664" type="line"/>
		</contour>
		<contour>
			<point x="22" y="0" type="line"/>
			<point x="103" y="0" type="line"/>
			<point x="267" y="245" type="line"/>
			<point x="537" y="664" type="line"/>
			<point x="477" y="664" type="line"/>
		</contour>
		<contour>
			<point x="225" y="216" type="line"/>
			<point x="519" y="216" type="line"/>
			<point x="519" y="274" type="line"/>
			<point x="225" y="274" type="line"/>
		</contour>
		<contour>
			<point x="546" y="309" type="line"/>
			<point x="757" y="309" type="line"/>
			<point x="757" y="369" type="line"/>
			<point x="546" y="369" type="line"/>
		</contour>
	</outline>
	<anchor name="aboveUC" x="669" y="684"/>
</glyph>
<glyph name="Idieresis" format="2">
	<unicode hex="00CF"/>
	<advance width="391"/>
	<outline>
		<contour>
			<point x="199" y="729" type="curve" smooth="yes"/>
			<point x="242" y="729"/>
			<point x="271" y="764"/>
			<point x="271" y="801" type="curve" smooth="yes"/>
			<point x="271" y="835"/>
			<point x="246" y="859"/>
			<point x="210" y="859" type="curve" smooth="yes"/>
			<point x="166" y="859"/>
			<point x="138" y="823"/>
			<point x="138" y="786" type="curve" smooth="yes"/>
			<point x="138" y="753"/>
			<point x="162" y="729"/>
		</contour>
		<contour>
			<point x="394" y="729" type="curve" smooth="yes"/>
			<point x="437" y="729"/>
			<point x="466" y="764"/>
			<point x="466" y="801" type="curve" smooth="yes"/>
			<point x="466" y="835"/>
			<point x="441" y="859"/>
			<point x="405" y="859" type="curve" smooth="yes"/>
			<point x="361" y="859"/>
			<point x="333" y="823"/>
			<point x="333" y="786" type="curve" smooth="yes"/>
			<point x="333" y="753"/>
			<point x="358" y="729"/>
		</contour>
		<component base="I"/>
	</outline>
</glyph>
<glyph name="multiply" format="2">
	<unicode hex="00D7"/>
	<advance width="560"/>
	<outline>
		<contour>
			<point x="473" y="100" type="line"/>
			<point x="533" y="159" type="line"/>
			<point x="137" y="555" type="line"/>
			<point x="78" y="495" type="line"/>
		</contour>
		<contour>
			<point x="532" y="496" type="line"/>
			<point x="474" y="554" type="line"/>
			<point x="79" y="158" type="line"/>
			<point x="136" y="101" type="line"/>
		</contour>
	</outline>
</glyph>
<glyph name="Oslash" format="2">
	<unicode hex="00D8"/>
	<advance width="705"/>
	<outline>
		<contour>
			<point x="725" y="645" type="line"/>
			<point x="685" y="684" type="line"/>
			<point x="15" y="19" type="line"/>
			<point x="54" y="-20" type="line"/>
		</contour>
		<contour>
			<point x="328" y="-16" type="curve" smooth="yes"/>
			<point x="545" y="-16"/>
			<point x="698" y="196"/>
			<point x="698" y="413" type="curve" smooth="yes"/>
			<point x="698" y="591"/>
			<point x="590" y="680"/>
			<point x="437" y="680" type="curve" smooth="yes"/>
			<point x="220" y="680"/>
			<point x="66" y="469"/>
			<point x="66" y="252" type="curve" smooth="yes"/>
			<point x="66" y="74"/>
			<point x="174" y="-16"/>
		</contour>
		<contour>
			<point x="334" y="50" type="curve" smooth="yes"/>
			<point x="242" y="50"/>
			<point x="194" y="102"/>
			<point x="194" y="229" type="curve" smooth="yes"/>
			<point x="194" y="418"/>
			<point x="292" y="614"/>
			<point x="431" y="614" type="curve" smooth="yes"/>
			<point x="522" y="614"/>
			<point x="571" y="563"/>
			<point x="571" y="436" type="curve" smooth="yes"/>
			<point x="571" y="247"/>
			<point x="472" y="50"/>
		</contour>
	</outline>
	<anchor name="aboveUC" x="433" y="684"/>
</glyph>
<glyph name="Thorn" format="2">
	<unicode hex="00DE"/>
	<advance width="608"/>
	<outline>
		<contour>
			<point x="206" y="151" type="line"/>
			<point x="319" y="151" type="line" smooth="yes"/>
			<point x="514" y="151"/>
			<point x="620" y="244"/>
			<point x="620" y="362" type="curve" smooth="yes"/>
			<point x="620" y="466"/>
			<point x="533" y="528"/>
			<point x="369" y="528" type="curve" smooth="yes"/>
			<point x="280" y="528" type="line"/>
			<point x="280" y="465" type="line"/>
			<point x="361" y="465" type="line" smooth="yes"/>
			<point x="446" y="465"/>
			<point x="491" y="429"/>
			<point x="491" y="360" type="curve" smooth="yes"/>
			<point x="491" y="274"/>
			<point x="435" y="209"/>
			<point x="316" y="209" type="curve" smooth="yes"/>
			<point x="206" y="209" type="line"/>
		</contour>
		<contour>
			<point x="12" y="0" type="line"/>
			<point x="317" y="0" type="line"/>
			<point x="328" y="62" type="line"/>
			<point x="199" y="62" type="line"/>
			<point x="147" y="66" type="line"/>
			<point x="23" y="66" type="line"/>
		</contour>
		<contour>
			<point x="95" y="0" type="line"/>
			<point x="227" y="0" type="line"/>
			<point x="245" y="101"/>
			<point x="263" y="201"/>
			<point x="282" y="302" type="curve" smooth="yes"/>
			<point x="347" y="664" type="line"/>
			<point x="215" y="664" type="line"/>
			<point x="197" y="563"/>
			<point x="179" y="464"/>
			<point x="161" y="363" type="curve" smooth="yes"/>
		</contour>
		<contour>
			<point x="114" y="598" type="line"/>
			<point x="244" y="598" type="line"/>
			<point x="296" y="602" type="line"/>
			<point x="419" y="602" type="line"/>
			<point x="431" y="664" type="line"/>
			<point x="126" y="664" type="line"/>
		</contour>
	</outline>
</glyph>
<glyph name="eth" format="2">
	<unicode hex="00F0"/>
	<advance width="578"/>
	<outline>
		<contour>
			<point x="247" y="-13" type="curve" smooth="yes"/>
			<point x="410" y="-13"/>
			<point x="552" y="129"/>
			<point x="552" y="359" type="curve" smooth="yes"/>
			<point x="552" y="573"/>
			<point x="423" y="677"/>
			<point x="266" y="735" type="curve"/>
			<point x="238" y="688" type="line"/>
			<point x="380" y="620"/>
			<point x="441" y="539"/>
			<point x="455" y="375" type="curve"/>
			<point x="438" y="370" type="line"/>
			<point x="427" y="433"/>
			<point x="390" y="487"/>
			<point x="303" y="487" type="curve" smooth="yes"/>
			<point x="166" y="487"/>
			<point x="51" y="356"/>
			<point x="51" y="186" type="curve" smooth="yes"/>
			<point x="51" y="49"/>
			<point x="132" y="-13"/>
		</contour>
		<contour>
			<point x="261" y="47" type="curve" smooth="yes"/>
			<point x="207" y="47"/>
			<point x="181" y="83"/>
			<point x="181" y="169" type="curve" smooth="yes"/>
			<point x="181" y="306"/>
			<point x="245" y="428"/>
			<point x="333" y="428" type="curve" smooth="yes"/>
			<point x="387" y="428"/>
			<point x="412" y="392"/>
			<point x="412" y="306" type="curve" smooth="yes"/>
			<point x="412" y="169"/>
			<point x="348" y="47"/>
		</contour>
		<contour>
			<point x="249" y="538" type="line"/>
			<point x="548" y="683" type="line"/>
			<point x="528" y="724" type="line"/>
			<point x="226" y="570" type="line"/>
		</contour>
	</outline>
</glyph>
<glyph name="thorn" format="2">
	<unicode hex="00FE"/>
	<advance width="598"/>
	<outline>
		<contour>
			<point x="-63" y="-223" type="line"/>
			<point x="232" y="-223" type="line"/>
			<point x="243" y="-163" type="line"/>
			<point x="111" y="-163" type="line"/>
			<point x="61" y="-163" type="line"/>
			<point x="-52" y="-163" type="line"/>
		</contour>
		<contour>
			<point x="13" y="-223" type="line"/>
			<point x="140" y="-223" type="line"/>
			<point x="155" y="-136"/>
			<point x="171" y="-41"/>
			<point x="185" y="46" type="curve"/>
			<point x="196" y="46" type="line"/>
			<point x="266" y="378" type="line"/>
			<point x="254" y="378" type="line"/>
			<point x="330" y="723" type="line"/>
			<point x="287" y="733" type="line"/>
			<point x="100" y="696" type="line"/>
			<point x="89" y="641" type="line"/>
			<point x="231" y="626" type="line"/>
			<point x="193" y="659" type="line"/>
			<point x="179" y="594"/>
			<point x="168" y="539"/>
			<point x="155" y="474" type="curve" smooth="yes"/>
		</contour>
		<contour>
			<point x="234" y="-13" type="curve" smooth="yes"/>
			<point x="387" y="-13"/>
			<point x="575" y="168"/>
			<point x="575" y="376" type="curve" smooth="yes"/>
			<point x="575" y="474"/>
			<point x="525" y="524"/>
			<point x="453" y="524" type="curve" smooth="yes"/>
			<point x="376" y="524"/>
			<point x="319" y="474"/>
			<point x="278" y="396" type="curve"/>
			<point x="244" y="396" type="line"/>
			<point x="239" y="320" type="line"/>
			<point x="306" y="411"/>
			<point x="348" y="430"/>
			<point x="385" y="430" type="curve" smooth="yes"/>
			<point x="425" y="430"/>
			<point x="444" y="401"/>
			<point x="444" y="332" type="curve" smooth="yes"/>
			<point x="444" y="252"/>
			<point x="411" y="173"/>
			<point x="372" y="124" type="curve" smooth="yes"/>
			<point x="343" y="85"/>
			<point x="307" y="55"/>
			<point x="264" y="55" type="curve" smooth="yes"/>
			<point x="221" y="55"/>
			<point x="184" y="69"/>
			<point x="153" y="97" type="curve"/>
			<point x="133" y="9" type="line"/>
			<point x="158" y="-4"/>
			<point x="185" y="-13"/>
		</contour>
	</outline>
	<anchor name="aboveLC" x="271" y="733"/>
	<anchor name="belowLC" x="389" y="-20"/>
</glyph>
<glyph name="dcroat" format="2">
	<unicode hex="0111"/>
	<advance width="621"/>
	<outline>
		<contour>
			<point x="166" y="-13" type="curve" smooth="yes"/>
			<point x="241" y="-13"/>
			<point x="290" y="35"/>
			<point x="335" y="105" type="curve"/>
			<point x="375" y="105" type="line"/>
			<point x="380" y="183" type="line"/>
			<point x="305" y="98"/>
			<point x="268" y="81"/>
			<point x="231" y="81" type="curve" smooth="yes"/>
			<point x="190" y="81"/>
			<point x="174" y="112"/>
			<point x="174" y="169" type="curve" smooth="yes"/>
			<point x="174" y="236"/>
			<point x="193" y="291"/>
			<point x="233" y="343" type="curve" smooth="yes"/>
			<point x="266" y="390"/>
			<point x="310" y="418"/>
			<point x="358" y="418" type="curve" smooth="yes"/>
			<point x="395" y="418"/>
			<point x="423" y="406"/>
			<point x="455" y="370" type="curve"/>
			<point x="493" y="422" type="line"/>
			<point x="455" y="464"/>
			<point x="432" y="484"/>
			<point x="376" y="484" type="curve" smooth="yes"/>
			<point x="222" y="484"/>
			<point x="43" y="318"/>
			<point x="43" y="121" type="curve" smooth="yes"/>
			<point x="43" y="19"/>
			<point x="91" y="-13"/>
		</contour>
		<contour>
			<point x="295" y="534" type="line"/>
			<point x="651" y="534" type="line"/>
			<point x="660" y="574" type="line"/>
			<point x="304" y="574" type="line"/>
		</contour>
		<contour>
			<point x="452" y="-13" type="curve" smooth="yes"/>
			<point x="526" y="-13"/>
			<point x="577" y="37"/>
			<point x="618" y="119" type="curve"/>
			<point x="574" y="145" type="line"/>
			<point x="540" y="86"/>
			<point x="527" y="70"/>
			<point x="503" y="70" type="curve" smooth="yes"/>
			<point x="484" y="70"/>
			<point x="475" y="82"/>
			<point x="475" y="100" type="curve" smooth="yes"/>
			<point x="475" y="117"/>
			<point x="480" y="138"/>
			<point x="487" y="174" type="curve" smooth="yes"/>
			<point x="601" y="723" type="line"/>
			<point x="558" y="733" type="line"/>
			<point x="364" y="696" type="line"/>
			<point x="353" y="641" type="line"/>
			<point x="500" y="622" type="line"/>
			<point x="469" y="659" type="line"/>
			<point x="424" y="441" type="line"/>
			<point x="414" y="441" type="line"/>
			<point x="346" y="131" type="line"/>
			<point x="361" y="131" type="line" smooth="yes"/>
			<point x="358" y="115"/>
			<point x="355" y="99"/>
			<point x="355" y="78" type="curve" smooth="yes"/>
			<point x="355" y="18"/>
			<point x="390" y="-13"/>
		</contour>
	</outline>
</glyph>
<glyph name="Hbar" format="2">
	<unicode hex="0126"/>
	<advance width="796"/>
	<outline>
		<contour>
			<point x="12" y="0" type="line"/>
			<point x="314" y="0" type="line"/>
			<point x="325" y="66" type="line"/>
			<point x="199" y="66" type="line"/>
			<point x="147" y="66" type="line"/>
			<point x="23" y="66" type="line"/>
		</contour>
		<contour>
			<point x="95" y="0" type="line"/>
			<point x="227" y="0" type="line"/>
			<point x="245" y="101"/>
			<point x="263" y="201"/>
			<point x="282" y="302" type="curve" smooth="yes"/>
			<point x="347" y="664" type="line"/>
			<point x="215" y="664" type="line"/>
			<point x="197" y="563"/>
			<point x="179" y="464"/>
			<point x="161" y="363" type="curve" smooth="yes"/>
		</contour>
		<contour>
			<point x="114" y="598" type="line"/>
			<point x="244" y="598" type="line"/>
			<point x="296" y="598" type="line"/>
			<point x="417" y="598" type="line"/>
			<point x="428" y="664" type="line"/>
			<point x="126" y="664" type="line"/>
		</contour>
		<contour>
			<point x="420" y="0" type="line"/>
			<point x="722" y="0" type="line"/>
			<point x="733" y="66" type="line"/>
			<point x="604" y="66" type="line"/>
			<point x="552" y="66" type="line"/>
			<point x="431" y="66" type="line"/>
		</contour>
		<contour>
			<point x="501" y="0" type="line"/>
			<point x="632" y="0" type="line"/>
			<point x="651" y="101"/>
			<point x="669" y="201"/>
			<point x="687" y="302" type="curve" smooth="yes"/>
			<point x="752" y="664" type="line"/>
			<point x="621" y="664" type="line"/>
			<point x="602" y="563"/>
			<point x="584" y="464"/>
			<point x="566" y="363" type="curve" smooth="yes"/>
		</contour>
		<contour>
			<point x="522" y="598" type="line"/>
			<point x="649" y="598" type="line"/>
			<point x="701" y="598" type="line"/>
			<point x="825" y="598" type="line"/>
			<point x="836" y="664" type="line"/>
			<point x="534" y="664" type="line"/>
		</contour>
		<contour>
			<point x="225" y="277" type="line"/>
			<point x="609" y="277" type="line"/>
			<point x="609" y="339" type="line"/>
			<point x="225" y="339" type="line"/>
		</contour>
		<contour>
			<point x="86" y="447" type="line"/>
			<point x="800" y="447" type="line"/>
			<point x="810" y="499" type="line"/>
			<point x="97" y="499" type="line"/>
		</contour>
	</outline>
</glyph>
<glyph name="hbar" format="2">
	<unicode hex="0127"/>
	<advance width="647"/>
	<outline>
		<contour>
			<point x="472" y="-13" type="curve" smooth="yes"/>
			<point x="556" y="-13"/>
			<point x="605" y="45"/>
			<point x="644" y="114" type="curve"/>
			<point x="601" y="140" type="line"/>
			<point x="566" y="86"/>
			<point x="553" y="70"/>
			<point x="531" y="70" type="curve" smooth="yes"/>
			<point x="512" y="70"/>
			<point x="504" y="82"/>
			<point x="504" y="98" type="curve" smooth="yes"/>
			<point x="504" y="115"/>
			<point x="511" y="142"/>
			<point x="519" y="171" type="curve" smooth="yes"/>
			<point x="547" y="288" type="line" smooth="yes"/>
			<point x="555" y="320"/>
			<point x="563" y="357"/>
			<point x="563" y="388" type="curve" smooth="yes"/>
			<point x="563" y="447"/>
			<point x="527" y="486"/>
			<point x="457" y="486" type="curve" smooth="yes"/>
			<point x="373" y="486"/>
			<point x="319" y="429"/>
			<point x="264" y="344" type="curve"/>
			<point x="224" y="344" type="line"/>
			<point x="224" y="280" type="line"/>
			<point x="297" y="356"/>
			<point x="334" y="388"/>
			<point x="380" y="388" type="curve" smooth="yes"/>
			<point x="411" y="388"/>
			<point x="426" y="373"/>
			<point x="426" y="348" type="curve" smooth="yes"/>
			<point x="426" y="324"/>
			<point x="420" y="299"/>
			<point x="411" y="267" type="curve" smooth="yes"/>
			<point x="388" y="172" type="line" smooth="yes"/>
			<point x="380" y="140"/>
			<point x="371" y="106"/>
			<point x="371" y="72" type="curve" smooth="yes"/>
			<point x="371" y="23"/>
			<point x="402" y="-13"/>
		</contour>
		<contour>
			<point x="85" y="-11" type="line"/>
			<point x="179" y="0" type="line"/>
			<point x="194" y="73"/>
			<point x="209" y="146"/>
			<point x="224" y="220" type="curve" smooth="yes"/>
			<point x="243" y="312" type="line"/>
			<point x="232" y="312" type="line"/>
			<point x="324" y="723" type="line"/>
			<point x="279" y="733" type="line"/>
			<point x="94" y="696" type="line"/>
			<point x="82" y="641" type="line"/>
			<point x="227" y="626" type="line"/>
			<point x="187" y="659" type="line"/>
			<point x="172" y="589"/>
			<point x="160" y="530"/>
			<point x="145" y="460" type="curve" smooth="yes"/>
			<point x="47" y="0" type="line"/>
		</contour>
		<contour>
			<point x="68" y="534" type="line"/>
			<point x="427" y="534" type="line"/>
			<point x="436" y="574" type="line"/>
			<point x="76" y="574" type="line"/>
		</contour>
	</outline>
</glyph>
<glyph name="dotlessi" format="2">
	<unicode hex="0131"/>
	<advance width="340"/>
	<outline>
		<contour>
			<point x="59" y="81" type="curve" smooth="yes"/>
			<point x="59" y="23"/>
			<point x="91" y="-13"/>
			<point x="161" y="-13" type="curve" smooth="yes"/>
			<point x="237" y="-13"/>
			<point x="290" y="37"/>
			<point x="334" y="119" type="curve"/>
			<point x="291" y="145" type="line"/>
			<point x="257" y="86"/>
			<point x="244" y="70"/>
			<point x="220" y="70" type="curve" smooth="yes"/>
			<point x="201" y="70"/>
			<point x="192" y="82"/>
			<point x="192" y="101" type="curve" smooth="yes"/>
			<point x="192" y="118"/>
			<point x="199" y="147"/>
			<point x="206" y="184" type="curve" smooth="yes"/>
			<point x="277" y="511" type="line"/>
			<point x="228" y="521" type="line"/>
			<point x="41" y="463" type="line"/>
			<point x="30" y="407" type="line"/>
			<point x="166" y="407" type="line"/>
			<point x="136" y="450" type="line"/>
			<point x="76" y="187" type="line" smooth="yes"/>
			<point x="68" y="150"/>
			<point x="59" y="116"/>
		</contour>
	</outline>
	<anchor name="aboveLC" x="227" y="531"/>
	<anchor name="belowLC" x="147" y="-20"/>
	<anchor name="ogonek" x="193" y="0"/>
</glyph>
<glyph name="kgreenlandic" format="2">
	<unicode hex="0138"/>
	<advance width="569"/>
	<outline>
		<contour>
			<point x="85" y="-11" type="line"/>
			<point x="180" y="0" type="line"/>
			<point x="196" y="79"/>
			<point x="213" y="158"/>
			<point x="229" y="237" type="curve" smooth="yes"/>
			<point x="262" y="389" type="line"/>
			<point x="289" y="511" type="line"/>
			<point x="240" y="521" type="line"/>
			<point x="50" y="463" type="line"/>
			<point x="39" y="407" type="line"/>
			<point x="173" y="407" type="line"/>
			<point x="145" y="447" type="line"/>
			<point x="48" y="0" type="line"/>
		</contour>
		<contour>
			<point x="547" y="0" type="curve"/>
			<point x="554" y="43" type="line"/>
			<point x="523" y="46" type="line" smooth="yes"/>
			<point x="491" y="50"/>
			<point x="473" y="64"/>
			<point x="445" y="116" type="curve" smooth="yes"/>
			<point x="416" y="169" type="line" smooth="yes"/>
			<point x="382" y="231"/>
			<point x="342" y="244"/>
			<point x="261" y="251" type="curve" smooth="yes"/>
			<point x="236" y="253" type="line"/>
			<point x="236" y="262" type="line"/>
			<point x="474" y="368" type="line" smooth="yes"/>
			<point x="538" y="395"/>
			<point x="571" y="417"/>
			<point x="571" y="460" type="curve" smooth="yes"/>
			<point x="571" y="492"/>
			<point x="546" y="511"/>
			<point x="519" y="519" type="curve"/>
			<point x="361" y="390" type="line"/>
			<point x="249" y="284" type="line"/>
			<point x="209" y="284" type="line"/>
			<point x="209" y="239" type="line"/>
			<point x="220" y="236" type="line" smooth="yes"/>
			<point x="256" y="224"/>
			<point x="274" y="213"/>
			<point x="291" y="169" type="curve" smooth="yes"/>
			<point x="321" y="93" type="line" smooth="yes"/>
			<point x="350" y="14"/>
			<point x="390" y="-13"/>
			<point x="458" y="-13" type="curve" smooth="yes"/>
			<point x="490" y="-13"/>
			<point x="529" y="-5"/>
		</contour>
	</outline>
</glyph>
<glyph name="Lslash" format="2">
	<unicode hex="0141"/>
	<advance width="601"/>
	<outline>
		<contour>
			<point x="468" y="478" type="line"/>
			<point x="246" y="366" type="line"/>
			<point x="230" y="295" type="line"/>
			<point x="453" y="407" type="line"/>
		</contour>
		<contour>
			<point x="221" y="365" type="line"/>
			<point x="57" y="284" type="line"/>
			<point x="44" y="213" type="line"/>
			<point x="205" y="293" type="line"/>
		</contour>
		<component base="L"/>
	</outline>
</glyph>
<glyph name="OE" format="2">
	<unicode hex="0152"/>
	<advance width="940"/>
	<outline>
		<contour>
			<point x="439" y="4" type="curve"/>
			<point x="439" y="68" type="line"/>
			<point x="415" y="60"/>
			<point x="383" y="52"/>
			<point x="349" y="52" type="curve" smooth="yes"/>
			<point x="256" y="52"/>
			<point x="199" y="111"/>
			<point x="199" y="236" type="curve" smooth="yes"/>
			<point x="199" y="421"/>
			<point x="299" y="614"/>
			<point x="447" y="614" type="curve" smooth="yes"/>
			<point x="498" y="614"/>
			<point x="537" y="601"/>
			<point x="557" y="590" type="curve"/>
			<point x="557" y="658" type="line"/>
			<point x="529" y="672"/>
			<point x="484" y="680"/>
			<point x="433" y="680" type="curve" smooth="yes"/>
			<point x="219" y="680"/>
			<point x="64" y="470"/>
			<point x="64" y="247" type="curve" smooth="yes"/>
			<point x="64" y="76"/>
			<point x="172" y="-13"/>
			<point x="326" y="-13" type="curve" smooth="yes"/>
			<point x="377" y="-13"/>
			<point x="415" y="-4"/>
		</contour>
		<contour>
			<point x="397" y="0" type="line"/>
			<point x="525" y="0" type="line"/>
			<point x="544" y="101"/>
			<point x="562" y="201"/>
			<point x="580" y="302" type="curve" smooth="yes"/>
			<point x="645" y="664" type="line"/>
			<point x="517" y="664" type="line"/>
			<point x="498" y="563"/>
			<point x="480" y="464"/>
			<point x="462" y="363" type="curve" smooth="yes"/>
		</contour>
		<contour>
			<point x="489" y="0" type="line"/>
			<point x="831" y="0" type="line"/>
			<point x="869" y="184" type="line"/>
			<point x="801" y="184" type="line"/>
			<point x="723" y="22" type="line"/>
			<point x="805" y="64" type="line"/>
			<point x="489" y="64" type="line"/>
		</contour>
		<contour>
			<point x="527" y="309" type="line"/>
			<point x="731" y="309" type="line"/>
			<point x="731" y="369" type="line"/>
			<point x="527" y="369" type="line"/>
		</contour>
		<contour>
			<point x="587" y="599" type="line"/>
			<point x="857" y="599" type="line"/>
			<point x="813" y="633" type="line"/>
			<point x="824" y="488" type="line"/>
			<point x="894" y="488" type="line"/>
			<point x="920" y="664" type="line"/>
			<point x="587" y="664" type="line"/>
		</contour>
		<contour>
			<point x="691" y="225" type="line"/>
			<point x="754" y="225" type="line"/>
			<point x="795" y="451" type="line"/>
			<point x="732" y="451" type="line"/>
			<point x="691" y="350" type="line"/>
			<point x="688" y="326" type="line"/>
		</contour>
	</outline>
	<anchor name="aboveUC" x="580" y="684"/>
</glyph>
<glyph name="Uogonek" format="2">
	<unicode hex="0172"/>
	<advance width="729"/>
	<outline>
		<contour>
			<point x="233" y="598" type="line"/>
			<point x="286" y="598" type="line"/>
			<point x="413" y="598" type="line"/>
			<point x="425" y="664" type="line"/>
			<point x="115" y="664" type="line"/>
			<point x="104" y="598" type="line"/>
		</contour>
		<contour>
			<point x="427" y="-228" type="curve" smooth="yes"/>
			<point x="470" y="-228"/>
			<point x="497" y="-211"/>
			<point x="514" y="-199" type="curve"/>
			<point x="494" y="-155" type="line"/>
			<point x="486" y="-159"/>
			<point x="474" y="-163"/>
			<point x="458" y="-163" type="curve" smooth="yes"/>
			<point x="427" y="-163"/>
			<point x="405" y="-144"/>
			<point x="405" y="-112" type="curve" smooth="yes"/>
			<point x="405" y="-74"/>
			<point x="426" y="-31"/>
			<point x="500" y="17" type="curve" smooth="yes"/>
			<point x="573" y="65"/>
			<point x="619" y="142"/>
			<point x="642" y="268" type="curve" smooth="yes"/>
			<point x="713" y="664" type="line"/>
			<point x="641" y="664" type="line"/>
			<point x="571" y="269" type="line" smooth="yes"/>
			<point x="545" y="131"/>
			<point x="486" y="61"/>
			<point x="385" y="61" type="curve" smooth="yes"/>
			<point x="286" y="61"/>
			<point x="257" y="116"/>
			<point x="257" y="179" type="curve" smooth="yes"/>
			<point x="257" y="219"/>
			<point x="264" y="254"/>
			<point x="272" y="301" type="curve" smooth="yes"/>
			<point x="337" y="664" type="line"/>
			<point x="205" y="664" type="line"/>
			<point x="187" y="563"/>
			<point x="169" y="464"/>
			<point x="151" y="363" type="curve" smooth="yes"/>
			<point x="140" y="303" type="line" smooth="yes"/>
			<point x="132" y="259"/>
			<point x="127" y="222"/>
			<point x="127" y="184" type="curve" smooth="yes"/>
			<point x="127" y="66"/>
			<point x="208" y="-5"/>
			<point x="344" y="-5" type="curve" smooth="yes"/>
			<point x="381" y="-5"/>
			<point x="408" y="0"/>
			<point x="422" y="4" type="curve"/>
			<point x="422" y="-22" type="line"/>
			<point x="358" y="-45"/>
			<point x="320" y="-79"/>
			<point x="320" y="-139" type="curve" smooth="yes"/>
			<point x="320" y="-190"/>
			<point x="356" y="-228"/>
		</contour>
		<contour>
			<point x="648" y="598" type="line"/>
			<point x="683" y="598" type="line"/>
			<point x="785" y="598" type="line"/>
			<point x="796" y="664" type="line"/>
			<point x="548" y="664" type="line"/>
			<point x="536" y="598" type="line"/>
		</contour>
	</outline>
	<anchor name="aboveUC" x="481" y="684"/>
</glyph>
<glyph name="Uhorn" format="2">
	<unicode hex="01AF"/>
	<advance width="729"/>
	<outline>
		<contour>
			<point x="127" y="184" type="curve" smooth="yes"/>
			<point x="127" y="64"/>
			<point x="208" y="-16"/>
			<point x="349" y="-16" type="curve" smooth="yes"/>
			<point x="523" y="-16"/>
			<point x="610" y="91"/>
			<point x="642" y="268" type="curve" smooth="yes"/>
			<point x="713" y="664" type="line"/>
			<point x="641" y="664" type="line"/>
			<point x="571" y="269" type="line" smooth="yes"/>
			<point x="545" y="129"/>
			<point x="486" y="55"/>
			<point x="385" y="55" type="curve" smooth="yes"/>
			<point x="286" y="55"/>
			<point x="257" y="115"/>
			<point x="257" y="179" type="curve" smooth="yes"/>
			<point x="257" y="219"/>
			<point x="264" y="254"/>
			<point x="272" y="301" type="curve" smooth="yes"/>
			<point x="337" y="664" type="line"/>
			<point x="205" y="664" type="line"/>
			<point x="187" y="563"/>
			<point x="169" y="464"/>
			<point x="151" y="363" type="curve" smooth="yes"/>
			<point x="140" y="303" type="line" smooth="yes"/>
			<point x="132" y="259"/>
			<point x="127" y="222"/>
		</contour>
		<contour>
			<point x="696" y="625" type="line"/>
			<point x="803" y="630"/>
			<point x="852" y="700"/>
			<point x="852" y="775" type="curve" smooth="yes"/>
			<point x="852" y="791"/>
			<point x="849" y="805"/>
			<point x="843" y="817" type="curve"/>
			<point x="836" y="823"/>
			<point x="823" y="827"/>
			<point x="806" y="827" type="curve" smooth="yes"/>
			<point x="771" y="827"/>
			<point x="747" y="799"/>
			<point x="747" y="768" type="curve" smooth="yes"/>
			<point x="747" y="729"/>
			<point x="762" y="726"/>
			<point x="762" y="699" type="curve" smooth="yes"/>
			<point x="762" y="678"/>
			<point x="743" y="664"/>
			<point x="696" y="664" type="curve"/>
		</contour>
		<contour>
			<point x="104" y="598" type="line"/>
			<point x="233" y="598" type="line"/>
			<point x="286" y="598" type="line"/>
			<point x="413" y="598" type="line"/>
			<point x="425" y="664" type="line"/>
			<point x="115" y="664" type="line"/>
		</contour>
		<contour>
			<point x="536" y="598" type="line"/>
			<point x="648" y="598" type="line"/>
			<point x="659" y="598" type="line"/>
			<point x="659" y="664" type="line"/>
			<point x="548" y="664" type="line"/>
		</contour>
	</outline>
	<anchor name="aboveUC" x="481" y="684"/>
	<anchor name="belowLC" x="358" y="-20"/>
</glyph>
<glyph name="uhorn" format="2">
	<unicode hex="01B0"/>
	<advance width="655"/>
	<outline>
		<contour>
			<point x="176" y="-13" type="curve" smooth="yes"/>
			<point x="267" y="-13"/>
			<point x="317" y="34"/>
			<point x="368" y="114" type="curve"/>
			<point x="404" y="114" type="line"/>
			<point x="405" y="178" type="line"/>
			<point x="337" y="113"/>
			<point x="301" y="83"/>
			<point x="254" y="83" type="curve" smooth="yes"/>
			<point x="224" y="83"/>
			<point x="208" y="99"/>
			<point x="208" y="125" type="curve" smooth="yes"/>
			<point x="208" y="149"/>
			<point x="215" y="175"/>
			<point x="223" y="207" type="curve" smooth="yes"/>
			<point x="295" y="511" type="line"/>
			<point x="247" y="521" type="line"/>
			<point x="61" y="464" type="line"/>
			<point x="49" y="410" type="line"/>
			<point x="191" y="410" type="line"/>
			<point x="150" y="447" type="line"/>
			<point x="88" y="189" type="line" smooth="yes"/>
			<point x="80" y="157"/>
			<point x="72" y="117"/>
			<point x="72" y="84" type="curve" smooth="yes"/>
			<point x="72" y="28"/>
			<point x="106" y="-13"/>
		</contour>
		<contour>
			<point x="483" y="-13" type="curve" smooth="yes"/>
			<point x="562" y="-13"/>
			<point x="610" y="41"/>
			<point x="649" y="114" type="curve"/>
			<point x="606" y="140" type="line"/>
			<point x="572" y="86"/>
			<point x="559" y="70"/>
			<point x="536" y="70" type="curve" smooth="yes"/>
			<point x="518" y="70"/>
			<point x="510" y="82"/>
			<point x="510" y="98" type="curve" smooth="yes"/>
			<point x="510" y="115"/>
			<point x="517" y="149"/>
			<point x="524" y="182" type="curve" smooth="yes"/>
			<point x="596" y="511" type="line"/>
			<point x="541" y="481" type="line"/>
			<point x="628" y="491"/>
			<point x="706" y="549"/>
			<point x="706" y="647" type="curve" smooth="yes"/>
			<point x="706" y="663"/>
			<point x="703" y="677"/>
			<point x="698" y="689" type="curve"/>
			<point x="689" y="695"/>
			<point x="680" y="699"/>
			<point x="660" y="699" type="curve" smooth="yes"/>
			<point x="625" y="699"/>
			<point x="602" y="669"/>
			<point x="602" y="635" type="curve" smooth="yes"/>
			<point x="602" y="602"/>
			<point x="617" y="592"/>
			<point x="617" y="568" type="curve" smooth="yes"/>
			<point x="617" y="537"/>
			<point x="582" y="522"/>
			<point x="541" y="517" type="curve" smooth="yes"/>
			<point x="464" y="507" type="line"/>
			<point x="451" y="446"/>
			<point x="439" y="387"/>
			<point x="426" y="325" type="curve" smooth="yes"/>
			<point x="385" y="134" type="line"/>
			<point x="393" y="134" type="line"/>
			<point x="391" y="121"/>
			<point x="385" y="99"/>
			<point x="385" y="76" type="curve" smooth="yes"/>
			<point x="385" y="16"/>
			<point x="413" y="-13"/>
		</contour>
	</outline>
	<anchor name="aboveLC" x="379" y="531"/>
	<anchor name="belowLC" x="313" y="-20"/>
</glyph>
<glyph name="dotlessj" format="2">
	<unicode hex="0237"/>
	<advance width="316"/>
	<outline>
		<contour>
			<point x="-49" y="-235" type="line"/>
			<point x="14" y="-220"/>
			<point x="62" y="-193"/>
			<point x="99" y="-156" type="curve" smooth="yes"/>
			<point x="137" y="-118"/>
			<point x="173" y="-70"/>
			<point x="196" y="48" type="curve" smooth="yes"/>
			<point x="286" y="511" type="line"/>
			<point x="237" y="521" type="line"/>
			<point x="51" y="463" type="line"/>
			<point x="39" y="407" type="line"/>
			<point x="172" y="407" type="line"/>
			<point x="147" y="450" type="line"/>
			<point x="72" y="36" type="line" smooth="yes"/>
			<point x="54" y="-63"/>
			<point x="28" y="-100"/>
			<point x="7" y="-127" type="curve" smooth="yes"/>
			<point x="-14" y="-153"/>
			<point x="-35" y="-177"/>
			<point x="-69" y="-188" type="curve"/>
		</contour>
	</outline>
	<anchor name="aboveLC" x="224" y="530"/>
	<anchor name="belowLC" x="34" y="-243"/>
</glyph>
<glyph name="schwa" format="2">
	<unicode hex="0259"/>
	<advance width="507"/>
	<outline>
		<contour>
			<point x="176" y="-12" type="curve" smooth="yes"/>
			<point x="337" y="-12"/>
			<point x="473" y="143"/>
			<point x="473" y="324" type="curve" smooth="yes"/>
			<point x="473" y="449"/>
			<point x="405" y="523"/>
			<point x="288" y="523" type="curve" smooth="yes"/>
			<point x="179" y="523"/>
			<point x="111" y="454"/>
			<point x="69" y="385" type="curve"/>
			<point x="113" y="351" type="line"/>
			<point x="153" y="398"/>
			<point x="186" y="434"/>
			<point x="248" y="434" type="curve" smooth="yes"/>
			<point x="311" y="434"/>
			<point x="350" y="398"/>
			<point x="350" y="305" type="curve" smooth="yes"/>
			<point x="350" y="175"/>
			<point x="267" y="46"/>
			<point x="193" y="46" type="curve" smooth="yes"/>
			<point x="161" y="46"/>
			<point x="147" y="64"/>
			<point x="147" y="93" type="curve" smooth="yes"/>
			<point x="147" y="157"/>
			<point x="206" y="237"/>
			<point x="402" y="281" type="curve"/>
			<point x="402" y="321" type="line"/>
			<point x="135" y="265"/>
			<point x="40" y="188"/>
			<point x="40" y="94" type="curve" smooth="yes"/>
			<point x="40" y="29"/>
			<point x="90" y="-12"/>
		</contour>
	</outline>
	<anchor name="aboveLC" x="300" y="531"/>
	<anchor name="belowLC" x="207" y="-20"/>
</glyph>
<glyph name="j.sups" format="2">
	<unicode hex="02B2"/>
	<advance width="243"/>
	<outline>
		<contour>
			<point x="247" y="818" type="curve" smooth="yes"/>
			<point x="285" y="818"/>
			<point x="309" y="848"/>
			<point x="309" y="879" type="curve" smooth="yes"/>
			<point x="309" y="909"/>
			<point x="288" y="929"/>
			<point x="256" y="929" type="curve" smooth="yes"/>
			<point x="218" y="929"/>
			<point x="193" y="898"/>
			<point x="193" y="867" type="curve" smooth="yes"/>
			<point x="193" y="838"/>
			<point x="215" y="818"/>
		</contour>
		<contour>
			<point x="37" y="266" type="line"/>
			<point x="89" y="277"/>
			<point x="128" y="294"/>
			<point x="157" y="322" type="curve" smooth="yes"/>
			<point x="186" y="351"/>
			<point x="209" y="388"/>
			<point x="224" y="462" type="curve" smooth="yes"/>
			<point x="284" y="765" type="line"/>
			<point x="240" y="772" type="line"/>
			<point x="104" y="730" type="line"/>
			<point x="96" y="690" type="line"/>
			<point x="192" y="690" type="line"/>
			<point x="165" y="715" type="line"/>
			<point x="116" y="443" type="line" smooth="yes"/>
			<point x="107" y="392"/>
			<point x="96" y="368"/>
			<point x="84" y="349" type="curve" smooth="yes"/>
			<point x="71" y="330"/>
			<point x="54" y="312"/>
			<point x="23" y="301" type="curve"/>
		</contour>
	</outline>
</glyph>
<glyph name="r.sups" format="2">
	<unicode hex="02B3"/>
	<advance width="361"/>
	<outline>
		<contour>
			<point x="240" y="544" type="line"/>
			<point x="285" y="643"/>
			<point x="304" y="679"/>
			<point x="318" y="701" type="curve"/>
			<point x="355" y="701" type="line"/>
			<point x="317" y="720" type="line"/>
			<point x="341" y="687"/>
			<point x="352" y="674"/>
			<point x="382" y="674" type="curve" smooth="yes"/>
			<point x="414" y="674"/>
			<point x="431" y="699"/>
			<point x="436" y="726" type="curve"/>
			<point x="431" y="750"/>
			<point x="412" y="772"/>
			<point x="372" y="772" type="curve" smooth="yes"/>
			<point x="323" y="772"/>
			<point x="295" y="730"/>
			<point x="267" y="645" type="curve"/>
			<point x="239" y="645" type="line"/>
		</contour>
		<contour>
			<point x="113" y="422" type="line"/>
			<point x="142" y="413" type="line"/>
			<point x="223" y="422" type="line"/>
			<point x="270" y="641" type="line"/>
			<point x="250" y="641" type="line"/>
			<point x="273" y="765" type="line"/>
			<point x="249" y="772" type="line"/>
			<point x="118" y="730" type="line"/>
			<point x="110" y="690" type="line"/>
			<point x="205" y="690" type="line"/>
			<point x="178" y="713" type="line"/>
		</contour>
	</outline>
</glyph>
<glyph name="w.sups" format="2">
	<unicode hex="02B7"/>
	<advance width="604"/>
	<outline>
		<contour>
			<point x="194" y="416" type="curve"/>
			<point x="297" y="421" type="line"/>
			<point x="323" y="474"/>
			<point x="350" y="537"/>
			<point x="373" y="601" type="curve"/>
			<point x="388" y="667" type="line"/>
			<point x="395" y="667" type="line"/>
			<point x="398" y="585"/>
			<point x="406" y="489"/>
			<point x="413" y="415" type="curve"/>
			<point x="491" y="421" type="line"/>
			<point x="542" y="483"/>
			<point x="610" y="576"/>
			<point x="632" y="620" type="curve" smooth="yes"/>
			<point x="654" y="661"/>
			<point x="667" y="701"/>
			<point x="667" y="733" type="curve" smooth="yes"/>
			<point x="667" y="750"/>
			<point x="663" y="762"/>
			<point x="659" y="768" type="curve"/>
			<point x="651" y="772"/>
			<point x="640" y="775"/>
			<point x="623" y="775" type="curve" smooth="yes"/>
			<point x="588" y="775"/>
			<point x="567" y="749"/>
			<point x="567" y="715" type="curve" smooth="yes"/>
			<point x="567" y="689"/>
			<point x="576" y="671"/>
			<point x="605" y="611" type="curve"/>
			<point x="618" y="695" type="line"/>
			<point x="610" y="676"/>
			<point x="603" y="657"/>
			<point x="594" y="639" type="curve" smooth="yes"/>
			<point x="573" y="597"/>
			<point x="556" y="562"/>
			<point x="528" y="520" type="curve"/>
			<point x="505" y="468" type="line"/>
			<point x="497" y="468" type="line"/>
			<point x="491" y="565"/>
			<point x="481" y="673"/>
			<point x="475" y="759" type="curve"/>
			<point x="395" y="759" type="line"/>
			<point x="367" y="679"/>
			<point x="339" y="596"/>
			<point x="306" y="517" type="curve"/>
			<point x="289" y="468" type="line"/>
			<point x="281" y="468" type="line"/>
			<point x="282" y="550"/>
			<point x="277" y="639"/>
			<point x="271" y="704" type="curve" smooth="yes"/>
			<point x="268" y="757"/>
			<point x="248" y="775"/>
			<point x="202" y="775" type="curve" smooth="yes"/>
			<point x="154" y="775"/>
			<point x="125" y="749"/>
			<point x="88" y="695" type="curve"/>
			<point x="112" y="671" type="line"/>
			<point x="128" y="690"/>
			<point x="138" y="702"/>
			<point x="149" y="702" type="curve" smooth="yes"/>
			<point x="159" y="702"/>
			<point x="167" y="695"/>
			<point x="170" y="672" type="curve" smooth="yes"/>
			<point x="177" y="611"/>
			<point x="187" y="511"/>
		</contour>
	</outline>
</glyph>
<glyph name="y.sups" format="2">
	<unicode hex="02B8"/>
	<advance width="420"/>
	<outline>
		<contour>
			<point x="17" y="315" type="curve"/>
			<point x="24" y="286"/>
			<point x="43" y="266"/>
			<point x="97" y="266" type="curve" smooth="yes"/>
			<point x="160" y="266"/>
			<point x="199" y="298"/>
			<point x="227" y="330" type="curve" smooth="yes"/>
			<point x="255" y="360"/>
			<point x="280" y="389"/>
			<point x="308" y="429" type="curve" smooth="yes"/>
			<point x="338" y="471"/>
			<point x="372" y="523"/>
			<point x="395" y="560" type="curve" smooth="yes"/>
			<point x="418" y="595"/>
			<point x="437" y="629"/>
			<point x="455" y="664" type="curve" smooth="yes"/>
			<point x="469" y="691"/>
			<point x="482" y="716"/>
			<point x="482" y="737" type="curve" smooth="yes"/>
			<point x="482" y="761"/>
			<point x="466" y="775"/>
			<point x="440" y="775" type="curve" smooth="yes"/>
			<point x="408" y="775"/>
			<point x="392" y="756"/>
			<point x="378" y="693" type="curve" smooth="yes"/>
			<point x="358" y="612"/>
			<point x="336" y="538"/>
			<point x="302" y="450" type="curve"/>
			<point x="279" y="427"/>
			<point x="253" y="400"/>
			<point x="228" y="373" type="curve" smooth="yes"/>
			<point x="204" y="347"/>
			<point x="173" y="317"/>
			<point x="150" y="296" type="curve"/>
			<point x="169" y="304" type="line"/>
			<point x="113" y="304" type="line"/>
			<point x="139" y="296" type="line"/>
			<point x="119" y="339"/>
			<point x="103" y="358"/>
			<point x="70" y="358" type="curve" smooth="yes"/>
			<point x="38" y="358"/>
			<point x="22" y="337"/>
		</contour>
		<contour>
			<point x="289" y="456" type="line"/>
			<point x="284" y="535"/>
			<point x="278" y="628"/>
			<point x="272" y="696" type="curve" smooth="yes"/>
			<point x="266" y="751"/>
			<point x="246" y="773"/>
			<point x="201" y="773" type="curve" smooth="yes"/>
			<point x="154" y="773"/>
			<point x="124" y="748"/>
			<point x="88" y="694" type="curve"/>
			<point x="113" y="671" type="line"/>
			<point x="126" y="689"/>
			<point x="138" y="700"/>
			<point x="149" y="700" type="curve" smooth="yes"/>
			<point x="160" y="700"/>
			<point x="167" y="694"/>
			<point x="173" y="654" type="curve" smooth="yes"/>
			<point x="186" y="585"/>
			<point x="206" y="465"/>
			<point x="216" y="341" type="curve"/>
			<point x="322" y="456" type="line"/>
		</contour>
	</outline>
</glyph>
<glyph name="ringhalfleftmod" format="2">
	<unicode hex="02BF"/>
	<advance width="250"/>
	<outline>
		<contour>
			<point x="250" y="495" type="curve"/>
			<point x="260" y="546" type="line"/>
			<point x="225" y="550"/>
			<point x="203" y="567"/>
			<point x="203" y="601" type="curve" smooth="yes"/>
			<point x="203" y="646"/>
			<point x="231" y="678"/>
			<point x="280" y="682" type="curve"/>
			<point x="291" y="733" type="line"/>
			<point x="191" y="731"/>
			<point x="136" y="673"/>
			<point x="136" y="599" type="curve" smooth="yes"/>
			<point x="136" y="538"/>
			<point x="181" y="497"/>
		</contour>
	</outline>
</glyph>
<glyph name="verticallinemod" format="2">
	<unicode hex="02C8"/>
	<advance width="270"/>
	<outline>
		<contour>
			<point x="156" y="529" type="line"/>
			<point x="238" y="529" type="line"/>
			<point x="291" y="728" type="line"/>
			<point x="183" y="728" type="line"/>
		</contour>
	</outline>
</glyph>
<glyph name="l.sups" format="2">
	<unicode hex="02E1"/>
	<advance width="256"/>
	<outline>
		<contour>
			<point x="206" y="396" type="curve" smooth="yes"/>
			<point x="262" y="396"/>
			<point x="299" y="426"/>
			<point x="332" y="485" type="curve"/>
			<point x="301" y="503" type="line"/>
			<point x="281" y="470"/>
			<point x="274" y="460"/>
			<point x="259" y="460" type="curve" smooth="yes"/>
			<point x="237" y="460"/>
			<point x="239" y="478"/>
			<point x="249" y="524" type="curve" smooth="yes"/>
			<point x="327" y="884" type="line"/>
			<point x="290" y="887" type="line"/>
			<point x="151" y="865" type="line"/>
			<point x="143" y="825" type="line"/>
			<point x="243" y="815" type="line"/>
			<point x="209" y="833" type="line"/>
			<point x="142" y="530" type="line" smooth="yes"/>
			<point x="137" y="507"/>
			<point x="131" y="487"/>
			<point x="131" y="461" type="curve" smooth="yes"/>
			<point x="131" y="421"/>
			<point x="152" y="396"/>
		</contour>
	</outline>
</glyph>
<glyph name="gravecmb" format="2">
	<unicode hex="0300"/>
	<outline>
		<contour>
			<point x="103" y="582" type="line"/>
			<point x="86" y="632"/>
			<point x="70" y="674"/>
			<point x="52" y="723" type="curve" smooth="yes"/>
			<point x="38" y="766"/>
			<point x="17" y="786"/>
			<point x="-15" y="786" type="curve" smooth="yes"/>
			<point x="-44" y="786"/>
			<point x="-66" y="769"/>
			<point x="-66" y="737" type="curve" smooth="yes"/>
			<point x="-66" y="713"/>
			<point x="-53" y="696"/>
			<point x="-29" y="663" type="curve" smooth="yes"/>
			<point x="-2" y="625"/>
			<point x="24" y="594"/>
			<point x="51" y="556" type="curve"/>
		</contour>
	</outline>
	<anchor name="_aboveLC" x="68" y="531"/>
	<anchor name="aboveLC" x="123" y="786"/>
</glyph>
<glyph name="acutecmb" format="2">
	<unicode hex="0301"/>
	<outline>
		<contour>
			<point x="49" y="582" type="curve"/>
			<point x="99" y="554" type="line"/>
			<point x="131" y="592"/>
			<point x="162" y="631"/>
			<point x="194" y="669" type="curve" smooth="yes"/>
			<point x="221" y="701"/>
			<point x="230" y="717"/>
			<point x="230" y="741" type="curve" smooth="yes"/>
			<point x="230" y="768"/>
			<point x="209" y="786"/>
			<point x="180" y="786" type="curve" smooth="yes"/>
			<point x="152" y="786"/>
			<point x="133" y="766"/>
			<point x="113" y="722" type="curve" smooth="yes"/>
			<point x="92" y="675"/>
			<point x="70" y="629"/>
		</contour>
	</outline>
	<anchor name="_aboveLC" x="68" y="531"/>
	<anchor name="aboveLC" x="123" y="786"/>
</glyph>
<glyph name="circumflexcmb" format="2">
	<unicode hex="0302"/>
	<outline>
		<contour>
			<point x="207" y="570" type="line"/>
			<point x="247" y="601" type="line"/>
			<point x="144" y="776" type="line"/>
			<point x="86" y="776" type="line"/>
			<point x="-75" y="605" type="line"/>
			<point x="-43" y="570" type="line"/>
			<point x="139" y="716" type="line"/>
			<point x="75" y="716" type="line"/>
		</contour>
	</outline>
	<anchor name="_aboveLC" x="68" y="531"/>
	<anchor name="aboveLC" x="121" y="776"/>
</glyph>
<glyph name="macroncmb" format="2">
	<unicode hex="0304"/>
	<outline>
		<contour>
			<point x="-42" y="624" type="line"/>
			<point x="219" y="624" type="line"/>
			<point x="234" y="697" type="line"/>
			<point x="-27" y="697" type="line"/>
		</contour>
	</outline>
	<anchor name="_aboveLC" x="68" y="531"/>
	<anchor name="aboveLC" x="104" y="697"/>
</glyph>
<glyph name="dotaccentcmb" format="2">
	<unicode hex="0307"/>
	<outline>
		<contour>
			<point x="92" y="607" type="curve" smooth="yes"/>
			<point x="141" y="607"/>
			<point x="174" y="647"/>
			<point x="174" y="688" type="curve" smooth="yes"/>
			<point x="174" y="726"/>
			<point x="146" y="753"/>
			<point x="105" y="753" type="curve" smooth="yes"/>
			<point x="56" y="753"/>
			<point x="24" y="713"/>
			<point x="24" y="671" type="curve" smooth="yes"/>
			<point x="24" y="634"/>
			<point x="51" y="607"/>
		</contour>
	</outline>
	<anchor name="_aboveLC" x="68" y="531"/>
	<anchor name="aboveLC" x="116" y="753"/>
</glyph>
<glyph name="dieresiscmb" format="2">
	<unicode hex="0308"/>
	<outline>
		<contour>
			<point x="-17" y="615" type="curve" smooth="yes"/>
			<point x="26" y="615"/>
			<point x="56" y="651"/>
			<point x="56" y="688" type="curve" smooth="yes"/>
			<point x="56" y="721"/>
			<point x="31" y="746"/>
			<point x="-5" y="746" type="curve" smooth="yes"/>
			<point x="-49" y="746"/>
			<point x="-77" y="709"/>
			<point x="-77" y="673" type="curve" smooth="yes"/>
			<point x="-77" y="640"/>
			<point x="-53" y="615"/>
		</contour>
		<contour>
			<point x="195" y="615" type="curve" smooth="yes"/>
			<point x="238" y="615"/>
			<point x="267" y="651"/>
			<point x="267" y="688" type="curve" smooth="yes"/>
			<point x="267" y="721"/>
			<point x="243" y="746"/>
			<point x="206" y="746" type="curve" smooth="yes"/>
			<point x="162" y="746"/>
			<point x="134" y="709"/>
			<point x="134" y="673" type="curve" smooth="yes"/>
			<point x="134" y="640"/>
			<point x="159" y="615"/>
		</contour>
	</outline>
	<anchor name="_aboveLC" x="68" y="531"/>
	<anchor name="aboveLC" x="115" y="746"/>
</glyph>
<glyph name="hoicmb" format="2">
	<unicode hex="0309"/>
	<outline>
		<contour>
			<point x="65" y="567" type="line"/>
			<point x="135" y="581"/>
			<point x="183" y="612"/>
			<point x="183" y="677" type="curve" smooth="yes"/>
			<point x="183" y="743"/>
			<point x="135" y="778"/>
			<point x="53" y="786" type="curve"/>
			<point x="32" y="702" type="line"/>
			<point x="94" y="697"/>
			<point x="116" y="682"/>
			<point x="116" y="656" type="curve" smooth="yes"/>
			<point x="116" y="630"/>
			<point x="97" y="616"/>
			<point x="55" y="609" type="curve"/>
		</contour>
	</outline>
	<anchor name="_aboveLC" x="68" y="531"/>
	<anchor name="aboveLC" x="123" y="786"/>
</glyph>
<glyph name="hungarumlautcmb" format="2">
	<unicode hex="030B"/>
	<outline>
		<contour>
			<point x="-52" y="601" type="line"/>
			<point x="-9" y="571" type="line"/>
			<point x="96" y="680" type="line" smooth="yes"/>
			<point x="125" y="711"/>
			<point x="137" y="728"/>
			<point x="137" y="751" type="curve" smooth="yes"/>
			<point x="137" y="774"/>
			<point x="120" y="789"/>
			<point x="95" y="789" type="curve" smooth="yes"/>
			<point x="70" y="789"/>
			<point x="53" y="772"/>
			<point x="27" y="729" type="curve" smooth="yes"/>
		</contour>
		<contour>
			<point x="118" y="601" type="line"/>
			<point x="161" y="571" type="line"/>
			<point x="265" y="680" type="line" smooth="yes"/>
			<point x="295" y="711"/>
			<point x="307" y="728"/>
			<point x="307" y="751" type="curve" smooth="yes"/>
			<point x="307" y="774"/>
			<point x="290" y="789"/>
			<point x="265" y="789" type="curve" smooth="yes"/>
			<point x="240" y="789"/>
			<point x="223" y="772"/>
			<point x="197" y="729" type="curve" smooth="yes"/>
		</contour>
	</outline>
	<anchor name="_aboveLC" x="68" y="531"/>
	<anchor name="aboveLC" x="123" y="789"/>
</glyph>
<glyph name="horncmb" format="2">
	<unicode hex="031B"/>
	<outline>
		<contour>
			<point x="64" y="511" type="line"/>
			<point x="152" y="521"/>
			<point x="227" y="590"/>
			<point x="227" y="702" type="curve" smooth="yes"/>
			<point x="227" y="715"/>
			<point x="224" y="729"/>
			<point x="218" y="741" type="curve"/>
			<point x="209" y="747"/>
			<point x="200" y="750"/>
			<point x="180" y="750" type="curve" smooth="yes"/>
			<point x="145" y="750"/>
			<point x="122" y="721"/>
			<point x="122" y="687" type="curve" smooth="yes"/>
			<point x="122" y="654"/>
			<point x="137" y="643"/>
			<point x="137" y="614" type="curve" smooth="yes"/>
			<point x="137" y="579"/>
			<point x="107" y="551"/>
			<point x="64" y="547" type="curve"/>
		</contour>
	</outline>
	<anchor name="_hornLC" x="64" y="511"/>
</glyph>
<glyph name="commabelowcmb" format="2">
	<unicode hex="0326"/>
	<outline>
		<contour>
			<point x="-3" y="-125" type="curve" smooth="yes"/>
			<point x="-3" y="-99"/>
			<point x="-8" y="-79"/>
			<point x="-16" y="-65" type="curve"/>
			<point x="-22" y="-61"/>
			<point x="-37" y="-57"/>
			<point x="-56" y="-57" type="curve" smooth="yes"/>
			<point x="-96" y="-57"/>
			<point x="-123" y="-83"/>
			<point x="-123" y="-118" type="curve" smooth="yes"/>
			<point x="-123" y="-152"/>
			<point x="-96" y="-176"/>
			<point x="-58" y="-192" type="curve"/>
			<point x="-58" y="-160" type="line"/>
			<point x="-82" y="-195"/>
			<point x="-115" y="-213"/>
			<point x="-165" y="-232" type="curve"/>
			<point x="-144" y="-274" type="line"/>
			<point x="-58" y="-250"/>
			<point x="-3" y="-203"/>
		</contour>
	</outline>
	<anchor name="_belowLC" x="-48" y="-20"/>
	<anchor name="belowLC" x="-102" y="-274"/>
</glyph>
<glyph name="cedillacmb" format="2">
	<unicode hex="0327"/>
	<outline>
		<contour>
			<point x="-101" y="-87" type="line"/>
			<point x="-45" y="-96"/>
			<point x="-25" y="-110"/>
			<point x="-25" y="-139" type="curve" smooth="yes"/>
			<point x="-25" y="-168"/>
			<point x="-47" y="-186"/>
			<point x="-82" y="-186" type="curve" smooth="yes"/>
			<point x="-107" y="-186"/>
			<point x="-126" y="-179"/>
			<point x="-138" y="-173" type="curve"/>
			<point x="-158" y="-217" type="line"/>
			<point x="-146" y="-223"/>
			<point x="-115" y="-233"/>
			<point x="-76" y="-233" type="curve" smooth="yes"/>
			<point x="6" y="-233"/>
			<point x="55" y="-194"/>
			<point x="55" y="-138" type="curve" smooth="yes"/>
			<point x="55" y="-84"/>
			<point x="9" y="-65"/>
			<point x="-63" y="-55" type="curve"/>
			<point x="-52" y="-84" type="line"/>
			<point x="-16" y="0" type="line"/>
			<point x="-62" y="0" type="line"/>
		</contour>
	</outline>
	<anchor name="_baseLC" x="-44" y="0"/>
</glyph>
<glyph name="Delta" format="2">
	<unicode hex="0394"/>
	<unicode hex="2206"/>
	<advance width="621"/>
	<outline>
		<contour>
			<point x="8" y="0" type="line"/>
			<point x="550" y="0" type="line"/>
			<point x="565" y="73" type="line"/>
			<point x="461" y="664" type="line"/>
			<point x="336" y="664" type="line"/>
			<point x="21" y="73" type="line"/>
		</contour>
		<contour>
			<point x="80" y="56" type="line"/>
			<point x="274" y="427" type="line"/>
			<point x="334" y="586" type="line"/>
			<point x="350" y="586" type="line"/>
			<point x="437" y="55" type="line"/>
			<point x="460" y="81" type="line"/>
			<point x="62" y="81" type="line"/>
		</contour>
	</outline>
</glyph>
<glyph name="Theta" format="2">
	<unicode hex="0398"/>
	<advance width="705"/>
	<outline>
		<contour>
			<point x="253" y="243" type="line"/>
			<point x="306" y="243" type="line"/>
			<point x="345" y="323" type="line"/>
			<point x="347" y="342" type="line"/>
			<point x="339" y="422" type="line"/>
			<point x="286" y="422" type="line"/>
		</contour>
		<contour>
			<point x="424" y="243" type="line"/>
			<point x="478" y="243" type="line"/>
			<point x="511" y="422" type="line"/>
			<point x="458" y="422" type="line"/>
			<point x="418" y="342" type="line"/>
			<point x="417" y="323" type="line"/>
		</contour>
		<contour>
			<point x="328" y="-16" type="curve" smooth="yes"/>
			<point x="545" y="-16"/>
			<point x="698" y="196"/>
			<point x="698" y="413" type="curve" smooth="yes"/>
			<point x="698" y="591"/>
			<point x="590" y="680"/>
			<point x="437" y="680" type="curve" smooth="yes"/>
			<point x="220" y="680"/>
			<point x="66" y="469"/>
			<point x="66" y="252" type="curve" smooth="yes"/>
			<point x="66" y="74"/>
			<point x="174" y="-16"/>
		</contour>
		<contour>
			<point x="334" y="50" type="curve" smooth="yes"/>
			<point x="247" y="50"/>
			<point x="199" y="104"/>
			<point x="199" y="236" type="curve" smooth="yes"/>
			<point x="199" y="423"/>
			<point x="294" y="614"/>
			<point x="431" y="614" type="curve" smooth="yes"/>
			<point x="517" y="614"/>
			<point x="566" y="561"/>
			<point x="566" y="429" type="curve" smooth="yes"/>
			<point x="566" y="242"/>
			<point x="470" y="50"/>
		</contour>
		<contour>
			<point x="303" y="300" type="line"/>
			<point x="460" y="300" type="line"/>
			<point x="460" y="365" type="line"/>
			<point x="303" y="365" type="line"/>
		</contour>
	</outline>
</glyph>
<glyph name="Lambda" format="2">
	<unicode hex="039B"/>
	<advance width="709"/>
	<outline>
		<contour>
			<point x="-15" y="0" type="line"/>
			<point x="215" y="0" type="line"/>
			<point x="226" y="66" type="line"/>
			<point x="124" y="66" type="line"/>
			<point x="91" y="66" type="line"/>
			<point x="-4" y="66" type="line"/>
		</contour>
		<contour>
			<point x="32" y="0" type="line"/>
			<point x="110" y="0" type="line"/>
			<point x="331" y="425" type="line"/>
			<point x="385" y="576" type="line"/>
			<point x="397" y="576" type="line"/>
			<point x="469" y="0" type="line"/>
			<point x="607" y="0" type="line"/>
			<point x="506" y="664" type="line"/>
			<point x="393" y="664" type="line"/>
		</contour>
		<contour>
			<point x="363" y="0" type="line"/>
			<point x="662" y="0" type="line"/>
			<point x="673" y="66" type="line"/>
			<point x="565" y="66" type="line"/>
			<point x="490" y="66" type="line"/>
			<point x="374" y="66" type="line"/>
		</contour>
	</outline>
</glyph>
<glyph name="Xi" format="2">
	<unicode hex="039E"/>
	<advance width="632"/>
	<outline>
		<contour>
			<point x="25" y="0" type="line"/>
			<point x="553" y="0" type="line"/>
			<point x="593" y="186" type="line"/>
			<point x="524" y="186" type="line"/>
			<point x="445" y="22" type="line"/>
			<point x="527" y="92" type="line"/>
			<point x="88" y="92" type="line"/>
			<point x="129" y="30" type="line"/>
			<point x="123" y="186" type="line"/>
			<point x="53" y="186" type="line"/>
		</contour>
		<contour>
			<point x="107" y="479" type="line"/>
			<point x="176" y="479" type="line"/>
			<point x="255" y="642" type="line"/>
			<point x="173" y="577" type="line"/>
			<point x="591" y="577" type="line"/>
			<point x="550" y="633" type="line"/>
			<point x="556" y="479" type="line"/>
			<point x="626" y="479" type="line"/>
			<point x="654" y="664" type="line"/>
			<point x="147" y="664" type="line"/>
		</contour>
		<contour>
			<point x="173" y="239" type="line"/>
			<point x="234" y="239" type="line"/>
			<point x="269" y="326" type="line"/>
			<point x="270" y="350" type="line"/>
			<point x="270" y="438" type="line"/>
			<point x="208" y="438" type="line"/>
		</contour>
		<contour>
			<point x="425" y="239" type="line"/>
			<point x="487" y="239" type="line"/>
			<point x="522" y="438" type="line"/>
			<point x="461" y="438" type="line"/>
			<point x="426" y="350" type="line"/>
			<point x="425" y="326" type="line"/>
		</contour>
		<contour>
			<point x="241" y="305" type="line"/>
			<point x="463" y="305" type="line"/>
			<point x="463" y="371" type="line"/>
			<point x="241" y="371" type="line"/>
		</contour>
	</outline>
</glyph>
<glyph name="Sigma" format="2">
	<unicode hex="03A3"/>
	<advance width="609"/>
	<outline>
		<contour>
			<point x="15" y="0" type="line"/>
			<point x="521" y="0" type="line"/>
			<point x="563" y="228" type="line"/>
			<point x="494" y="228" type="line"/>
			<point x="417" y="22" type="line"/>
			<point x="496" y="97" type="line"/>
			<point x="136" y="90" type="line"/>
			<point x="136" y="112" type="line"/>
			<point x="398" y="356" type="line"/>
			<point x="265" y="585" type="line"/>
			<point x="265" y="664" type="line"/>
			<point x="116" y="664" type="line"/>
			<point x="107" y="607" type="line"/>
			<point x="301" y="299" type="line"/>
			<point x="301" y="337" type="line"/>
			<point x="32" y="86" type="line"/>
		</contour>
		<contour>
			<point x="507" y="474" type="line"/>
			<point x="577" y="474" type="line"/>
			<point x="609" y="664" type="line"/>
			<point x="190" y="664" type="line"/>
			<point x="190" y="605" type="line"/>
			<point x="547" y="599" type="line"/>
			<point x="507" y="633" type="line"/>
		</contour>
	</outline>
</glyph>
<glyph name="Phi" format="2">
	<unicode hex="03A6"/>
	<advance width="723"/>
	<outline>
		<contour>
			<point x="307" y="139" type="curve"/>
			<point x="307" y="199" type="line"/>
			<point x="211" y="199"/>
			<point x="170" y="238"/>
			<point x="170" y="308" type="curve" smooth="yes"/>
			<point x="170" y="395"/>
			<point x="227" y="479"/>
			<point x="366" y="479" type="curve"/>
			<point x="366" y="538" type="line"/>
			<point x="163" y="538"/>
			<point x="38" y="445"/>
			<point x="38" y="311" type="curve" smooth="yes"/>
			<point x="38" y="203"/>
			<point x="121" y="139"/>
		</contour>
		<contour>
			<point x="180" y="0" type="line"/>
			<point x="485" y="0" type="line"/>
			<point x="497" y="66" type="line"/>
			<point x="367" y="66" type="line"/>
			<point x="315" y="66" type="line"/>
			<point x="191" y="66" type="line"/>
		</contour>
		<contour>
			<point x="264" y="0" type="line"/>
			<point x="395" y="0" type="line"/>
			<point x="414" y="101"/>
			<point x="432" y="201"/>
			<point x="451" y="302" type="curve" smooth="yes"/>
			<point x="518" y="673" type="line"/>
			<point x="386" y="673" type="line"/>
			<point x="368" y="572"/>
			<point x="348" y="464"/>
			<point x="330" y="363" type="curve" smooth="yes"/>
		</contour>
		<contour>
			<point x="285" y="607" type="line"/>
			<point x="415" y="607" type="line"/>
			<point x="467" y="607" type="line"/>
			<point x="590" y="607" type="line"/>
			<point x="602" y="673" type="line"/>
			<point x="297" y="673" type="line"/>
		</contour>
		<contour>
			<point x="415" y="139" type="line"/>
			<point x="617" y="139"/>
			<point x="742" y="233"/>
			<point x="742" y="368" type="curve" smooth="yes"/>
			<point x="742" y="476"/>
			<point x="659" y="538"/>
			<point x="473" y="538" type="curve"/>
			<point x="473" y="479" type="line"/>
			<point x="569" y="479"/>
			<point x="610" y="441"/>
			<point x="610" y="370" type="curve" smooth="yes"/>
			<point x="610" y="283"/>
			<point x="553" y="199"/>
			<point x="415" y="199" type="curve"/>
		</contour>
	</outline>
</glyph>
<glyph name="Psi" format="2">
	<unicode hex="03A8"/>
	<advance width="805"/>
	<outline>
		<contour>
			<point x="393" y="219" type="curve"/>
			<point x="393" y="274" type="line"/>
			<point x="299" y="277"/>
			<point x="273" y="301"/>
			<point x="267" y="402" type="curve" smooth="yes"/>
			<point x="260" y="532" type="line" smooth="yes"/>
			<point x="256" y="617"/>
			<point x="227" y="665"/>
			<point x="115" y="665" type="curve" smooth="yes"/>
			<point x="86" y="665" type="line"/>
			<point x="75" y="604" type="line"/>
			<point x="89" y="602" type="line" smooth="yes"/>
			<point x="121" y="597"/>
			<point x="136" y="581"/>
			<point x="139" y="534" type="curve" smooth="yes"/>
			<point x="149" y="408" type="line" smooth="yes"/>
			<point x="159" y="271"/>
			<point x="231" y="219"/>
		</contour>
		<contour>
			<point x="440" y="219" type="line"/>
			<point x="629" y="219"/>
			<point x="708" y="273"/>
			<point x="757" y="411" type="curve" smooth="yes"/>
			<point x="802" y="541" type="line" smooth="yes"/>
			<point x="817" y="584"/>
			<point x="832" y="599"/>
			<point x="863" y="602" type="curve" smooth="yes"/>
			<point x="880" y="604" type="line"/>
			<point x="891" y="666" type="line"/>
			<point x="847" y="666" type="line" smooth="yes"/>
			<point x="748" y="666"/>
			<point x="705" y="627"/>
			<point x="678" y="540" type="curve" smooth="yes"/>
			<point x="638" y="413" type="line" smooth="yes"/>
			<point x="603" y="309"/>
			<point x="570" y="274"/>
			<point x="440" y="274" type="curve"/>
		</contour>
		<contour>
			<point x="224" y="0" type="line"/>
			<point x="526" y="0" type="line"/>
			<point x="537" y="66" type="line"/>
			<point x="408" y="66" type="line"/>
			<point x="358" y="66" type="line"/>
			<point x="235" y="66" type="line"/>
		</contour>
		<contour>
			<point x="307" y="0" type="line"/>
			<point x="436" y="0" type="line"/>
			<point x="454" y="101"/>
			<point x="472" y="201"/>
			<point x="491" y="302" type="curve" smooth="yes"/>
			<point x="554" y="664" type="line"/>
			<point x="425" y="664" type="line"/>
			<point x="408" y="563"/>
			<point x="390" y="464"/>
			<point x="373" y="363" type="curve" smooth="yes"/>
		</contour>
		<contour>
			<point x="329" y="598" type="line"/>
			<point x="453" y="598" type="line"/>
			<point x="502" y="598" type="line"/>
			<point x="620" y="598" type="line"/>
			<point x="632" y="664" type="line"/>
			<point x="340" y="664" type="line"/>
		</contour>
	</outline>
</glyph>
<glyph name="Omega" format="2">
	<unicode hex="03A9"/>
	<unicode hex="2126"/>
	<advance width="720"/>
	<outline>
		<contour>
			<point x="20" y="0" type="line"/>
			<point x="286" y="0" type="line"/>
			<point x="307" y="147" type="line"/>
			<point x="247" y="177"/>
			<point x="210" y="238"/>
			<point x="210" y="338" type="curve" smooth="yes"/>
			<point x="210" y="501"/>
			<point x="289" y="617"/>
			<point x="410" y="617" type="curve" smooth="yes"/>
			<point x="501" y="617"/>
			<point x="559" y="549"/>
			<point x="559" y="433" type="curve" smooth="yes"/>
			<point x="559" y="300"/>
			<point x="493" y="185"/>
			<point x="399" y="147" type="curve"/>
			<point x="378" y="0" type="line"/>
			<point x="650" y="0" type="line"/>
			<point x="689" y="170" type="line"/>
			<point x="622" y="170" type="line"/>
			<point x="558" y="22" type="line"/>
			<point x="625" y="78" type="line"/>
			<point x="412" y="78" type="line"/>
			<point x="442" y="33" type="line"/>
			<point x="456" y="115" type="line"/>
			<point x="580" y="158"/>
			<point x="687" y="262"/>
			<point x="687" y="432" type="curve" smooth="yes"/>
			<point x="687" y="581"/>
			<point x="574" y="680"/>
			<point x="412" y="680" type="curve" smooth="yes"/>
			<point x="216" y="680"/>
			<point x="81" y="541"/>
			<point x="81" y="350" type="curve" smooth="yes"/>
			<point x="81" y="214"/>
			<point x="158" y="150"/>
			<point x="243" y="115" type="curve"/>
			<point x="230" y="33" type="line"/>
			<point x="265" y="78" type="line"/>
			<point x="83" y="78" type="line"/>
			<point x="115" y="30" type="line"/>
			<point x="87" y="170" type="line"/>
			<point x="23" y="170" type="line"/>
		</contour>
	</outline>
</glyph>
<glyph name="beta" format="2">
	<unicode hex="03B2"/>
	<advance width="601"/>
	<outline>
		<contour>
			<point x="33" y="-191" type="line"/>
			<point x="133" y="-174" type="line"/>
			<point x="166" y="88" type="line"/>
			<point x="184" y="88" type="line"/>
			<point x="254" y="495" type="line" smooth="yes"/>
			<point x="279" y="643"/>
			<point x="319" y="679"/>
			<point x="382" y="679" type="curve" smooth="yes"/>
			<point x="434" y="679"/>
			<point x="463" y="649"/>
			<point x="463" y="581" type="curve" smooth="yes"/>
			<point x="463" y="488"/>
			<point x="414" y="428"/>
			<point x="295" y="401" type="curve"/>
			<point x="303" y="347" type="line"/>
			<point x="390" y="344"/>
			<point x="434" y="294"/>
			<point x="434" y="215" type="curve" smooth="yes"/>
			<point x="434" y="119"/>
			<point x="382" y="60"/>
			<point x="297" y="60" type="curve" smooth="yes"/>
			<point x="242" y="60"/>
			<point x="199" y="91"/>
			<point x="181" y="120" type="curve"/>
			<point x="169" y="104" type="line"/>
			<point x="189" y="50"/>
			<point x="237" y="-12"/>
			<point x="336" y="-12" type="curve" smooth="yes"/>
			<point x="464" y="-12"/>
			<point x="560" y="76"/>
			<point x="560" y="209" type="curve" smooth="yes"/>
			<point x="560" y="319"/>
			<point x="471" y="377"/>
			<point x="357" y="377" type="curve"/>
			<point x="356" y="393" type="line"/>
			<point x="482" y="414"/>
			<point x="581" y="457"/>
			<point x="581" y="580" type="curve" smooth="yes"/>
			<point x="581" y="674"/>
			<point x="509" y="735"/>
			<point x="390" y="735" type="curve" smooth="yes"/>
			<point x="262" y="735"/>
			<point x="170" y="676"/>
			<point x="133" y="483" type="curve" smooth="yes"/>
			<point x="65" y="126" type="line"/>
			<point x="0" y="-174" type="line"/>
		</contour>
	</outline>
</glyph>
<glyph name="gamma" format="2">
	<unicode hex="03B3"/>
	<advance width="548"/>
	<outline>
		<contour>
			<point x="138" y="-193" type="line"/>
			<point x="252" y="-172" type="line"/>
			<point x="280" y="33" type="line"/>
			<point x="174" y="33" type="line"/>
			<point x="109" y="-172" type="line"/>
		</contour>
		<contour>
			<point x="166" y="-6" type="curve"/>
			<point x="272" y="-3" type="line"/>
			<point x="356" y="90"/>
			<point x="450" y="221"/>
			<point x="486" y="292" type="curve" smooth="yes"/>
			<point x="520" y="359"/>
			<point x="541" y="417"/>
			<point x="540" y="470" type="curve" smooth="yes"/>
			<point x="540" y="491"/>
			<point x="537" y="505"/>
			<point x="534" y="515" type="curve"/>
			<point x="525" y="520"/>
			<point x="509" y="524"/>
			<point x="486" y="524" type="curve" smooth="yes"/>
			<point x="437" y="524"/>
			<point x="407" y="493"/>
			<point x="407" y="443" type="curve" smooth="yes"/>
			<point x="408" y="407"/>
			<point x="422" y="379"/>
			<point x="439" y="353" type="curve" smooth="yes"/>
			<point x="457" y="323" type="line"/>
			<point x="460" y="401" type="line"/>
			<point x="454" y="375"/>
			<point x="444" y="346"/>
			<point x="431" y="317" type="curve" smooth="yes"/>
			<point x="395" y="235"/>
			<point x="345" y="143"/>
			<point x="296" y="65" type="curve"/>
			<point x="276" y="65" type="line"/>
			<point x="276" y="198"/>
			<point x="265" y="338"/>
			<point x="257" y="417" type="curve" smooth="yes"/>
			<point x="249" y="495"/>
			<point x="219" y="524"/>
			<point x="154" y="524" type="curve" smooth="yes"/>
			<point x="98" y="524"/>
			<point x="54" y="491"/>
			<point x="15" y="448" type="curve"/>
			<point x="38" y="411" type="line"/>
			<point x="58" y="425"/>
			<point x="80" y="433"/>
			<point x="96" y="433" type="curve" smooth="yes"/>
			<point x="119" y="433"/>
			<point x="129" y="419"/>
			<point x="133" y="380" type="curve" smooth="yes"/>
			<point x="145" y="297"/>
			<point x="161" y="138"/>
		</contour>
	</outline>
</glyph>
<glyph name="delta" format="2">
	<unicode hex="03B4"/>
	<advance width="546"/>
	<outline>
		<contour>
			<point x="254" y="-12" type="curve" smooth="yes"/>
			<point x="417" y="-12"/>
			<point x="519" y="108"/>
			<point x="519" y="264" type="curve" smooth="yes"/>
			<point x="519" y="363"/>
			<point x="467" y="430"/>
			<point x="387" y="503" type="curve" smooth="yes"/>
			<point x="316" y="566"/>
			<point x="289" y="583"/>
			<point x="289" y="624" type="curve" smooth="yes"/>
			<point x="289" y="663"/>
			<point x="313" y="692"/>
			<point x="381" y="692" type="curve" smooth="yes"/>
			<point x="423" y="692"/>
			<point x="449" y="686"/>
			<point x="465" y="679" type="curve"/>
			<point x="465" y="707" type="line"/>
			<point x="393" y="707" type="line"/>
			<point x="431" y="637" type="line" smooth="yes"/>
			<point x="450" y="602"/>
			<point x="471" y="589"/>
			<point x="501" y="589" type="curve" smooth="yes"/>
			<point x="531" y="589"/>
			<point x="549" y="608"/>
			<point x="555" y="640" type="curve"/>
			<point x="538" y="692"/>
			<point x="467" y="735"/>
			<point x="366" y="735" type="curve" smooth="yes"/>
			<point x="257" y="735"/>
			<point x="177" y="683"/>
			<point x="177" y="598" type="curve" smooth="yes"/>
			<point x="177" y="519"/>
			<point x="234" y="490"/>
			<point x="298" y="429" type="curve" smooth="yes"/>
			<point x="362" y="368"/>
			<point x="389" y="326"/>
			<point x="389" y="243" type="curve" smooth="yes"/>
			<point x="389" y="137"/>
			<point x="341" y="45"/>
			<point x="262" y="45" type="curve" smooth="yes"/>
			<point x="205" y="45"/>
			<point x="165" y="88"/>
			<point x="165" y="179" type="curve" smooth="yes"/>
			<point x="165" y="295"/>
			<point x="234" y="388"/>
			<point x="331" y="438" type="curve"/>
			<point x="299" y="459" type="line"/>
			<point x="278" y="433" type="line"/>
			<point x="151" y="419"/>
			<point x="39" y="339"/>
			<point x="39" y="180" type="curve" smooth="yes"/>
			<point x="39" y="61"/>
			<point x="127" y="-12"/>
		</contour>
	</outline>
</glyph>
<glyph name="epsilon" format="2">
	<unicode hex="03B5"/>
	<advance width="477"/>
	<outline>
		<contour>
			<point x="210" y="-13" type="curve" smooth="yes"/>
			<point x="318" y="-13"/>
			<point x="409" y="36"/>
			<point x="457" y="92" type="curve"/>
			<point x="425" y="130" type="line"/>
			<point x="377" y="92"/>
			<point x="325" y="71"/>
			<point x="255" y="71" type="curve" smooth="yes"/>
			<point x="192" y="71"/>
			<point x="147" y="93"/>
			<point x="147" y="143" type="curve" smooth="yes"/>
			<point x="147" y="194"/>
			<point x="202" y="233"/>
			<point x="308" y="233" type="curve" smooth="yes"/>
			<point x="333" y="233"/>
			<point x="354" y="233"/>
			<point x="368" y="231" type="curve"/>
			<point x="383" y="316" type="line"/>
			<point x="368" y="315"/>
			<point x="350" y="313"/>
			<point x="321" y="313" type="curve" smooth="yes"/>
			<point x="243" y="313"/>
			<point x="197" y="334"/>
			<point x="197" y="387" type="curve" smooth="yes"/>
			<point x="197" y="446"/>
			<point x="240" y="483"/>
			<point x="324" y="483" type="curve" smooth="yes"/>
			<point x="359" y="483"/>
			<point x="377" y="479"/>
			<point x="393" y="475" type="curve"/>
			<point x="393" y="496" type="line"/>
			<point x="302" y="496" type="line"/>
			<point x="336" y="450" type="line" smooth="yes"/>
			<point x="358" y="422"/>
			<point x="384" y="401"/>
			<point x="420" y="401" type="curve" smooth="yes"/>
			<point x="457" y="401"/>
			<point x="477" y="427"/>
			<point x="481" y="465" type="curve"/>
			<point x="462" y="499"/>
			<point x="407" y="524"/>
			<point x="307" y="524" type="curve" smooth="yes"/>
			<point x="176" y="524"/>
			<point x="78" y="471"/>
			<point x="78" y="383" type="curve" smooth="yes"/>
			<point x="78" y="309"/>
			<point x="138" y="275"/>
			<point x="238" y="275" type="curve"/>
			<point x="236" y="256" type="line"/>
			<point x="110" y="256"/>
			<point x="22" y="213"/>
			<point x="22" y="116" type="curve" smooth="yes"/>
			<point x="22" y="34"/>
			<point x="103" y="-13"/>
		</contour>
	</outline>
	<anchor name="aboveLC" x="313" y="531"/>
	<anchor name="belowLC" x="216" y="-20"/>
</glyph>
<glyph name="iota" format="2">
	<unicode hex="03B9"/>
	<advance width="332"/>
	<outline>
		<contour>
			<point x="167" y="-13" type="curve" smooth="yes"/>
			<point x="234" y="-13"/>
			<point x="275" y="19"/>
			<point x="311" y="65" type="curve"/>
			<point x="280" y="104" type="line"/>
			<point x="260" y="85"/>
			<point x="244" y="69"/>
			<point x="223" y="69" type="curve" smooth="yes"/>
			<point x="202" y="69"/>
			<point x="191" y="82"/>
			<point x="191" y="108" type="curve" smooth="yes"/>
			<point x="191" y="133"/>
			<point x="200" y="165"/>
			<point x="247" y="366" type="curve" smooth="yes"/>
			<point x="280" y="507" type="line"/>
			<point x="246" y="524" type="line"/>
			<point x="133" y="502" type="line"/>
			<point x="91" y="267" type="line" smooth="yes"/>
			<point x="82" y="213"/>
			<point x="66" y="126"/>
			<point x="66" y="88" type="curve" smooth="yes"/>
			<point x="66" y="18"/>
			<point x="106" y="-13"/>
		</contour>
	</outline>
	<anchor name="aboveLC" x="218" y="531"/>
</glyph>
<glyph name="kappa" format="2">
	<unicode hex="03BA"/>
	<advance width="592"/>
	<outline>
		<contour>
			<point x="64" y="3" type="curve"/>
			<point x="93" y="-13" type="line"/>
			<point x="209" y="8" type="line"/>
			<point x="267" y="335" type="line" smooth="yes"/>
			<point x="292" y="472"/>
			<point x="269" y="524"/>
			<point x="179" y="524" type="curve" smooth="yes"/>
			<point x="118" y="524"/>
			<point x="75" y="491"/>
			<point x="35" y="444" type="curve"/>
			<point x="61" y="406" type="line"/>
			<point x="81" y="423"/>
			<point x="95" y="435"/>
			<point x="114" y="435" type="curve" smooth="yes"/>
			<point x="158" y="435"/>
			<point x="151" y="375"/>
			<point x="138" y="320" type="curve" smooth="yes"/>
			<point x="116" y="223"/>
			<point x="102" y="165"/>
		</contour>
		<contour>
			<point x="448" y="-13" type="curve" smooth="yes"/>
			<point x="504" y="-13"/>
			<point x="545" y="15"/>
			<point x="577" y="52" type="curve"/>
			<point x="549" y="94" type="line"/>
			<point x="534" y="80"/>
			<point x="516" y="67"/>
			<point x="498" y="67" type="curve" smooth="yes"/>
			<point x="474" y="67"/>
			<point x="463" y="82"/>
			<point x="449" y="124" type="curve" smooth="yes"/>
			<point x="433" y="171" type="line" smooth="yes"/>
			<point x="415" y="226"/>
			<point x="381" y="252"/>
			<point x="296" y="258" type="curve" smooth="yes"/>
			<point x="255" y="260" type="line"/>
			<point x="255" y="268" type="line"/>
			<point x="492" y="371" type="line" smooth="yes"/>
			<point x="556" y="397"/>
			<point x="589" y="420"/>
			<point x="589" y="463" type="curve" smooth="yes"/>
			<point x="589" y="496"/>
			<point x="564" y="514"/>
			<point x="537" y="522" type="curve"/>
			<point x="376" y="390" type="line"/>
			<point x="267" y="286" type="line"/>
			<point x="236" y="286" type="line"/>
			<point x="236" y="245" type="line"/>
			<point x="249" y="242" type="line" smooth="yes"/>
			<point x="286" y="236"/>
			<point x="300" y="223"/>
			<point x="311" y="182" type="curve" smooth="yes"/>
			<point x="331" y="95" type="line" smooth="yes"/>
			<point x="350" y="16"/>
			<point x="382" y="-13"/>
		</contour>
	</outline>
</glyph>
<glyph name="lambda" format="2">
	<unicode hex="03BB"/>
	<advance width="581"/>
	<outline>
		<contour>
			<point x="15" y="0" type="line"/>
			<point x="136" y="-16" type="line"/>
			<point x="206" y="115"/>
			<point x="275" y="226"/>
			<point x="345" y="356" type="curve"/>
			<point x="374" y="356" type="line"/>
			<point x="363" y="557" type="line"/>
			<point x="245" y="375"/>
			<point x="128" y="199"/>
			<point x="10" y="16" type="curve"/>
		</contour>
		<contour>
			<point x="485" y="-13" type="curve" smooth="yes"/>
			<point x="536" y="-13"/>
			<point x="575" y="24"/>
			<point x="595" y="60" type="curve"/>
			<point x="574" y="112" type="line"/>
			<point x="563" y="106"/>
			<point x="542" y="100"/>
			<point x="522" y="100" type="curve" smooth="yes"/>
			<point x="469" y="100"/>
			<point x="445" y="119"/>
			<point x="435" y="202" type="curve" smooth="yes"/>
			<point x="388" y="577" type="line" smooth="yes"/>
			<point x="375" y="681"/>
			<point x="334" y="724"/>
			<point x="260" y="724" type="curve" smooth="yes"/>
			<point x="182" y="724"/>
			<point x="138" y="689"/>
			<point x="104" y="649" type="curve"/>
			<point x="126" y="586" type="line"/>
			<point x="158" y="599"/>
			<point x="198" y="610"/>
			<point x="240" y="610" type="curve" smooth="yes"/>
			<point x="296" y="610"/>
			<point x="338" y="592"/>
			<point x="346" y="518" type="curve" smooth="yes"/>
			<point x="354" y="433" type="line"/>
			<point x="358" y="422" type="line"/>
			<point x="384" y="103" type="line" smooth="yes"/>
			<point x="390" y="25"/>
			<point x="422" y="-13"/>
		</contour>
	</outline>
</glyph>
<glyph name="mu" format="2">
	<unicode hex="03BC"/>
	<unicode hex="00B5"/>
	<advance width="651"/>
	<outline>
		<contour>
			<point x="40" y="-191" type="line"/>
			<point x="149" y="-172" type="line"/>
			<point x="167" y="103" type="line"/>
			<point x="194" y="103" type="line"/>
			<point x="224" y="239"/>
			<point x="251" y="371"/>
			<point x="281" y="506" type="curve"/>
			<point x="242" y="523" type="line"/>
			<point x="130" y="501" type="line"/>
			<point x="76" y="115" type="line"/>
			<point x="5" y="-174" type="line"/>
		</contour>
		<contour>
			<point x="273" y="-13" type="curve" smooth="yes"/>
			<point x="327" y="-13"/>
			<point x="359" y="23"/>
			<point x="390" y="121" type="curve"/>
			<point x="423" y="121" type="line"/>
			<point x="423" y="205" type="line"/>
			<point x="354" y="115"/>
			<point x="312" y="96"/>
			<point x="272" y="96" type="curve" smooth="yes"/>
			<point x="235" y="96"/>
			<point x="207" y="120"/>
			<point x="195" y="168" type="curve"/>
			<point x="181" y="112" type="line"/>
			<point x="190" y="28"/>
			<point x="218" y="-13"/>
		</contour>
		<contour>
			<point x="486" y="-13" type="curve" smooth="yes"/>
			<point x="553" y="-13"/>
			<point x="594" y="19"/>
			<point x="631" y="65" type="curve"/>
			<point x="601" y="105" type="line"/>
			<point x="581" y="85"/>
			<point x="565" y="69"/>
			<point x="543" y="69" type="curve" smooth="yes"/>
			<point x="523" y="69"/>
			<point x="512" y="82"/>
			<point x="512" y="109" type="curve" smooth="yes"/>
			<point x="512" y="135"/>
			<point x="520" y="161"/>
			<point x="542" y="258" type="curve" smooth="yes"/>
			<point x="601" y="507" type="line"/>
			<point x="567" y="524" type="line"/>
			<point x="457" y="502" type="line"/>
			<point x="398" y="159" type="line"/>
			<point x="414" y="159" type="line" smooth="yes"/>
			<point x="408" y="137"/>
			<point x="402" y="117"/>
			<point x="402" y="87" type="curve" smooth="yes"/>
			<point x="402" y="20"/>
			<point x="431" y="-13"/>
		</contour>
	</outline>
</glyph>
<glyph name="omicron" format="2">
	<unicode hex="03BF"/>
	<advance width="583"/>
	<outline>
		<contour>
			<point x="247" y="-13" type="curve" smooth="yes"/>
			<point x="422" y="-13"/>
			<point x="545" y="146"/>
			<point x="545" y="324" type="curve" smooth="yes"/>
			<point x="545" y="452"/>
			<point x="473" y="524"/>
			<point x="349" y="524" type="curve" smooth="yes"/>
			<point x="174" y="524"/>
			<point x="51" y="365"/>
			<point x="51" y="187" type="curve" smooth="yes"/>
			<point x="51" y="59"/>
			<point x="123" y="-13"/>
		</contour>
		<contour>
			<point x="259" y="46" type="curve" smooth="yes"/>
			<point x="208" y="46"/>
			<point x="183" y="83"/>
			<point x="183" y="175" type="curve" smooth="yes"/>
			<point x="183" y="321"/>
			<point x="245" y="465"/>
			<point x="337" y="465" type="curve" smooth="yes"/>
			<point x="389" y="465"/>
			<point x="413" y="428"/>
			<point x="413" y="335" type="curve" smooth="yes"/>
			<point x="413" y="190"/>
			<point x="352" y="46"/>
		</contour>
	</outline>
	<anchor name="aboveLC" x="351" y="531"/>
</glyph>
<glyph name="pi" format="2">
	<unicode hex="03C0"/>
	<advance width="706"/>
	<outline>
		<contour>
			<point x="93" y="-13" type="curve" smooth="yes"/>
			<point x="154" y="-13"/>
			<point x="204" y="23"/>
			<point x="230" y="133" type="curve" smooth="yes"/>
			<point x="255" y="242"/>
			<point x="281" y="353"/>
			<point x="306" y="463" type="curve"/>
			<point x="253" y="463" type="line"/>
			<point x="219" y="332"/>
			<point x="186" y="200"/>
			<point x="152" y="69" type="curve"/>
			<point x="192" y="69" type="line"/>
			<point x="192" y="122" type="line"/>
			<point x="140" y="116"/>
			<point x="87" y="109"/>
			<point x="38" y="103" type="curve"/>
			<point x="26" y="89"/>
			<point x="19" y="72"/>
			<point x="19" y="53" type="curve" smooth="yes"/>
			<point x="19" y="14"/>
			<point x="46" y="-13"/>
		</contour>
		<contour>
			<point x="66" y="395" type="line"/>
			<point x="266" y="420" type="line"/>
			<point x="501" y="420" type="line"/>
			<point x="692" y="406" type="line"/>
			<point x="711" y="514" type="line"/>
			<point x="294" y="514" type="line" smooth="yes"/>
			<point x="180" y="514"/>
			<point x="119" y="488"/>
			<point x="64" y="448" type="curve"/>
		</contour>
		<contour>
			<point x="472" y="-13" type="curve" smooth="yes"/>
			<point x="542" y="-13"/>
			<point x="575" y="17"/>
			<point x="624" y="72" type="curve"/>
			<point x="590" y="109" type="line"/>
			<point x="562" y="81"/>
			<point x="549" y="69"/>
			<point x="525" y="69" type="curve" smooth="yes"/>
			<point x="504" y="69"/>
			<point x="491" y="82"/>
			<point x="491" y="109" type="curve" smooth="yes"/>
			<point x="491" y="134"/>
			<point x="498" y="177"/>
			<point x="552" y="472" type="curve"/>
			<point x="455" y="472" type="line"/>
			<point x="388" y="225"/>
			<point x="367" y="133"/>
			<point x="367" y="90" type="curve" smooth="yes"/>
			<point x="367" y="19"/>
			<point x="403" y="-13"/>
		</contour>
	</outline>
</glyph>
<glyph name="rho" format="2">
	<unicode hex="03C1"/>
	<advance width="598"/>
	<outline>
		<contour>
			<point x="18" y="-191" type="line"/>
			<point x="123" y="-175" type="line"/>
			<point x="155" y="86" type="line"/>
			<point x="179" y="86" type="line"/>
			<point x="222" y="314" type="line" smooth="yes"/>
			<point x="241" y="416"/>
			<point x="287" y="465"/>
			<point x="347" y="465" type="curve" smooth="yes"/>
			<point x="396" y="465"/>
			<point x="426" y="419"/>
			<point x="426" y="323" type="curve" smooth="yes"/>
			<point x="426" y="177"/>
			<point x="363" y="63"/>
			<point x="273" y="63" type="curve" smooth="yes"/>
			<point x="233" y="63"/>
			<point x="201" y="87"/>
			<point x="182" y="115" type="curve"/>
			<point x="164" y="105" type="line"/>
			<point x="177" y="29"/>
			<point x="229" y="-12"/>
			<point x="303" y="-12" type="curve" smooth="yes"/>
			<point x="424" y="-12"/>
			<point x="557" y="107"/>
			<point x="557" y="307" type="curve" smooth="yes"/>
			<point x="557" y="455"/>
			<point x="474" y="524"/>
			<point x="357" y="524" type="curve" smooth="yes"/>
			<point x="229" y="524"/>
			<point x="136" y="456"/>
			<point x="96" y="288" type="curve" smooth="yes"/>
			<point x="-13" y="-175" type="line"/>
		</contour>
	</outline>
	<anchor name="aboveLC" x="353" y="531"/>
</glyph>
<glyph name="sigma.end" format="2">
	<unicode hex="03C2"/>
	<advance width="475"/>
	<outline>
		<contour>
			<point x="247" y="-179" type="curve"/>
			<point x="291" y="-210" type="line"/>
			<point x="342" y="-161"/>
			<point x="384" y="-103"/>
			<point x="384" y="-39" type="curve" smooth="yes"/>
			<point x="384" y="25"/>
			<point x="350" y="65"/>
			<point x="257" y="107" type="curve" smooth="yes"/>
			<point x="174" y="145"/>
			<point x="150" y="178"/>
			<point x="150" y="252" type="curve" smooth="yes"/>
			<point x="150" y="362"/>
			<point x="213" y="452"/>
			<point x="315" y="490" type="curve"/>
			<point x="346" y="490" type="line"/>
			<point x="346" y="502" type="line"/>
			<point x="285" y="502" type="line"/>
			<point x="328" y="447" type="line" smooth="yes"/>
			<point x="351" y="416"/>
			<point x="378" y="401"/>
			<point x="413" y="401" type="curve" smooth="yes"/>
			<point x="450" y="401"/>
			<point x="473" y="426"/>
			<point x="478" y="461" type="curve"/>
			<point x="462" y="493"/>
			<point x="408" y="524"/>
			<point x="335" y="524" type="curve" smooth="yes"/>
			<point x="162" y="524"/>
			<point x="36" y="377"/>
			<point x="36" y="210" type="curve" smooth="yes"/>
			<point x="36" y="107"/>
			<point x="94" y="51"/>
			<point x="182" y="11" type="curve" smooth="yes"/>
			<point x="264" y="-27"/>
			<point x="283" y="-54"/>
			<point x="283" y="-92" type="curve" smooth="yes"/>
			<point x="283" y="-124"/>
			<point x="266" y="-149"/>
		</contour>
	</outline>
</glyph>
<glyph name="sigma" format="2">
	<unicode hex="03C3"/>
	<advance width="611"/>
	<outline>
		<contour>
			<point x="254" y="-12" type="curve" smooth="yes"/>
			<point x="428" y="-12"/>
			<point x="545" y="125"/>
			<point x="545" y="266" type="curve" smooth="yes"/>
			<point x="545" y="377"/>
			<point x="472" y="428"/>
			<point x="362" y="447" type="curve"/>
			<point x="334" y="437" type="line"/>
			<point x="383" y="413"/>
			<point x="413" y="369"/>
			<point x="413" y="296" type="curve" smooth="yes"/>
			<point x="413" y="166"/>
			<point x="351" y="47"/>
			<point x="259" y="47" type="curve" smooth="yes"/>
			<point x="207" y="47"/>
			<point x="174" y="88"/>
			<point x="174" y="174" type="curve" smooth="yes"/>
			<point x="174" y="320"/>
			<point x="249" y="432"/>
			<point x="371" y="437" type="curve"/>
			<point x="379" y="464" type="line"/>
			<point x="618" y="424" type="line"/>
			<point x="635" y="522" type="line"/>
			<point x="367" y="514" type="line" smooth="yes"/>
			<point x="165" y="509"/>
			<point x="43" y="366"/>
			<point x="43" y="195" type="curve" smooth="yes"/>
			<point x="43" y="58"/>
			<point x="128" y="-12"/>
		</contour>
	</outline>
</glyph>
<glyph name="tau" format="2">
	<unicode hex="03C4"/>
	<advance width="483"/>
	<outline>
		<contour>
			<point x="28" y="395" type="line"/>
			<point x="226" y="420" type="line"/>
			<point x="272" y="420" type="line"/>
			<point x="479" y="405" type="line"/>
			<point x="496" y="514" type="line"/>
			<point x="256" y="514" type="line" smooth="yes"/>
			<point x="145" y="514"/>
			<point x="76" y="492"/>
			<point x="21" y="450" type="curve"/>
		</contour>
		<contour>
			<point x="236" y="-13" type="curve" smooth="yes"/>
			<point x="306" y="-13"/>
			<point x="339" y="17"/>
			<point x="388" y="72" type="curve"/>
			<point x="354" y="109" type="line"/>
			<point x="326" y="81"/>
			<point x="313" y="69"/>
			<point x="289" y="69" type="curve" smooth="yes"/>
			<point x="268" y="69"/>
			<point x="255" y="82"/>
			<point x="255" y="109" type="curve" smooth="yes"/>
			<point x="255" y="134"/>
			<point x="261" y="177"/>
			<point x="316" y="472" type="curve"/>
			<point x="227" y="472" type="line"/>
			<point x="149" y="206"/>
			<point x="131" y="133"/>
			<point x="131" y="88" type="curve" smooth="yes"/>
			<point x="131" y="19"/>
			<point x="167" y="-13"/>
		</contour>
	</outline>
</glyph>
<glyph name="upsilon" format="2">
	<unicode hex="03C5"/>
	<advance width="562"/>
	<outline>
		<contour>
			<point x="257" y="-13" type="curve" smooth="yes"/>
			<point x="425" y="-13"/>
			<point x="529" y="125"/>
			<point x="529" y="369" type="curve" smooth="yes"/>
			<point x="529" y="448"/>
			<point x="520" y="489"/>
			<point x="512" y="516" type="curve"/>
			<point x="503" y="521"/>
			<point x="490" y="524"/>
			<point x="472" y="524" type="curve" smooth="yes"/>
			<point x="427" y="524"/>
			<point x="396" y="493"/>
			<point x="396" y="445" type="curve" smooth="yes"/>
			<point x="396" y="396"/>
			<point x="415" y="364"/>
			<point x="476" y="281" type="curve"/>
			<point x="480" y="391" type="line"/>
			<point x="459" y="391" type="line"/>
			<point x="460" y="372"/>
			<point x="461" y="353"/>
			<point x="461" y="328" type="curve" smooth="yes"/>
			<point x="461" y="159"/>
			<point x="386" y="49"/>
			<point x="295" y="49" type="curve" smooth="yes"/>
			<point x="240" y="49"/>
			<point x="214" y="78"/>
			<point x="214" y="132" type="curve" smooth="yes"/>
			<point x="214" y="204"/>
			<point x="275" y="317"/>
			<point x="275" y="418" type="curve" smooth="yes"/>
			<point x="275" y="485"/>
			<point x="241" y="522"/>
			<point x="173" y="522" type="curve" smooth="yes"/>
			<point x="114" y="522"/>
			<point x="71" y="491"/>
			<point x="28" y="444" type="curve"/>
			<point x="54" y="406" type="line"/>
			<point x="71" y="418"/>
			<point x="88" y="430"/>
			<point x="110" y="430" type="curve" smooth="yes"/>
			<point x="132" y="430"/>
			<point x="143" y="415"/>
			<point x="143" y="387" type="curve" smooth="yes"/>
			<point x="143" y="324"/>
			<point x="86" y="215"/>
			<point x="86" y="127" type="curve" smooth="yes"/>
			<point x="86" y="35"/>
			<point x="154" y="-13"/>
		</contour>
	</outline>
	<anchor name="aboveLC" x="335" y="531"/>
</glyph>
<glyph name="chi" format="2">
	<unicode hex="03C7"/>
	<advance width="567"/>
	<outline>
		<contour>
			<point x="-28" y="-181" type="line"/>
			<point x="95" y="-179" type="line"/>
			<point x="278" y="120" type="line"/>
			<point x="293" y="128" type="line"/>
			<point x="585" y="491" type="line"/>
			<point x="570" y="518" type="line"/>
			<point x="447" y="517" type="line"/>
			<point x="264" y="217" type="line"/>
			<point x="250" y="210" type="line"/>
			<point x="-43" y="-153" type="line"/>
		</contour>
		<contour>
			<point x="240" y="184" type="line"/>
			<point x="327" y="246" type="line"/>
			<point x="270" y="246" type="line"/>
			<point x="245" y="405" type="line" smooth="yes"/>
			<point x="234" y="490"/>
			<point x="207" y="523"/>
			<point x="143" y="523" type="curve" smooth="yes"/>
			<point x="93" y="523"/>
			<point x="55" y="492"/>
			<point x="34" y="466" type="curve"/>
			<point x="51" y="418" type="line"/>
			<point x="65" y="422"/>
			<point x="80" y="426"/>
			<point x="102" y="426" type="curve" smooth="yes"/>
			<point x="162" y="426"/>
			<point x="185" y="398"/>
			<point x="205" y="316" type="curve" smooth="yes"/>
		</contour>
		<contour>
			<point x="402" y="-187" type="curve" smooth="yes"/>
			<point x="452" y="-187"/>
			<point x="488" y="-153"/>
			<point x="509" y="-126" type="curve"/>
			<point x="496" y="-81" type="line"/>
			<point x="484" y="-85"/>
			<point x="471" y="-89"/>
			<point x="449" y="-89" type="curve" smooth="yes"/>
			<point x="381" y="-89"/>
			<point x="352" y="-61"/>
			<point x="338" y="16" type="curve" smooth="yes"/>
			<point x="302" y="153" type="line"/>
			<point x="230" y="91" type="line"/>
			<point x="272" y="91" type="line"/>
			<point x="299" y="-71" type="line" smooth="yes"/>
			<point x="309" y="-150"/>
			<point x="338" y="-187"/>
		</contour>
	</outline>
</glyph>
<glyph name="omega" format="2">
	<unicode hex="03C9"/>
	<advance width="793"/>
	<outline>
		<contour>
			<point x="187" y="-12" type="curve" smooth="yes"/>
			<point x="285" y="-12"/>
			<point x="342" y="49"/>
			<point x="370" y="150" type="curve"/>
			<point x="382" y="150" type="line"/>
			<point x="380" y="49"/>
			<point x="422" y="-12"/>
			<point x="514" y="-12" type="curve" smooth="yes"/>
			<point x="655" y="-12"/>
			<point x="761" y="119"/>
			<point x="761" y="276" type="curve" smooth="yes"/>
			<point x="761" y="397"/>
			<point x="703" y="481"/>
			<point x="619" y="524" type="curve"/>
			<point x="574" y="489" type="line"/>
			<point x="608" y="440"/>
			<point x="635" y="375"/>
			<point x="635" y="290" type="curve" smooth="yes"/>
			<point x="635" y="159"/>
			<point x="576" y="58"/>
			<point x="503" y="58" type="curve" smooth="yes"/>
			<point x="460" y="58"/>
			<point x="434" y="90"/>
			<point x="435" y="145" type="curve" smooth="yes"/>
			<point x="437" y="185"/>
			<point x="446" y="220"/>
			<point x="459" y="271" type="curve" smooth="yes"/>
			<point x="485" y="363" type="line"/>
			<point x="455" y="380" type="line"/>
			<point x="363" y="363" type="line"/>
			<point x="342" y="219" type="line" smooth="yes"/>
			<point x="325" y="113"/>
			<point x="284" y="58"/>
			<point x="227" y="58" type="curve" smooth="yes"/>
			<point x="184" y="58"/>
			<point x="159" y="93"/>
			<point x="159" y="164" type="curve" smooth="yes"/>
			<point x="159" y="265"/>
			<point x="219" y="404"/>
			<point x="316" y="485" type="curve"/>
			<point x="286" y="524" type="line"/>
			<point x="146" y="459"/>
			<point x="33" y="314"/>
			<point x="33" y="162" type="curve" smooth="yes"/>
			<point x="33" y="52"/>
			<point x="88" y="-12"/>
		</contour>
	</outline>
	<anchor name="aboveLC" x="442" y="531"/>
	<anchor name="belowLC" x="357" y="-20"/>
</glyph>
<glyph name="kai" format="2">
	<unicode hex="03D7"/>
	<advance width="592"/>
	<outline>
		<contour>
			<point x="93" y="-13" type="line"/>
			<point x="209" y="8" type="line"/>
			<point x="267" y="335" type="line" smooth="yes"/>
			<point x="292" y="472"/>
			<point x="269" y="524"/>
			<point x="179" y="524" type="curve" smooth="yes"/>
			<point x="118" y="524"/>
			<point x="75" y="491"/>
			<point x="35" y="444" type="curve"/>
			<point x="61" y="406" type="line"/>
			<point x="81" y="423"/>
			<point x="95" y="435"/>
			<point x="114" y="435" type="curve" smooth="yes"/>
			<point x="158" y="435"/>
			<point x="151" y="375"/>
			<point x="138" y="320" type="curve" smooth="yes"/>
			<point x="116" y="223"/>
			<point x="102" y="165"/>
			<point x="64" y="3" type="curve"/>
		</contour>
		<contour>
			<point x="220" y="-227" type="curve" smooth="yes"/>
			<point x="400" y="-227"/>
			<point x="498" y="-126"/>
			<point x="575" y="56" type="curve"/>
			<point x="548" y="94" type="line"/>
			<point x="532" y="80"/>
			<point x="514" y="67"/>
			<point x="496" y="67" type="curve" smooth="yes"/>
			<point x="472" y="67"/>
			<point x="460" y="82"/>
			<point x="447" y="124" type="curve" smooth="yes"/>
			<point x="435" y="165" type="line" smooth="yes"/>
			<point x="416" y="229"/>
			<point x="375" y="252"/>
			<point x="286" y="258" type="curve" smooth="yes"/>
			<point x="255" y="260" type="line"/>
			<point x="255" y="268" type="line"/>
			<point x="490" y="368" type="line" smooth="yes"/>
			<point x="554" y="394"/>
			<point x="587" y="417"/>
			<point x="587" y="460" type="curve" smooth="yes"/>
			<point x="587" y="492"/>
			<point x="562" y="511"/>
			<point x="535" y="519" type="curve"/>
			<point x="375" y="390" type="line"/>
			<point x="267" y="286" type="line"/>
			<point x="234" y="286" type="line"/>
			<point x="234" y="245" type="line"/>
			<point x="246" y="243" type="line" smooth="yes"/>
			<point x="283" y="236"/>
			<point x="299" y="219"/>
			<point x="310" y="172" type="curve" smooth="yes"/>
			<point x="329" y="94" type="line" smooth="yes"/>
			<point x="346" y="18"/>
			<point x="383" y="-13"/>
			<point x="444" y="-13" type="curve" smooth="yes"/>
			<point x="475" y="-13"/>
			<point x="504" y="-2"/>
			<point x="536" y="28" type="curve"/>
			<point x="513" y="30" type="line"/>
			<point x="534" y="8" type="line"/>
			<point x="449" y="-88"/>
			<point x="352" y="-138"/>
			<point x="226" y="-138" type="curve" smooth="yes"/>
			<point x="148" y="-138"/>
			<point x="69" y="-117"/>
			<point x="27" y="-88" type="curve"/>
			<point x="-9" y="-127" type="line"/>
			<point x="26" y="-175"/>
			<point x="103" y="-227"/>
		</contour>
	</outline>
</glyph>
<glyph name="koppa" format="2">
	<unicode hex="03D9"/>
	<advance width="583"/>
	<outline>
		<contour>
			<point x="170" y="-193" type="line"/>
			<point x="277" y="-172" type="line"/>
			<point x="287" y="19" type="line"/>
			<point x="214" y="19" type="line"/>
			<point x="141" y="-172" type="line"/>
		</contour>
		<component base="omicron"/>
	</outline>
	<anchor name="aboveLC" x="351" y="531"/>
</glyph>
<glyph name="stigma" format="2">
	<unicode hex="03DB"/>
	<advance width="476"/>
	<outline>
		<contour>
			<point x="172" y="3" type="curve" smooth="yes"/>
			<point x="255" y="-39"/>
			<point x="277" y="-63"/>
			<point x="277" y="-98" type="curve" smooth="yes"/>
			<point x="277" y="-124"/>
			<point x="262" y="-146"/>
			<point x="242" y="-179" type="curve"/>
			<point x="284" y="-210" type="line"/>
			<point x="340" y="-154"/>
			<point x="377" y="-102"/>
			<point x="377" y="-41" type="curve" smooth="yes"/>
			<point x="377" y="16"/>
			<point x="339" y="58"/>
			<point x="255" y="98" type="curve" smooth="yes"/>
			<point x="147" y="147"/>
			<point x="117" y="178"/>
			<point x="117" y="242" type="curve" smooth="yes"/>
			<point x="117" y="320"/>
			<point x="176" y="376"/>
			<point x="274" y="391" type="curve" smooth="yes"/>
			<point x="360" y="405" type="line" smooth="yes"/>
			<point x="452" y="419"/>
			<point x="484" y="446"/>
			<point x="512" y="550" type="curve" smooth="yes"/>
			<point x="529" y="615" type="line"/>
			<point x="466" y="615" type="line"/>
			<point x="450" y="566" type="line" smooth="yes"/>
			<point x="437" y="526"/>
			<point x="408" y="521"/>
			<point x="337" y="509" type="curve" smooth="yes"/>
			<point x="279" y="498" type="line" smooth="yes"/>
			<point x="118" y="469"/>
			<point x="40" y="359"/>
			<point x="40" y="208" type="curve" smooth="yes"/>
			<point x="40" y="113"/>
			<point x="83" y="49"/>
		</contour>
	</outline>
</glyph>
<glyph name="Dje" format="2">
	<unicode hex="0402"/>
	<advance width="751"/>
	<outline>
		<contour>
			<point x="422" y="-88" type="line"/>
			<point x="625" y="-41"/>
			<point x="722" y="81"/>
			<point x="722" y="205" type="curve" smooth="yes"/>
			<point x="722" y="327"/>
			<point x="642" y="387"/>
			<point x="508" y="387" type="curve" smooth="yes"/>
			<point x="430" y="387"/>
			<point x="379" y="366"/>
			<point x="360" y="355" type="curve"/>
			<point x="360" y="302" type="line"/>
			<point x="384" y="313"/>
			<point x="416" y="323"/>
			<point x="467" y="323" type="curve" smooth="yes"/>
			<point x="549" y="323"/>
			<point x="589" y="284"/>
			<point x="589" y="200" type="curve" smooth="yes"/>
			<point x="589" y="113"/>
			<point x="533" y="2"/>
			<point x="408" y="-41" type="curve"/>
		</contour>
		<contour>
			<point x="76" y="482" type="line"/>
			<point x="145" y="482" type="line"/>
			<point x="224" y="642" type="line"/>
			<point x="142" y="599" type="line"/>
			<point x="617" y="599" type="line"/>
			<point x="572" y="633" type="line"/>
			<point x="582" y="482" type="line"/>
			<point x="652" y="482" type="line"/>
			<point x="680" y="664" type="line"/>
			<point x="116" y="664" type="line"/>
		</contour>
		<contour>
			<point x="129" y="0" type="line"/>
			<point x="272" y="0" type="line"/>
			<point x="272" y="66" type="line"/>
			<point x="261" y="66" type="line"/>
			<point x="140" y="66" type="line"/>
		</contour>
		<contour>
			<point x="210" y="0" type="line"/>
			<point x="341" y="0" type="line"/>
			<point x="360" y="101"/>
			<point x="378" y="201"/>
			<point x="396" y="302" type="curve" smooth="yes"/>
			<point x="461" y="664" type="line"/>
			<point x="330" y="664" type="line"/>
			<point x="311" y="563"/>
			<point x="293" y="464"/>
			<point x="275" y="363" type="curve" smooth="yes"/>
		</contour>
	</outline>
</glyph>
<glyph name="Ieukran" format="2">
	<unicode hex="0404"/>
	<advance width="638"/>
	<outline>
		<contour>
			<point x="152" y="313" type="line"/>
			<point x="430" y="309" type="line"/>
			<point x="430" y="369" type="line"/>
			<point x="152" y="365" type="line"/>
		</contour>
		<contour>
			<point x="390" y="225" type="line"/>
			<point x="453" y="225" type="line"/>
			<point x="494" y="451" type="line"/>
			<point x="431" y="451" type="line"/>
			<point x="389" y="350" type="line"/>
			<point x="387" y="326" type="line"/>
		</contour>
		<component base="C"/>
	</outline>
	<anchor name="aboveUC" x="454" y="684"/>
</glyph>
<glyph name="Nje" format="2">
	<unicode hex="040A"/>
	<advance width="1083"/>
	<outline>
		<contour>
			<point x="587" y="0" type="line"/>
			<point x="731" y="0" type="line" smooth="yes"/>
			<point x="931" y="0"/>
			<point x="1030" y="97"/>
			<point x="1030" y="217" type="curve" smooth="yes"/>
			<point x="1030" y="329"/>
			<point x="945" y="387"/>
			<point x="801" y="387" type="curve" smooth="yes"/>
			<point x="725" y="387"/>
			<point x="669" y="366"/>
			<point x="651" y="355" type="curve"/>
			<point x="651" y="302" type="line"/>
			<point x="675" y="313"/>
			<point x="707" y="323"/>
			<point x="760" y="323" type="curve" smooth="yes"/>
			<point x="852" y="323"/>
			<point x="897" y="286"/>
			<point x="897" y="212" type="curve" smooth="yes"/>
			<point x="897" y="132"/>
			<point x="839" y="60"/>
			<point x="725" y="60" type="curve" smooth="yes"/>
			<point x="587" y="60" type="line"/>
		</contour>
		<contour>
			<point x="12" y="0" type="line"/>
			<point x="314" y="0" type="line"/>
			<point x="325" y="66" type="line"/>
			<point x="199" y="66" type="line"/>
			<point x="147" y="66" type="line"/>
			<point x="23" y="66" type="line"/>
		</contour>
		<contour>
			<point x="95" y="0" type="line"/>
			<point x="227" y="0" type="line"/>
			<point x="245" y="101"/>
			<point x="263" y="201"/>
			<point x="282" y="302" type="curve" smooth="yes"/>
			<point x="347" y="664" type="line"/>
			<point x="215" y="664" type="line"/>
			<point x="197" y="563"/>
			<point x="179" y="464"/>
			<point x="161" y="363" type="curve" smooth="yes"/>
		</contour>
		<contour>
			<point x="114" y="598" type="line"/>
			<point x="244" y="598" type="line"/>
			<point x="296" y="598" type="line"/>
			<point x="417" y="598" type="line"/>
			<point x="428" y="664" type="line"/>
			<point x="126" y="664" type="line"/>
		</contour>
		<contour>
			<point x="501" y="0" type="line"/>
			<point x="632" y="0" type="line"/>
			<point x="651" y="101"/>
			<point x="669" y="201"/>
			<point x="687" y="302" type="curve" smooth="yes"/>
			<point x="752" y="664" type="line"/>
			<point x="621" y="664" type="line"/>
			<point x="602" y="563"/>
			<point x="584" y="464"/>
			<point x="566" y="363" type="curve" smooth="yes"/>
		</contour>
		<contour>
			<point x="522" y="598" type="line"/>
			<point x="649" y="598" type="line"/>
			<point x="701" y="598" type="line"/>
			<point x="838" y="598" type="line"/>
			<point x="849" y="664" type="line"/>
			<point x="534" y="664" type="line"/>
		</contour>
		<contour>
			<point x="420" y="0" type="line"/>
			<point x="563" y="0" type="line"/>
			<point x="563" y="66" type="line"/>
			<point x="552" y="66" type="line"/>
			<point x="431" y="66" type="line"/>
		</contour>
		<contour>
			<point x="229" y="307" type="line"/>
			<point x="613" y="307" type="line"/>
			<point x="613" y="369" type="line"/>
			<point x="229" y="369" type="line"/>
		</contour>
	</outline>
</glyph>
<glyph name="Tshe" format="2">
	<unicode hex="040B"/>
	<advance width="867"/>
	<outline>
		<contour>
			<point x="83" y="482" type="line"/>
			<point x="151" y="482" type="line"/>
			<point x="230" y="642" type="line"/>
			<point x="148" y="599" type="line"/>
			<point x="630" y="599" type="line"/>
			<point x="585" y="633" type="line"/>
			<point x="595" y="485" type="line"/>
			<point x="665" y="485" type="line"/>
			<point x="693" y="664" type="line"/>
			<point x="123" y="664" type="line"/>
		</contour>
		<contour>
			<point x="584" y="0" type="line"/>
			<point x="716" y="0" type="line"/>
			<point x="750" y="191" type="line" smooth="yes"/>
			<point x="776" y="335"/>
			<point x="696" y="403"/>
			<point x="544" y="403" type="curve" smooth="yes"/>
			<point x="464" y="403"/>
			<point x="396" y="381"/>
			<point x="346" y="361" type="curve"/>
			<point x="346" y="313" type="line"/>
			<point x="396" y="328"/>
			<point x="439" y="337"/>
			<point x="492" y="337" type="curve" smooth="yes"/>
			<point x="607" y="337"/>
			<point x="636" y="289"/>
			<point x="617" y="186" type="curve" smooth="yes"/>
		</contour>
		<contour>
			<point x="131" y="0" type="line"/>
			<point x="430" y="0" type="line"/>
			<point x="441" y="66" type="line"/>
			<point x="318" y="66" type="line"/>
			<point x="265" y="66" type="line"/>
			<point x="142" y="66" type="line"/>
		</contour>
		<contour>
			<point x="214" y="0" type="line"/>
			<point x="346" y="0" type="line"/>
			<point x="364" y="101"/>
			<point x="382" y="201"/>
			<point x="401" y="302" type="curve" smooth="yes"/>
			<point x="466" y="664" type="line"/>
			<point x="334" y="664" type="line"/>
			<point x="316" y="563"/>
			<point x="298" y="464"/>
			<point x="280" y="363" type="curve" smooth="yes"/>
		</contour>
		<contour>
			<point x="506" y="0" type="line"/>
			<point x="805" y="0" type="line"/>
			<point x="817" y="66" type="line"/>
			<point x="687" y="66" type="line"/>
			<point x="635" y="66" type="line"/>
			<point x="517" y="66" type="line"/>
		</contour>
	</outline>
</glyph>
<glyph name="De" format="2">
	<unicode hex="0414"/>
	<advance width="729"/>
	<outline>
		<contour>
			<point x="-17" y="-179" type="line"/>
			<point x="52" y="-179" type="line"/>
			<point x="112" y="43" type="line"/>
			<point x="36" y="0" type="line"/>
			<point x="607" y="0" type="line"/>
			<point x="566" y="34" type="line"/>
			<point x="568" y="-179" type="line"/>
			<point x="637" y="-179" type="line"/>
			<point x="672" y="62" type="line"/>
			<point x="11" y="62" type="line"/>
		</contour>
		<contour>
			<point x="433" y="0" type="line"/>
			<point x="565" y="0" type="line"/>
			<point x="582" y="101"/>
			<point x="598" y="201"/>
			<point x="615" y="302" type="curve" smooth="yes"/>
			<point x="677" y="664" type="line"/>
			<point x="545" y="664" type="line"/>
			<point x="528" y="563"/>
			<point x="512" y="464"/>
			<point x="495" y="363" type="curve" smooth="yes"/>
		</contour>
		<contour>
			<point x="210" y="598" type="line"/>
			<point x="334" y="598" type="line"/>
			<point x="342" y="598" type="line"/>
			<point x="342" y="664" type="line"/>
			<point x="221" y="664" type="line"/>
		</contour>
		<contour>
			<point x="622" y="598" type="line"/>
			<point x="630" y="598" type="line"/>
			<point x="766" y="598" type="line"/>
			<point x="778" y="664" type="line"/>
			<point x="622" y="664" type="line"/>
		</contour>
		<contour>
			<point x="146" y="42" type="line"/>
			<point x="146" y="83" type="line"/>
			<point x="216" y="131"/>
			<point x="247" y="179"/>
			<point x="277" y="248" type="curve" smooth="yes"/>
			<point x="319" y="345"/>
			<point x="357" y="478"/>
			<point x="390" y="664" type="curve"/>
			<point x="320" y="664" type="line"/>
			<point x="244" y="293"/>
			<point x="163" y="141"/>
			<point x="64" y="42" type="curve"/>
		</contour>
		<contour>
			<point x="356" y="602" type="line"/>
			<point x="611" y="602" type="line"/>
			<point x="611" y="664" type="line"/>
			<point x="356" y="664" type="line"/>
		</contour>
	</outline>
</glyph>
<glyph name="Icyr" format="2">
	<unicode hex="0418"/>
	<advance width="796"/>
	<outline>
		<contour>
			<point x="12" y="0" type="line"/>
			<point x="313" y="0" type="line"/>
			<point x="324" y="66" type="line"/>
			<point x="199" y="66" type="line"/>
			<point x="147" y="66" type="line"/>
			<point x="23" y="66" type="line"/>
		</contour>
		<contour>
			<point x="95" y="0" type="line"/>
			<point x="219" y="0" type="line"/>
			<point x="243" y="151" type="line"/>
			<point x="347" y="664" type="line"/>
			<point x="215" y="664" type="line"/>
			<point x="197" y="563"/>
			<point x="179" y="464"/>
			<point x="161" y="363" type="curve"/>
		</contour>
		<contour>
			<point x="114" y="598" type="line"/>
			<point x="244" y="598" type="line"/>
			<point x="296" y="598" type="line"/>
			<point x="417" y="598" type="line"/>
			<point x="428" y="664" type="line"/>
			<point x="126" y="664" type="line"/>
		</contour>
		<contour>
			<point x="420" y="0" type="line"/>
			<point x="722" y="0" type="line"/>
			<point x="733" y="66" type="line"/>
			<point x="604" y="66" type="line"/>
			<point x="552" y="66" type="line"/>
			<point x="431" y="66" type="line"/>
		</contour>
		<contour>
			<point x="501" y="0" type="line"/>
			<point x="632" y="0" type="line"/>
			<point x="651" y="101"/>
			<point x="669" y="202"/>
			<point x="687" y="302" type="curve"/>
			<point x="752" y="664" type="line"/>
			<point x="629" y="664" type="line"/>
			<point x="605" y="516" type="line"/>
		</contour>
		<contour>
			<point x="524" y="598" type="line"/>
			<point x="649" y="598" type="line"/>
			<point x="701" y="598" type="line"/>
			<point x="825" y="598" type="line"/>
			<point x="836" y="664" type="line"/>
			<point x="535" y="664" type="line"/>
		</contour>
		<contour>
			<point x="225" y="68" type="line"/>
			<point x="403" y="263" type="line"/>
			<point x="580" y="481" type="line"/>
			<point x="623" y="481" type="line"/>
			<point x="623" y="595" type="line"/>
			<point x="445" y="401" type="line"/>
			<point x="267" y="183" type="line"/>
			<point x="225" y="183" type="line"/>
		</contour>
	</outline>
	<anchor name="aboveUC" x="480" y="684"/>
</glyph>
<glyph name="Ka" format="2">
	<unicode hex="041A"/>
	<advance width="692"/>
	<outline>
		<contour>
			<point x="418" y="108" type="line" smooth="yes"/>
			<point x="432" y="25"/>
			<point x="474" y="-9"/>
			<point x="557" y="-9" type="curve" smooth="yes"/>
			<point x="592" y="-9"/>
			<point x="623" y="-4"/>
			<point x="639" y="0" type="curve"/>
			<point x="649" y="60" type="line"/>
			<point x="506" y="74" type="line"/>
			<point x="571" y="39" type="line"/>
			<point x="532" y="203" type="line" smooth="yes"/>
			<point x="511" y="299"/>
			<point x="461" y="332"/>
			<point x="338" y="332" type="curve"/>
			<point x="338" y="351" type="line"/>
			<point x="426" y="354"/>
			<point x="477" y="384"/>
			<point x="521" y="461" type="curve" smooth="yes"/>
			<point x="565" y="537"/>
			<point x="586" y="565"/>
			<point x="624" y="602" type="curve"/>
			<point x="572" y="577" type="line"/>
			<point x="588" y="566"/>
			<point x="615" y="554"/>
			<point x="655" y="554" type="curve" smooth="yes"/>
			<point x="702" y="554"/>
			<point x="730" y="583"/>
			<point x="730" y="616" type="curve" smooth="yes"/>
			<point x="730" y="649"/>
			<point x="705" y="665"/>
			<point x="676" y="674" type="curve"/>
			<point x="591" y="664"/>
			<point x="543" y="622"/>
			<point x="477" y="495" type="curve" smooth="yes"/>
			<point x="426" y="400"/>
			<point x="381" y="368"/>
			<point x="309" y="368" type="curve" smooth="yes"/>
			<point x="243" y="368" type="line"/>
			<point x="238" y="314" type="line"/>
			<point x="303" y="314" type="line" smooth="yes"/>
			<point x="361" y="314"/>
			<point x="385" y="280"/>
			<point x="397" y="219" type="curve" smooth="yes"/>
		</contour>
		<contour>
			<point x="12" y="0" type="line"/>
			<point x="314" y="0" type="line"/>
			<point x="325" y="66" type="line"/>
			<point x="199" y="66" type="line"/>
			<point x="147" y="66" type="line"/>
			<point x="23" y="66" type="line"/>
		</contour>
		<contour>
			<point x="95" y="0" type="line"/>
			<point x="227" y="0" type="line"/>
			<point x="245" y="101"/>
			<point x="263" y="201"/>
			<point x="282" y="302" type="curve" smooth="yes"/>
			<point x="347" y="664" type="line"/>
			<point x="215" y="664" type="line"/>
			<point x="197" y="563"/>
			<point x="179" y="464"/>
			<point x="161" y="363" type="curve" smooth="yes"/>
		</contour>
		<contour>
			<point x="114" y="598" type="line"/>
			<point x="244" y="598" type="line"/>
			<point x="296" y="598" type="line"/>
			<point x="417" y="598" type="line"/>
			<point x="428" y="664" type="line"/>
			<point x="126" y="664" type="line"/>
		</contour>
	</outline>
	<anchor name="aboveUC" x="448" y="684"/>
</glyph>
<glyph name="El" format="2">
	<unicode hex="041B"/>
	<advance width="761"/>
	<outline>
		<contour>
			<point x="115" y="-16" type="curve" smooth="yes"/>
			<point x="185" y="-16"/>
			<point x="234" y="19"/>
			<point x="273" y="91" type="curve" smooth="yes"/>
			<point x="331" y="199"/>
			<point x="379" y="386"/>
			<point x="426" y="664" type="curve"/>
			<point x="358" y="664" type="line"/>
			<point x="302" y="354"/>
			<point x="260" y="207"/>
			<point x="218" y="115" type="curve" smooth="yes"/>
			<point x="204" y="85"/>
			<point x="188" y="60"/>
			<point x="174" y="38" type="curve"/>
			<point x="131" y="38" type="line"/>
			<point x="167" y="23" type="line"/>
			<point x="158" y="74"/>
			<point x="136" y="112"/>
			<point x="84" y="112" type="curve" smooth="yes"/>
			<point x="46" y="112"/>
			<point x="25" y="90"/>
			<point x="16" y="62" type="curve"/>
			<point x="22" y="24"/>
			<point x="46" y="-16"/>
		</contour>
		<contour>
			<point x="247" y="598" type="line"/>
			<point x="371" y="598" type="line"/>
			<point x="379" y="598" type="line"/>
			<point x="379" y="664" type="line"/>
			<point x="259" y="664" type="line"/>
		</contour>
		<contour>
			<point x="369" y="0" type="line"/>
			<point x="674" y="0" type="line"/>
			<point x="685" y="66" type="line"/>
			<point x="556" y="66" type="line"/>
			<point x="503" y="66" type="line"/>
			<point x="380" y="66" type="line"/>
		</contour>
		<contour>
			<point x="393" y="602" type="line"/>
			<point x="634" y="602" type="line"/>
			<point x="634" y="664" type="line"/>
			<point x="393" y="664" type="line"/>
		</contour>
		<contour>
			<point x="452" y="0" type="line"/>
			<point x="584" y="0" type="line"/>
			<point x="602" y="101"/>
			<point x="620" y="201"/>
			<point x="639" y="302" type="curve" smooth="yes"/>
			<point x="704" y="664" type="line"/>
			<point x="572" y="664" type="line"/>
			<point x="554" y="563"/>
			<point x="536" y="464"/>
			<point x="518" y="363" type="curve" smooth="yes"/>
		</contour>
		<contour>
			<point x="645" y="598" type="line"/>
			<point x="653" y="598" type="line"/>
			<point x="789" y="598" type="line"/>
			<point x="801" y="664" type="line"/>
			<point x="645" y="664" type="line"/>
		</contour>
	</outline>
</glyph>
<glyph name="Ucyr" format="2">
	<unicode hex="0423"/>
	<advance width="707"/>
	<outline>
		<contour>
			<point x="65" y="9" type="curve"/>
			<point x="73" y="-37"/>
			<point x="102" y="-65"/>
			<point x="178" y="-65" type="curve" smooth="yes"/>
			<point x="287" y="-65"/>
			<point x="359" y="-1"/>
			<point x="420" y="110" type="curve" smooth="yes"/>
			<point x="730" y="664" type="line"/>
			<point x="649" y="664" type="line"/>
			<point x="523" y="415" type="line"/>
			<point x="417" y="176" type="line"/>
			<point x="382" y="176" type="line"/>
			<point x="346" y="82"/>
			<point x="280" y="16"/>
			<point x="250" y="-12" type="curve"/>
			<point x="197" y="-12" type="line"/>
			<point x="238" y="-23" type="line"/>
			<point x="222" y="37"/>
			<point x="188" y="63"/>
			<point x="145" y="63" type="curve" smooth="yes"/>
			<point x="100" y="63"/>
			<point x="73" y="38"/>
		</contour>
		<contour>
			<point x="94" y="598" type="line"/>
			<point x="198" y="598" type="line"/>
			<point x="284" y="598" type="line"/>
			<point x="394" y="598" type="line"/>
			<point x="405" y="664" type="line"/>
			<point x="105" y="664" type="line"/>
		</contour>
		<contour>
			<point x="531" y="598" type="line"/>
			<point x="636" y="598" type="line"/>
			<point x="668" y="598" type="line"/>
			<point x="763" y="598" type="line"/>
			<point x="775" y="664" type="line"/>
			<point x="542" y="664" type="line"/>
		</contour>
		<contour>
			<point x="319" y="30" type="line"/>
			<point x="400" y="158" type="line"/>
			<point x="292" y="664" type="line"/>
			<point x="156" y="664" type="line"/>
		</contour>
	</outline>
	<anchor name="aboveUC" x="465" y="684"/>
</glyph>
<glyph name="Ef" format="2">
	<unicode hex="0424"/>
	<advance width="761"/>
	<outline>
		<contour>
			<point x="310" y="111" type="curve" smooth="yes"/>
			<point x="342" y="111" type="line"/>
			<point x="342" y="151" type="line"/>
			<point x="294" y="151" type="line" smooth="yes"/>
			<point x="226" y="171"/>
			<point x="184" y="205"/>
			<point x="184" y="298" type="curve" smooth="yes"/>
			<point x="184" y="407"/>
			<point x="244" y="490"/>
			<point x="359" y="514" type="curve" smooth="yes"/>
			<point x="413" y="514" type="line"/>
			<point x="412" y="553" type="line"/>
			<point x="374" y="553" type="line" smooth="yes"/>
			<point x="182" y="553"/>
			<point x="55" y="451"/>
			<point x="55" y="298" type="curve" smooth="yes"/>
			<point x="55" y="181"/>
			<point x="139" y="111"/>
		</contour>
		<contour>
			<point x="411" y="111" type="line"/>
			<point x="449" y="111" type="line" smooth="yes"/>
			<point x="641" y="111"/>
			<point x="768" y="214"/>
			<point x="768" y="367" type="curve" smooth="yes"/>
			<point x="768" y="484"/>
			<point x="684" y="553"/>
			<point x="513" y="553" type="curve" smooth="yes"/>
			<point x="481" y="553" type="line"/>
			<point x="482" y="514" type="line"/>
			<point x="529" y="514" type="line" smooth="yes"/>
			<point x="601" y="494"/>
			<point x="639" y="464"/>
			<point x="639" y="372" type="curve" smooth="yes"/>
			<point x="639" y="258"/>
			<point x="580" y="174"/>
			<point x="464" y="151" type="curve" smooth="yes"/>
			<point x="413" y="151" type="line"/>
		</contour>
		<contour>
			<point x="198" y="-19" type="line"/>
			<point x="503" y="-19" type="line"/>
			<point x="515" y="47" type="line"/>
			<point x="385" y="47" type="line"/>
			<point x="333" y="47" type="line"/>
			<point x="209" y="47" type="line"/>
		</contour>
		<contour>
			<point x="282" y="-19" type="line"/>
			<point x="413" y="-19" type="line"/>
			<point x="433" y="88"/>
			<point x="452" y="195"/>
			<point x="472" y="302" type="curve" smooth="yes"/>
			<point x="541" y="682" type="line"/>
			<point x="410" y="682" type="line"/>
			<point x="390" y="576"/>
			<point x="371" y="470"/>
			<point x="351" y="363" type="curve" smooth="yes"/>
		</contour>
		<contour>
			<point x="308" y="617" type="line"/>
			<point x="438" y="617" type="line"/>
			<point x="490" y="617" type="line"/>
			<point x="614" y="617" type="line"/>
			<point x="625" y="682" type="line"/>
			<point x="320" y="682" type="line"/>
		</contour>
	</outline>
</glyph>
<glyph name="Che" format="2">
	<unicode hex="0427"/>
	<advance width="732"/>
	<outline>
		<contour>
			<point x="358" y="262" type="curve" smooth="yes"/>
			<point x="439" y="262"/>
			<point x="506" y="284"/>
			<point x="556" y="304" type="curve"/>
			<point x="556" y="352" type="line"/>
			<point x="506" y="337"/>
			<point x="463" y="328"/>
			<point x="410" y="328" type="curve" smooth="yes"/>
			<point x="296" y="328"/>
			<point x="267" y="376"/>
			<point x="285" y="479" type="curve" smooth="yes"/>
			<point x="319" y="664" type="line"/>
			<point x="187" y="664" type="line"/>
			<point x="152" y="474" type="line" smooth="yes"/>
			<point x="126" y="330"/>
			<point x="206" y="262"/>
		</contour>
		<contour>
			<point x="92" y="598" type="line"/>
			<point x="215" y="598" type="line"/>
			<point x="268" y="598" type="line"/>
			<point x="385" y="598" type="line"/>
			<point x="397" y="664" type="line"/>
			<point x="104" y="664" type="line"/>
		</contour>
		<contour>
			<point x="345" y="0" type="line"/>
			<point x="658" y="0" type="line"/>
			<point x="669" y="66" type="line"/>
			<point x="540" y="66" type="line"/>
			<point x="488" y="66" type="line"/>
			<point x="356" y="66" type="line"/>
		</contour>
		<contour>
			<point x="436" y="0" type="line"/>
			<point x="568" y="0" type="line"/>
			<point x="587" y="101"/>
			<point x="605" y="201"/>
			<point x="623" y="302" type="curve" smooth="yes"/>
			<point x="688" y="664" type="line"/>
			<point x="556" y="664" type="line"/>
			<point x="538" y="563"/>
			<point x="520" y="464"/>
			<point x="502" y="363" type="curve" smooth="yes"/>
		</contour>
		<contour>
			<point x="461" y="598" type="line"/>
			<point x="585" y="598" type="line"/>
			<point x="637" y="598" type="line"/>
			<point x="760" y="598" type="line"/>
			<point x="772" y="664" type="line"/>
			<point x="472" y="664" type="line"/>
		</contour>
	</outline>
	<anchor name="aboveUC" x="432" y="684"/>
</glyph>
<glyph name="Yu" format="2">
	<unicode hex="042E"/>
	<advance width="1005"/>
	<outline>
		<contour>
			<point x="221" y="307" type="line"/>
			<point x="464" y="307" type="line"/>
			<point x="464" y="369" type="line"/>
			<point x="221" y="369" type="line"/>
		</contour>
		<contour>
			<point x="642" y="-16" type="curve" smooth="yes"/>
			<point x="849" y="-16"/>
			<point x="998" y="197"/>
			<point x="998" y="417" type="curve" smooth="yes"/>
			<point x="998" y="592"/>
			<point x="900" y="680"/>
			<point x="754" y="680" type="curve" smooth="yes"/>
			<point x="546" y="680"/>
			<point x="398" y="467"/>
			<point x="398" y="248" type="curve" smooth="yes"/>
			<point x="398" y="73"/>
			<point x="496" y="-16"/>
		</contour>
		<contour>
			<point x="649" y="50" type="curve" smooth="yes"/>
			<point x="576" y="50"/>
			<point x="533" y="102"/>
			<point x="533" y="229" type="curve" smooth="yes"/>
			<point x="533" y="425"/>
			<point x="622" y="614"/>
			<point x="747" y="614" type="curve" smooth="yes"/>
			<point x="820" y="614"/>
			<point x="862" y="563"/>
			<point x="862" y="436" type="curve" smooth="yes"/>
			<point x="862" y="239"/>
			<point x="774" y="50"/>
		</contour>
		<component base="I"/>
	</outline>
	<anchor name="aboveUC" x="506" y="684"/>
</glyph>
<glyph name="be" format="2">
	<unicode hex="0431"/>
	<advance width="557"/>
	<outline>
		<contour>
			<point x="249" y="-13" type="curve" smooth="yes"/>
			<point x="397" y="-13"/>
			<point x="539" y="113"/>
			<point x="539" y="300" type="curve" smooth="yes"/>
			<point x="539" y="427"/>
			<point x="458" y="484"/>
			<point x="354" y="484" type="curve" smooth="yes"/>
			<point x="233" y="484"/>
			<point x="166" y="412"/>
			<point x="135" y="310" type="curve"/>
			<point x="116" y="311" type="line"/>
			<point x="139" y="434"/>
			<point x="177" y="504"/>
			<point x="226" y="552" type="curve" smooth="yes"/>
			<point x="296" y="620"/>
			<point x="536" y="585"/>
			<point x="589" y="638" type="curve" smooth="yes"/>
			<point x="615" y="663"/>
			<point x="627" y="702"/>
			<point x="643" y="760" type="curve"/>
			<point x="593" y="772" type="line"/>
			<point x="565" y="724" type="line"/>
			<point x="352" y="706"/>
			<point x="272" y="692"/>
			<point x="206" y="626" type="curve" smooth="yes"/>
			<point x="145" y="565"/>
			<point x="54" y="387"/>
			<point x="54" y="215" type="curve" smooth="yes"/>
			<point x="54" y="42"/>
			<point x="133" y="-13"/>
		</contour>
		<contour>
			<point x="260" y="44" type="curve" smooth="yes"/>
			<point x="205" y="44"/>
			<point x="177" y="87"/>
			<point x="177" y="182" type="curve" smooth="yes"/>
			<point x="177" y="237"/>
			<point x="190" y="303"/>
			<point x="208" y="352" type="curve"/>
			<point x="242" y="394"/>
			<point x="272" y="421"/>
			<point x="320" y="421" type="curve" smooth="yes"/>
			<point x="378" y="421"/>
			<point x="408" y="385"/>
			<point x="408" y="310" type="curve" smooth="yes"/>
			<point x="408" y="168"/>
			<point x="342" y="44"/>
		</contour>
	</outline>
</glyph>
<glyph name="ve" format="2">
	<unicode hex="0432"/>
	<advance width="541"/>
	<outline>
		<contour>
			<point x="229" y="-13" type="curve" smooth="yes"/>
			<point x="377" y="-13"/>
			<point x="495" y="61"/>
			<point x="495" y="155" type="curve" smooth="yes"/>
			<point x="495" y="216"/>
			<point x="445" y="239"/>
			<point x="365" y="247" type="curve"/>
			<point x="369" y="279" type="line"/>
			<point x="317" y="261" type="line"/>
			<point x="347" y="240"/>
			<point x="368" y="210"/>
			<point x="368" y="160" type="curve" smooth="yes"/>
			<point x="368" y="91"/>
			<point x="316" y="43"/>
			<point x="246" y="43" type="curve" smooth="yes"/>
			<point x="195" y="43"/>
			<point x="171" y="75"/>
			<point x="171" y="149" type="curve" smooth="yes"/>
			<point x="171" y="243"/>
			<point x="201" y="333"/>
			<point x="236" y="387" type="curve" smooth="yes"/>
			<point x="270" y="440"/>
			<point x="305" y="471"/>
			<point x="353" y="471" type="curve" smooth="yes"/>
			<point x="390" y="471"/>
			<point x="411" y="447"/>
			<point x="411" y="409" type="curve" smooth="yes"/>
			<point x="411" y="337"/>
			<point x="339" y="279"/>
			<point x="146" y="270" type="curve"/>
			<point x="146" y="226" type="line"/>
			<point x="401" y="245"/>
			<point x="529" y="311"/>
			<point x="529" y="415" type="curve" smooth="yes"/>
			<point x="529" y="481"/>
			<point x="469" y="524"/>
			<point x="366" y="524" type="curve" smooth="yes"/>
			<point x="278" y="524"/>
			<point x="201" y="481"/>
			<point x="151" y="428" type="curve" smooth="yes"/>
			<point x="101" y="374"/>
			<point x="44" y="282"/>
			<point x="44" y="161" type="curve" smooth="yes"/>
			<point x="44" y="41"/>
			<point x="100" y="-13"/>
		</contour>
	</outline>
</glyph>
<glyph name="ghe" format="2">
	<unicode hex="0433"/>
	<advance width="440"/>
	<outline>
		<contour>
			<point x="173" y="-14" type="curve" smooth="yes"/>
			<point x="265" y="-14"/>
			<point x="332" y="33"/>
			<point x="386" y="94" type="curve"/>
			<point x="349" y="133" type="line"/>
			<point x="300" y="86"/>
			<point x="262" y="61"/>
			<point x="217" y="61" type="curve" smooth="yes"/>
			<point x="173" y="61"/>
			<point x="145" y="85"/>
			<point x="145" y="130" type="curve" smooth="yes"/>
			<point x="145" y="174"/>
			<point x="173" y="207"/>
			<point x="263" y="251" type="curve" smooth="yes"/>
			<point x="381" y="309"/>
			<point x="443" y="347"/>
			<point x="443" y="415" type="curve" smooth="yes"/>
			<point x="443" y="480"/>
			<point x="386" y="524"/>
			<point x="286" y="524" type="curve" smooth="yes"/>
			<point x="191" y="524"/>
			<point x="132" y="471"/>
			<point x="89" y="415" type="curve"/>
			<point x="126" y="376" type="line"/>
			<point x="167" y="426"/>
			<point x="201" y="450"/>
			<point x="252" y="450" type="curve" smooth="yes"/>
			<point x="297" y="450"/>
			<point x="321" y="429"/>
			<point x="321" y="391" type="curve" smooth="yes"/>
			<point x="321" y="352"/>
			<point x="292" y="325"/>
			<point x="200" y="282" type="curve" smooth="yes"/>
			<point x="89" y="231"/>
			<point x="22" y="183"/>
			<point x="22" y="104" type="curve" smooth="yes"/>
			<point x="22" y="32"/>
			<point x="80" y="-14"/>
		</contour>
	</outline>
	<anchor name="aboveLC" x="292" y="531"/>
</glyph>
<glyph name="zhe" format="2">
	<unicode hex="0436"/>
	<advance width="962"/>
	<outline>
		<contour>
			<point x="120" y="-13" type="curve" smooth="yes"/>
			<point x="248" y="-13"/>
			<point x="358" y="156"/>
			<point x="358" y="350" type="curve" smooth="yes"/>
			<point x="358" y="465"/>
			<point x="309" y="524"/>
			<point x="226" y="524" type="curve" smooth="yes"/>
			<point x="144" y="524"/>
			<point x="93" y="454"/>
			<point x="63" y="384" type="curve"/>
			<point x="108" y="356" type="line"/>
			<point x="136" y="409"/>
			<point x="154" y="435"/>
			<point x="189" y="435" type="curve" smooth="yes"/>
			<point x="224" y="435"/>
			<point x="240" y="402"/>
			<point x="240" y="333" type="curve" smooth="yes"/>
			<point x="240" y="200"/>
			<point x="185" y="65"/>
			<point x="133" y="19" type="curve"/>
			<point x="158" y="31" type="line"/>
			<point x="90" y="31" type="line"/>
			<point x="126" y="18" type="line"/>
			<point x="119" y="69" type="line" smooth="yes"/>
			<point x="113" y="119"/>
			<point x="94" y="142"/>
			<point x="61" y="142" type="curve" smooth="yes"/>
			<point x="29" y="142"/>
			<point x="10" y="119"/>
			<point x="4" y="82" type="curve"/>
			<point x="15" y="30"/>
			<point x="45" y="-13"/>
		</contour>
		<contour>
			<point x="314" y="239" type="line"/>
			<point x="682" y="244" type="line"/>
			<point x="682" y="292" type="line"/>
			<point x="314" y="297" type="line"/>
		</contour>
		<contour>
			<point x="418" y="-11" type="line"/>
			<point x="501" y="0" type="line"/>
			<point x="517" y="76"/>
			<point x="532" y="152"/>
			<point x="548" y="227" type="curve" smooth="yes"/>
			<point x="608" y="511" type="line"/>
			<point x="570" y="522" type="line"/>
			<point x="487" y="511" type="line"/>
			<point x="473" y="445"/>
			<point x="460" y="379"/>
			<point x="439" y="279" type="curve" smooth="yes"/>
			<point x="380" y="0" type="line"/>
		</contour>
		<contour>
			<point x="761" y="-13" type="curve" smooth="yes"/>
			<point x="844" y="-13"/>
			<point x="895" y="57"/>
			<point x="924" y="127" type="curve"/>
			<point x="879" y="155" type="line"/>
			<point x="851" y="102"/>
			<point x="833" y="76"/>
			<point x="798" y="76" type="curve" smooth="yes"/>
			<point x="763" y="76"/>
			<point x="747" y="109"/>
			<point x="747" y="178" type="curve" smooth="yes"/>
			<point x="747" y="313"/>
			<point x="802" y="451"/>
			<point x="856" y="493" type="curve"/>
			<point x="829" y="480" type="line"/>
			<point x="880" y="480" type="line"/>
			<point x="861" y="494" type="line"/>
			<point x="868" y="441" type="line" smooth="yes"/>
			<point x="874" y="391"/>
			<point x="893" y="369"/>
			<point x="926" y="369" type="curve" smooth="yes"/>
			<point x="958" y="369"/>
			<point x="977" y="392"/>
			<point x="983" y="427" type="curve"/>
			<point x="975" y="480"/>
			<point x="940" y="524"/>
			<point x="866" y="524" type="curve" smooth="yes"/>
			<point x="739" y="524"/>
			<point x="629" y="355"/>
			<point x="629" y="161" type="curve" smooth="yes"/>
			<point x="629" y="45"/>
			<point x="678" y="-13"/>
		</contour>
	</outline>
	<anchor name="aboveLC" x="543" y="531"/>
</glyph>
<glyph name="ze" format="2">
	<unicode hex="0437"/>
	<advance width="478"/>
	<outline>
		<contour>
			<point x="198" y="-13" type="curve" smooth="yes"/>
			<point x="331" y="-13"/>
			<point x="427" y="52"/>
			<point x="427" y="147" type="curve" smooth="yes"/>
			<point x="427" y="225"/>
			<point x="366" y="256"/>
			<point x="254" y="256" type="curve"/>
			<point x="256" y="272" type="line"/>
			<point x="373" y="280"/>
			<point x="460" y="319"/>
			<point x="460" y="409" type="curve" smooth="yes"/>
			<point x="460" y="483"/>
			<point x="390" y="524"/>
			<point x="292" y="524" type="curve" smooth="yes"/>
			<point x="201" y="524"/>
			<point x="136" y="482"/>
			<point x="88" y="421" type="curve"/>
			<point x="123" y="386" type="line"/>
			<point x="160" y="425"/>
			<point x="196" y="454"/>
			<point x="254" y="454" type="curve" smooth="yes"/>
			<point x="304" y="454"/>
			<point x="335" y="430"/>
			<point x="335" y="385" type="curve" smooth="yes"/>
			<point x="335" y="332"/>
			<point x="298" y="295"/>
			<point x="202" y="295" type="curve" smooth="yes"/>
			<point x="162" y="295" type="line"/>
			<point x="152" y="235" type="line"/>
			<point x="190" y="235" type="line" smooth="yes"/>
			<point x="264" y="235"/>
			<point x="299" y="212"/>
			<point x="299" y="149" type="curve" smooth="yes"/>
			<point x="299" y="79"/>
			<point x="254" y="35"/>
			<point x="164" y="35" type="curve" smooth="yes"/>
			<point x="131" y="35"/>
			<point x="96" y="40"/>
			<point x="80" y="44" type="curve"/>
			<point x="130" y="17" type="line"/>
			<point x="130" y="86" type="line" smooth="yes"/>
			<point x="130" y="137"/>
			<point x="107" y="158"/>
			<point x="72" y="158" type="curve" smooth="yes"/>
			<point x="37" y="158"/>
			<point x="22" y="137"/>
			<point x="16" y="115" type="curve"/>
			<point x="26" y="34"/>
			<point x="69" y="-13"/>
		</contour>
	</outline>
	<anchor name="aboveLC" x="325" y="531"/>
</glyph>
<glyph name="el" format="2">
	<unicode hex="043B"/>
	<advance width="622"/>
	<outline>
		<contour>
			<point x="81" y="-13" type="curve" smooth="yes"/>
			<point x="142" y="-13"/>
			<point x="171" y="24"/>
			<point x="191" y="77" type="curve" smooth="yes"/>
			<point x="212" y="135"/>
			<point x="223" y="174"/>
			<point x="259" y="294" type="curve" smooth="yes"/>
			<point x="296" y="412"/>
			<point x="329" y="463"/>
			<point x="421" y="463" type="curve" smooth="yes"/>
			<point x="449" y="463"/>
			<point x="474" y="458"/>
			<point x="490" y="455" type="curve"/>
			<point x="441" y="484" type="line"/>
			<point x="427" y="430"/>
			<point x="412" y="376"/>
			<point x="397" y="321" type="curve" smooth="yes"/>
			<point x="362" y="193" type="line" smooth="yes"/>
			<point x="351" y="154"/>
			<point x="341" y="112"/>
			<point x="341" y="77" type="curve" smooth="yes"/>
			<point x="341" y="16"/>
			<point x="379" y="-13"/>
			<point x="445" y="-13" type="curve" smooth="yes"/>
			<point x="528" y="-13"/>
			<point x="576" y="41"/>
			<point x="616" y="114" type="curve"/>
			<point x="572" y="140" type="line"/>
			<point x="542" y="91"/>
			<point x="526" y="72"/>
			<point x="504" y="72" type="curve" smooth="yes"/>
			<point x="486" y="72"/>
			<point x="476" y="83"/>
			<point x="476" y="103" type="curve" smooth="yes"/>
			<point x="476" y="119"/>
			<point x="481" y="143"/>
			<point x="488" y="177" type="curve" smooth="yes"/>
			<point x="566" y="508" type="line"/>
			<point x="545" y="513"/>
			<point x="490" y="524"/>
			<point x="432" y="524" type="curve" smooth="yes"/>
			<point x="288" y="524"/>
			<point x="248" y="428"/>
			<point x="211" y="315" type="curve" smooth="yes"/>
			<point x="175" y="205"/>
			<point x="150" y="107"/>
			<point x="125" y="54" type="curve"/>
			<point x="142" y="43" type="line"/>
			<point x="170" y="83" type="line"/>
			<point x="158" y="92" type="line" smooth="yes"/>
			<point x="125" y="117"/>
			<point x="105" y="124"/>
			<point x="76" y="124" type="curve" smooth="yes"/>
			<point x="26" y="124"/>
			<point x="4" y="88"/>
			<point x="-1" y="57" type="curve"/>
			<point x="5" y="19"/>
			<point x="31" y="-13"/>
		</contour>
	</outline>
</glyph>
<glyph name="em" format="2">
	<unicode hex="043C"/>
	<advance width="845"/>
	<outline>
		<contour>
			<point x="79" y="-13" type="curve" smooth="yes"/>
			<point x="136" y="-13"/>
			<point x="163" y="23"/>
			<point x="185" y="79" type="curve" smooth="yes"/>
			<point x="204" y="127"/>
			<point x="219" y="175"/>
			<point x="235" y="232" type="curve" smooth="yes"/>
			<point x="248" y="296"/>
			<point x="265" y="373"/>
			<point x="278" y="445" type="curve"/>
			<point x="292" y="445" type="line"/>
			<point x="325" y="14" type="line"/>
			<point x="354" y="5" type="line"/>
			<point x="418" y="15" type="line"/>
			<point x="466" y="103"/>
			<point x="510" y="179"/>
			<point x="551" y="266" type="curve"/>
			<point x="628" y="445" type="line"/>
			<point x="659" y="445" type="line"/>
			<point x="650" y="466" type="line"/>
			<point x="590" y="188" type="line" smooth="yes"/>
			<point x="582" y="149"/>
			<point x="572" y="115"/>
			<point x="572" y="77" type="curve" smooth="yes"/>
			<point x="572" y="19"/>
			<point x="601" y="-13"/>
			<point x="670" y="-13" type="curve" smooth="yes"/>
			<point x="752" y="-13"/>
			<point x="800" y="41"/>
			<point x="839" y="114" type="curve"/>
			<point x="795" y="141" type="line"/>
			<point x="763" y="86"/>
			<point x="749" y="70"/>
			<point x="726" y="70" type="curve" smooth="yes"/>
			<point x="708" y="70"/>
			<point x="698" y="82"/>
			<point x="698" y="99" type="curve" smooth="yes"/>
			<point x="698" y="121"/>
			<point x="706" y="149"/>
			<point x="716" y="192" type="curve" smooth="yes"/>
			<point x="781" y="511" type="line"/>
			<point x="738" y="522" type="line"/>
			<point x="618" y="505" type="line"/>
			<point x="578" y="430"/>
			<point x="537" y="350"/>
			<point x="503" y="283" type="curve"/>
			<point x="427" y="94" type="line"/>
			<point x="416" y="94" type="line"/>
			<point x="387" y="511" type="line"/>
			<point x="351" y="522" type="line"/>
			<point x="259" y="505" type="line"/>
			<point x="246" y="451"/>
			<point x="224" y="370"/>
			<point x="199" y="289" type="curve" smooth="yes"/>
			<point x="176" y="213"/>
			<point x="144" y="106"/>
			<point x="121" y="54" type="curve"/>
			<point x="138" y="42" type="line"/>
			<point x="166" y="83" type="line"/>
			<point x="122" y="115"/>
			<point x="106" y="124"/>
			<point x="73" y="124" type="curve" smooth="yes"/>
			<point x="27" y="124"/>
			<point x="3" y="90"/>
			<point x="-2" y="55" type="curve"/>
			<point x="3" y="19"/>
			<point x="32" y="-13"/>
		</contour>
	</outline>
</glyph>
<glyph name="sha" format="2">
	<unicode hex="0448"/>
	<advance width="959"/>
	<outline>
		<contour>
			<point x="178" y="-13" type="curve" smooth="yes"/>
			<point x="262" y="-13"/>
			<point x="317" y="41"/>
			<point x="368" y="120" type="curve"/>
			<point x="399" y="120" type="line"/>
			<point x="412" y="193" type="line"/>
			<point x="332" y="113"/>
			<point x="296" y="83"/>
			<point x="252" y="83" type="curve" smooth="yes"/>
			<point x="224" y="83"/>
			<point x="208" y="99"/>
			<point x="208" y="125" type="curve" smooth="yes"/>
			<point x="208" y="149"/>
			<point x="215" y="175"/>
			<point x="223" y="207" type="curve" smooth="yes"/>
			<point x="295" y="511" type="line"/>
			<point x="244" y="521" type="line"/>
			<point x="61" y="464" type="line"/>
			<point x="49" y="410" type="line"/>
			<point x="191" y="410" type="line"/>
			<point x="150" y="447" type="line"/>
			<point x="88" y="189" type="line" smooth="yes"/>
			<point x="80" y="157"/>
			<point x="72" y="117"/>
			<point x="72" y="84" type="curve" smooth="yes"/>
			<point x="72" y="28"/>
			<point x="106" y="-13"/>
		</contour>
		<contour>
			<point x="484" y="-13" type="curve" smooth="yes"/>
			<point x="568" y="-13"/>
			<point x="622" y="41"/>
			<point x="673" y="120" type="curve"/>
			<point x="705" y="120" type="line"/>
			<point x="705" y="178" type="line"/>
			<point x="638" y="113"/>
			<point x="601" y="83"/>
			<point x="557" y="83" type="curve" smooth="yes"/>
			<point x="529" y="83"/>
			<point x="514" y="99"/>
			<point x="514" y="125" type="curve" smooth="yes"/>
			<point x="514" y="149"/>
			<point x="520" y="173"/>
			<point x="525" y="200" type="curve" smooth="yes"/>
			<point x="594" y="511" type="line"/>
			<point x="556" y="520" type="line"/>
			<point x="461" y="507" type="line"/>
			<point x="451" y="460"/>
			<point x="441" y="412"/>
			<point x="430" y="364" type="curve" smooth="yes"/>
			<point x="391" y="187" type="line" smooth="yes"/>
			<point x="387" y="171"/>
			<point x="385" y="156"/>
			<point x="383" y="137" type="curve"/>
			<point x="388" y="137" type="line"/>
			<point x="384" y="119"/>
			<point x="380" y="102"/>
			<point x="380" y="86" type="curve" smooth="yes"/>
			<point x="380" y="28"/>
			<point x="412" y="-13"/>
		</contour>
		<contour>
			<point x="783" y="-13" type="curve" smooth="yes"/>
			<point x="861" y="-13"/>
			<point x="911" y="40"/>
			<point x="951" y="112" type="curve"/>
			<point x="905" y="140" type="line"/>
			<point x="871" y="86"/>
			<point x="858" y="70"/>
			<point x="836" y="70" type="curve" smooth="yes"/>
			<point x="817" y="70"/>
			<point x="809" y="82"/>
			<point x="809" y="98" type="curve" smooth="yes"/>
			<point x="809" y="115"/>
			<point x="816" y="149"/>
			<point x="824" y="182" type="curve" smooth="yes"/>
			<point x="896" y="511" type="line"/>
			<point x="858" y="520" type="line"/>
			<point x="763" y="507" type="line"/>
			<point x="753" y="458"/>
			<point x="742" y="409"/>
			<point x="732" y="359" type="curve" smooth="yes"/>
			<point x="684" y="134" type="line"/>
			<point x="694" y="134" type="line" smooth="yes"/>
			<point x="691" y="122"/>
			<point x="686" y="101"/>
			<point x="686" y="79" type="curve" smooth="yes"/>
			<point x="686" y="20"/>
			<point x="716" y="-13"/>
		</contour>
	</outline>
</glyph>
<glyph name="shcha" format="2">
	<unicode hex="0449"/>
	<advance width="955"/>
	<outline>
		<contour>
			<point x="724" y="-248" type="line"/>
			<point x="819" y="-227"/>
			<point x="864" y="-195"/>
			<point x="864" y="-120" type="curve" smooth="yes"/>
			<point x="864" y="-85" type="line" smooth="yes"/>
			<point x="864" y="-10"/>
			<point x="907" y="35"/>
			<point x="949" y="114" type="curve"/>
			<point x="916" y="114" type="line"/>
			<point x="850" y="35" type="line"/>
			<point x="870" y="0" type="line"/>
			<point x="817" y="-32"/>
			<point x="791" y="-68"/>
			<point x="778" y="-114" type="curve" smooth="yes"/>
			<point x="771" y="-139" type="line" smooth="yes"/>
			<point x="761" y="-180"/>
			<point x="744" y="-192"/>
			<point x="708" y="-205" type="curve"/>
		</contour>
		<component base="sha"/>
	</outline>
</glyph>
